<svg xmlns="http://www.w3.org/2000/svg" width="14" height="13" viewBox="0 0 14 13"><g><g><g><path fill="#eb0147" d="M5.667 11.76h2.656c0 .196-.066.392-.132.523a1.15 1.15 0 0 1-.93.784h-.266c-.73 0-1.328-.588-1.328-1.307zm5.675-2.613l1.335 1.306v.654H1.333v-.654l1.335-1.306V5.553c0-2.025 1.401-3.658 3.336-4.116V.98c0-.523.467-.98 1.001-.98.534 0 1 .457 1 .98v.457c1.936.458 3.337 2.091 3.337 4.116zm-1.009-8.102l.934-.914c1.6 1.176 2.6 3.005 2.733 5.096h-1.333c-.134-1.764-1-3.267-2.334-4.182zm-9 4.182H0A6.853 6.853 0 0 1 2.8.13l.933.914c-1.4.915-2.266 2.418-2.4 4.182z"/></g></g></g></svg>