<svg xmlns="http://www.w3.org/2000/svg" width="14" height="14" viewBox="0 0 14 14"><g><g><g><path fill="#838993" d="M6.986 8.779V3.45c-.15.014-.3.038-.452.045h-4.35a.437.437 0 0 0-.437.436v.437H.437A.437.437 0 0 0 0 4.804v2.62c0 .241.196.437.437.437h1.31v.437c0 .24.195.436.436.436h.265l1.755 4.68a.868.868 0 0 0 .818.56.848.848 0 0 0 .614-.258l1.048-1.04a.871.871 0 0 0 .161-1.01L5.379 8.734h1.16c.15.007.298.03.447.045z"/></g><g><path fill="#838993" d="M13.901.211a.431.431 0 0 0-.21-.18c-.003-.001-.004-.005-.007-.006-.009-.002-.017.002-.025 0C13.619.012 13.58 0 13.536 0c-.03 0-.055.011-.084.017-.017.004-.033.005-.05.01a.433.433 0 0 0-.19.124c-.004.004-.01.004-.013.008A9.189 9.189 0 0 1 7.86 3.323v5.581a9.188 9.188 0 0 1 5.34 3.163c.003.005.009.006.013.012.03.034.068.06.109.083.013.008.023.02.036.026a.45.45 0 0 0 .326.013c.003-.001.004-.005.007-.005a.425.425 0 0 0 .182-.14c.011-.014.019-.026.028-.041a.423.423 0 0 0 .072-.226V.437a.423.423 0 0 0-.072-.226z"/></g></g></g></svg>