<svg xmlns="http://www.w3.org/2000/svg" width="17" height="14" viewBox="0 0 17 14"><g><g><path fill="#01c58d" d="M1.133 3.5V1.458c0-.079.028-.147.084-.205a.27.27 0 0 1 .2-.086h14.176c.077 0 .143.028.2.086a.284.284 0 0 1 .084.205V3.5zm14.744 9.042c0 .079-.028.147-.085.205a.27.27 0 0 1-.199.086H1.417a.269.269 0 0 1-.2-.086.285.285 0 0 1-.084-.205V7h14.744v5.542zM16.584.428a1.345 1.345 0 0 0-1-.428H1.416c-.39 0-.723.143-1 .428A1.425 1.425 0 0 0 0 1.458v11.084c0 .4.139.744.416 1.03.278.285.611.428 1 .428h14.167c.39 0 .723-.143 1-.428.278-.286.417-.63.417-1.03V1.458c0-.4-.139-.744-.416-1.03z"/></g><g><path fill="#01c58d" d="M2 11h2v1H2z"/></g><g><path fill="#01c58d" d="M6 11h3v1H6z"/></g></g></svg>