<svg xmlns="http://www.w3.org/2000/svg" width="10" height="16" viewBox="0 0 10 16"><g><g><g><g><path fill="#38e2b2" d="M7.483.87v4.296c0 1.798-1.31 3.257-2.926 3.257-.808 0-1.544-.36-2.065-.96-.539-.579-.862-1.398-.862-2.297V.87z"/></g><g><path fill="#38e2b2" d="M7.483 11.677v4.296H1.63v-4.296c0-1.798 1.31-3.257 2.927-3.257.808 0 1.544.36 2.064.96.539.579.862 1.398.862 2.297z"/></g></g><g><g><path fill="#01c58d" d="M5.016 8.59a3.545 3.545 0 0 1-2.602-1.113C1.715 6.779 1.33 5.83 1.33 4.806V.59h1.146v4.216c0 .706.263 1.357.742 1.832l.014.014a2.423 2.423 0 0 0 1.784.762c1.4 0 2.54-1.17 2.54-2.608V.59h1.146v4.216c0 2.086-1.654 3.784-3.686 3.784z"/></g><g><path fill="#01c58d" d="M8.702 15.41H7.556v-4.216c0-.706-.264-1.357-.742-1.832L6.8 9.348a2.423 2.423 0 0 0-1.784-.762c-1.4 0-2.54 1.17-2.54 2.608v4.216H1.33v-4.216c0-2.086 1.654-3.784 3.686-3.784.998 0 1.922.395 2.601 1.114.7.698 1.085 1.646 1.085 2.67v4.216z"/></g><g><path fill="#01c58d" d="M9.44 1.176H.504A.58.58 0 0 1-.07.588.58.58 0 0 1 .503 0h8.938a.58.58 0 0 1 .573.588.58.58 0 0 1-.573.588z"/></g><g><path fill="#01c58d" d="M9.44 15.996H.504a.58.58 0 0 1-.573-.588.58.58 0 0 1 .573-.588h8.938a.58.58 0 0 1 .573.588.58.58 0 0 1-.573.588z"/></g></g></g></g></svg>