<svg xmlns="http://www.w3.org/2000/svg" width="23" height="21" viewBox="0 0 23 21"><g><g><g><path fill="#2b2f37" d="M22.847 12.882l-1.472-1.694a.715.715 0 0 0-.896-.14l-1.942 1.15a.638.638 0 0 0-.222.903.711.711 0 0 0 .95.21l.618-.364c-.513 1.814-1.616 3.444-3.196 4.687A8.686 8.686 0 0 1 8.8 19.121c-1.685-.511-3.108-1.39-4.23-2.61a8.783 8.783 0 0 1-2.104-4.03c-.079-.354-.445-.58-.818-.506-.373.075-.61.424-.532.778.81 3.636 3.525 6.483 7.265 7.618a10.11 10.11 0 0 0 9.187-1.725c1.852-1.458 3.13-3.384 3.695-5.527l.52.6a.703.703 0 0 0 .533.238c.155 0 .31-.05.44-.15a.635.635 0 0 0 .092-.925z"/></g><g><path fill="#2b2f37" d="M2.161 9.857a.717.717 0 0 0 .364-.098l1.942-1.143a.633.633 0 0 0 .222-.9.713.713 0 0 0-.95-.21l-.637.375c.44-1.635 1.358-3.106 2.7-4.31a8.863 8.863 0 0 1 4.248-2.104 8.882 8.882 0 0 1 4.732.377c1.526.56 2.814 1.433 3.828 2.597a8.74 8.74 0 0 1 1.93 3.812c.08.353.446.578.818.503.373-.075.61-.422.532-.774a10.02 10.02 0 0 0-2.216-4.371C18.508 2.27 17.03 1.267 15.28.626A10.334 10.334 0 0 0 9.775.187a10.273 10.273 0 0 0-4.923 2.436c-.99.89-1.786 1.919-2.364 3.06a9.85 9.85 0 0 0-.755 2.005l-.511-.586a.717.717 0 0 0-.971-.087.63.63 0 0 0-.093.919l1.47 1.686a.705.705 0 0 0 .533.237z"/></g><g><path fill="#2b2f37" d="M10.87 7.172a.244.244 0 0 1-.273.21A1.287 1.287 0 0 0 9.196 8.42a.244.244 0 1 1-.473-.122c.326-1.27 1.41-1.471 1.938-1.4a.245.245 0 0 1 .21.275zm4.559-.529c-.786-.718-1.676-.717-2.34-.556-.663.16-1.358.16-2.02 0-.666-.161-1.555-.162-2.341.556-1.49 1.362-.29 3.793.07 4.212.36.419.372.977.628 2.117.256 1.14.582 2.222 1.233 2.06.652-.164.826-.955.989-2.013.011-.073.023-.141.035-.206.083-.44.708-.44.79 0 .013.064.025.133.036.206.163 1.058.337 1.85.989 2.012.651.163.977-.919 1.233-2.059.256-1.14.267-1.698.628-2.117.36-.42 1.559-2.85.07-4.212z"/></g></g></g></svg>