<svg xmlns="http://www.w3.org/2000/svg" width="13" height="13" viewBox="0 0 13 13"><g><g><g><path fill="#838993" d="M6.949 7.295c0 .017-.003.034-.006.05-.001.014-.002.027-.005.04l-.012.039c-.005.016-.01.031-.017.046l-.002.008a.444.444 0 0 1-.034.06l-.003.003a.447.447 0 0 1-.047.057l-.014.014a.431.431 0 0 1-.048.04l-.015.01a.45.45 0 0 1-.068.037l-.015.005a.453.453 0 0 1-.163.032l-.017-.002a.453.453 0 0 1-.077-.008l-.023-.007a.456.456 0 0 1-.067-.023l-.008-.003-2.492-1.175a.45.45 0 0 1 .383-.814l1.851.873v-3.88a.45.45 0 0 1 .9 0v4.59l-.001.008zM6.499 0A6.5 6.5 0 1 0 6.5 13a6.5 6.5 0 0 0 0-13z"/></g></g></g></svg>