<svg xmlns="http://www.w3.org/2000/svg" width="11" height="12" viewBox="0 0 11 12"><g><g><g><path fill="#838993" d="M1.029 11V1h4.114v3.25c0 .208.075.385.225.531.15.146.332.219.546.219h3.343v6zm5.143-9.938c.155.053.265.11.329.172L9.016 3.68c.064.062.123.169.177.32H6.172zm3.953 2.5a1.81 1.81 0 0 0-.386-.593L7.232.53a1.88 1.88 0 0 0-.61-.375A1.9 1.9 0 0 0 5.915 0H.77a.755.755 0 0 0-.546.219A.713.713 0 0 0 0 .75v10.5c0 .208.075.386.225.531.15.146.332.219.546.219h8.743a.755.755 0 0 0 .547-.219.714.714 0 0 0 .225-.531v-7a1.76 1.76 0 0 0-.16-.688z"/></g></g></g></svg>