<svg xmlns="http://www.w3.org/2000/svg" width="15" height="14" viewBox="0 0 15 14"><g><g><g><path fill="#0177e8" d="M14.546 6.774a.427.427 0 0 0-.43.429v3.902a1.925 1.925 0 0 1-1.922 1.923H2.78a1.925 1.925 0 0 1-1.923-1.923V7.14A.427.427 0 0 0 .43 6.71.427.427 0 0 0 0 7.139v3.966a2.784 2.784 0 0 0 2.78 2.78h9.414a2.784 2.784 0 0 0 2.78-2.78V7.203a.43.43 0 0 0-.428-.43z"/></g><g><path fill="#0177e8" d="M7.186 10.481a.419.419 0 0 0 .604 0l2.727-2.726a.428.428 0 0 0 0-.607.428.428 0 0 0-.607 0L7.917 9.143V.44A.427.427 0 0 0 7.488.01a.427.427 0 0 0-.429.429v8.704L5.063 7.148a.428.428 0 0 0-.607 0 .428.428 0 0 0 0 .607z"/></g></g></g></svg>