<svg xmlns="http://www.w3.org/2000/svg" width="12" height="10" viewBox="0 0 12 10"><g><g><g><path fill="#838993" d="M1.15 2.924l1.373.954c.763.528 1.347.935 1.753 1.22l.284.205c.145.105.266.19.361.254.096.065.212.137.349.218.136.08.264.14.384.18.12.04.232.06.335.06H6.002c.103 0 .215-.02.335-.06.12-.04.249-.1.385-.18a7.07 7.07 0 0 0 .709-.472l.284-.204c.41-.286 1.455-1.01 3.132-2.175.326-.227.598-.502.816-.823.219-.321.328-.658.328-1.01 0-.295-.106-.547-.318-.757a1.034 1.034 0 0 0-.752-.314H1.07C.727.02.463.136.278.368.093.6 0 .89 0 1.238c0 .28.123.585.368.913.245.328.506.586.783.773z"/></g><g><path fill="#838993" d="M11.322 3.642A139.06 139.06 0 0 0 7.99 5.951c-.255.187-.46.333-.62.438-.158.105-.368.212-.632.321-.263.11-.508.164-.736.164H5.99c-.228 0-.473-.054-.736-.164a3.822 3.822 0 0 1-.632-.321A15.851 15.851 0 0 1 4 5.951C3.4 5.509 2.292 4.74.677 3.642A3.545 3.545 0 0 1 0 3.06v5.313c0 .295.105.546.314.756.21.21.462.315.757.315h9.85c.294 0 .546-.105.756-.315.21-.21.314-.461.314-.756V3.06a3.69 3.69 0 0 1-.669.582z"/></g></g></g></svg>