<svg id="SVGDoc" width="13" height="13" xmlns="http://www.w3.org/2000/svg" version="1.1" xmlns:xlink="http://www.w3.org/1999/xlink" xmlns:avocode="https://avocode.com/" viewBox="0 0 13 13"><defs><path d="M1150.78125,3836.9375c0,1.56813 -1.27562,2.84375 -2.84375,2.84375h-4.875c-1.56812,0 -2.84375,-1.27562 -2.84375,-2.84375v-4.875c0,-1.56812 1.27563,-2.84375 2.84375,-2.84375h4.875c1.56813,0 2.84375,1.27563 2.84375,2.84375zM1147.9375,3828h-4.875c-2.24331,0 -4.0625,1.81919 -4.0625,4.0625v4.875c0,2.24331 1.81919,4.0625 4.0625,4.0625h4.875c2.24331,0 4.0625,-1.81919 4.0625,-4.0625v-4.875c0,-2.24331 -1.81919,-4.0625 -4.0625,-4.0625z" id="Path-0"/><path d="M1145.5,3836.6875c-1.20575,0 -2.1875,-0.98175 -2.1875,-2.1875c0,-1.20662 0.98175,-2.1875 2.1875,-2.1875c1.20575,0 2.1875,0.98088 2.1875,2.1875c0,1.20575 -0.98175,2.1875 -2.1875,2.1875zM1145.5,3831c-1.93287,0 -3.5,1.56713 -3.5,3.5c0,1.93288 1.56713,3.5 3.5,3.5c1.93288,0 3.5,-1.56712 3.5,-3.5c0,-1.93287 -1.56712,-3.5 -3.5,-3.5z" id="Path-1"/><path d="M1148,3831.5c0,-0.27614 0.22386,-0.5 0.5,-0.5c0.27614,0 0.5,0.22386 0.5,0.5c0,0.27614 -0.22386,0.5 -0.5,0.5c-0.27614,0 -0.5,-0.22386 -0.5,-0.5z" id="Path-2"/></defs><desc>Generated with Avocode.</desc><g transform="matrix(1,0,0,1,-1139,-3828)"><g><title>instagram</title><g><title>Shape</title><use xlink:href="#Path-0" fill="#1f2933" fill-opacity="1"/></g><g><title>Shape</title><use xlink:href="#Path-1" fill="#1f2933" fill-opacity="1"/></g><g><title>Oval</title><use xlink:href="#Path-2" fill="#1f2933" fill-opacity="1"/></g></g></g></svg>