<svg xmlns="http://www.w3.org/2000/svg" width="10" height="15" viewBox="0 0 10 15"><g><g><path fill="#838993" d="M7.043 12.53v.573a.907.907 0 0 1-.767.898l-.141.52a.645.645 0 0 1-.623.479H4.117a.645.645 0 0 1-.623-.48l-.136-.519a.91.91 0 0 1-.772-.902v-.572a.55.55 0 0 1 .55-.552h3.357c.305.004.55.25.55.556zm2.6-7.708A4.798 4.798 0 0 1 8.29 8.169a4.422 4.422 0 0 0-1.185 2.4.797.797 0 0 1-.789.673H3.323a.79.79 0 0 1-.785-.669 4.471 4.471 0 0 0-1.192-2.408A4.802 4.802 0 0 1 0 4.874 4.808 4.808 0 0 1 4.79 0a4.819 4.819 0 0 1 4.853 4.822z"/></g></g></svg>