<svg xmlns="http://www.w3.org/2000/svg" width="15" height="10" viewBox="0 0 15 10"><g><g><g><path fill="#838993" d="M13.275 4.679c-.697.46-2.439 1.398-5.229 1.526-2.883.13-5.012-.888-5.924-1.43.621-.144 1.148-.436 1.621-.7.537-.297 1.001-.554 1.485-.554.599 0 1.189.194 1.663.35.38.125.682.223.903.207.2-.014.464-.092.77-.183.464-.137 1.043-.309 1.601-.309.401 0 .915.239 1.46.492.54.252 1.095.51 1.65.6zm1.619-.455c-.345-.14-.852-.798-1.39-1.494-.976-1.266-2.081-2.7-3.273-2.7A3.318 3.318 0 0 0 7.5 1.399C7.167 1.025 6.257.158 4.977.158 3.974.158 2.75 1.596 1.67 2.864 1.047 3.595.458 4.286.144 4.394a.153.153 0 0 0-.016.285c.528.248 1.069.92 1.695 1.697.877 1.089 1.87 2.322 3.19 2.829.804.308 1.668.458 2.642.458.932 0 1.835-.142 2.517-.266 1.172-.212 2.925-2.543 3.972-3.936.335-.445.681-.905.768-.961a.155.155 0 0 0 .078-.144.151.151 0 0 0-.096-.132z"/></g></g></g></svg>