<svg xmlns="http://www.w3.org/2000/svg" width="16" height="13" viewBox="0 0 16 13"><g><g><g><path fill="#01c58d" d="M12.747 1h1.637C15.276 1 16 1.645 16 2.442v9.116c0 .796-.724 1.442-1.616 1.442H1.616C.724 13 0 12.354 0 11.558V2.442C0 1.645.724 1 1.616 1z"/></g><g><path fill="#01c58d" d="M12.5 3c-.276 0-.5-.15-.5-.335V.335c0-.185.224-.335.5-.335s.5.15.5.335v2.33c0 .185-.224.335-.5.335z"/></g><g><path fill="#01c58d" d="M2.5 3c-.276 0-.5-.15-.5-.335V.335C2 .15 2.224 0 2.5 0s.5.15.5.335v2.33C3 2.85 2.776 3 2.5 3z"/></g><g><g><path fill="#fff" d="M6.266 5.665h-.672c-.229 0-.414-.144-.414-.322 0-.179.185-.323.414-.323h.672c.229 0 .414.144.414.323 0 .178-.185.322-.414.322z"/></g><g><path fill="#fff" d="M9.41 5.665h-.896c-.229 0-.414-.144-.414-.322 0-.179.185-.323.414-.323h.897c.228 0 .413.144.413.323 0 .178-.185.322-.413.322z"/></g><g><path fill="#fff" d="M12.55 5.665h-.896c-.229 0-.414-.144-.414-.322 0-.179.185-.323.414-.323h.897c.228 0 .413.144.413.323 0 .178-.185.322-.413.322z"/></g><g><path fill="#fff" d="M6.266 8.415h-.672c-.229 0-.414-.144-.414-.322 0-.179.185-.323.414-.323h.672c.229 0 .414.144.414.323 0 .178-.185.322-.414.322z"/></g><g><path fill="#fff" d="M3.127 8.415h-.673c-.229 0-.414-.144-.414-.322 0-.179.185-.323.414-.323h.672c.229 0 .414.144.414.323 0 .178-.185.322-.413.322z"/></g><g><path fill="#fff" d="M9.41 8.415h-.896c-.229 0-.414-.144-.414-.322 0-.179.185-.323.414-.323h.897c.228 0 .413.144.413.323 0 .178-.185.322-.413.322z"/></g><g><path fill="#fff" d="M12.55 8.415h-.896c-.229 0-.414-.144-.414-.322 0-.179.185-.323.414-.323h.897c.228 0 .413.144.413.323 0 .178-.185.322-.413.322z"/></g><g><path fill="#fff" d="M6.266 10.985h-.672c-.229 0-.414-.144-.414-.322 0-.179.185-.323.414-.323h.672c.229 0 .414.144.414.323 0 .178-.185.322-.414.322z"/></g><g><path fill="#fff" d="M3.127 10.985h-.673c-.229 0-.414-.144-.414-.322 0-.179.185-.323.414-.323h.672c.229 0 .414.144.414.323 0 .178-.185.322-.413.322z"/></g><g><path fill="#fff" d="M9.41 10.985h-.896c-.229 0-.414-.144-.414-.322 0-.179.185-.323.414-.323h.897c.228 0 .413.144.413.323 0 .178-.185.322-.413.322z"/></g></g></g></g></svg>