<svg xmlns="http://www.w3.org/2000/svg" width="12" height="12" viewBox="0 0 12 12"><g><g><path fill="#838993" d="M11.731 9.491L9.878 7.634c-.37-.369-.98-.357-1.363.026l-.933.935a27.15 27.15 0 0 1-.185-.103c-.59-.327-1.396-.776-2.245-1.628-.852-.853-1.3-1.663-1.628-2.254-.034-.063-.067-.123-.1-.18l.626-.628.309-.31c.382-.383.393-.995.024-1.365L2.53.27c-.368-.37-.98-.358-1.362.025L.645.822.66.836a3.029 3.029 0 0 0-.43.76 3.16 3.16 0 0 0-.192.773C-.207 4.402.72 6.26 3.236 8.782c3.478 3.485 6.28 3.222 6.401 3.209a3.126 3.126 0 0 0 1.529-.624l.011.01.53-.52c.381-.383.392-.995.024-1.366z"/></g></g></svg>