<svg xmlns="http://www.w3.org/2000/svg" width="16" height="15" viewBox="0 0 16 15"><g><g><g><path fill="#01c58d" d="M14.907 8.976l-.895-1.048a.43.43 0 0 0-.546-.087l-1.182.711a.399.399 0 0 0-.135.56c.122.19.381.249.578.13l.376-.226c-.312 1.123-.984 2.132-1.945 2.902a5.217 5.217 0 0 1-4.802.92c-1.025-.316-1.891-.86-2.574-1.615a5.469 5.469 0 0 1-1.28-2.495.42.42 0 0 0-.499-.313.407.407 0 0 0-.324.481c.493 2.25 2.146 4.014 4.422 4.716a6.088 6.088 0 0 0 5.592-1.068c1.128-.902 1.906-2.095 2.25-3.421l.316.37a.427.427 0 0 0 .591.055.397.397 0 0 0 .057-.572z"/><path fill="none" stroke="#01c58d" stroke-miterlimit="50" d="M14.907 8.976v0l-.895-1.048a.43.43 0 0 0-.546-.087l-1.182.711a.399.399 0 0 0-.135.56c.122.19.381.249.578.13l.376-.226c-.312 1.123-.984 2.132-1.945 2.902a5.217 5.217 0 0 1-4.802.92c-1.025-.316-1.891-.86-2.574-1.615a5.469 5.469 0 0 1-1.28-2.495.42.42 0 0 0-.499-.313.407.407 0 0 0-.324.481c.493 2.25 2.146 4.014 4.422 4.716a6.088 6.088 0 0 0 5.592-1.068c1.128-.902 1.906-2.095 2.25-3.421l.316.37a.427.427 0 0 0 .591.055.397.397 0 0 0 .057-.572z"/></g><g><path fill="#01c58d" d="M2.315 7.102c.076 0 .153-.02.222-.06l1.182-.708a.396.396 0 0 0 .135-.557.43.43 0 0 0-.578-.13l-.388.232c.268-1.013.827-1.923 1.643-2.669a5.36 5.36 0 0 1 5.467-1.068 5.59 5.59 0 0 1 2.33 1.607c.576.674.983 1.49 1.175 2.36A.42.42 0 0 0 14 6.42a.405.405 0 0 0 .323-.479 6.242 6.242 0 0 0-1.348-2.706A6.418 6.418 0 0 0 10.3 1.388a6.213 6.213 0 0 0-6.348 1.236 6.461 6.461 0 0 0-1.438 1.894 6.163 6.163 0 0 0-.46 1.241l-.311-.362a.431.431 0 0 0-.591-.055.394.394 0 0 0-.057.57l.895 1.043a.426.426 0 0 0 .324.147z"/><path fill="none" stroke="#01c58d" stroke-miterlimit="50" d="M2.315 7.102c.076 0 .153-.02.222-.06l1.182-.708a.396.396 0 0 0 .135-.557.43.43 0 0 0-.578-.13l-.388.232c.268-1.013.827-1.923 1.643-2.669a5.36 5.36 0 0 1 5.467-1.068 5.59 5.59 0 0 1 2.33 1.607c.576.674.983 1.49 1.175 2.36A.42.42 0 0 0 14 6.42a.405.405 0 0 0 .323-.479 6.242 6.242 0 0 0-1.348-2.706A6.418 6.418 0 0 0 10.3 1.388a6.213 6.213 0 0 0-6.348 1.236 6.461 6.461 0 0 0-1.438 1.894 6.163 6.163 0 0 0-.46 1.241l-.311-.362a.431.431 0 0 0-.591-.055.394.394 0 0 0-.057.57l.895 1.043a.426.426 0 0 0 .324.147z"/></g></g></g></svg>