<svg xmlns="http://www.w3.org/2000/svg" width="12" height="12" viewBox="0 0 12 12"><g><g><path fill="#838993" d="M7.36 7.36a3.111 3.111 0 0 1-2.283.948c-.89 0-1.65-.316-2.282-.949a3.111 3.111 0 0 1-.949-2.282c0-.89.316-1.65.949-2.282a3.111 3.111 0 0 1 2.282-.949c.89 0 1.65.316 2.282.949.633.632.949 1.393.949 2.282 0 .89-.316 1.65-.949 2.282zm4.373 3.068L9.26 7.954c.596-.86.894-1.82.894-2.877 0-.687-.133-1.345-.4-1.972a5.075 5.075 0 0 0-1.082-1.623A5.075 5.075 0 0 0 7.049.4 4.99 4.99 0 0 0 5.077 0C4.39 0 3.732.133 3.105.4a5.075 5.075 0 0 0-1.623 1.082A5.076 5.076 0 0 0 .4 3.105 4.989 4.989 0 0 0 0 5.077c0 .688.133 1.345.4 1.972a5.074 5.074 0 0 0 1.082 1.623c.454.454.995.815 1.623 1.082a4.99 4.99 0 0 0 1.972.4 4.94 4.94 0 0 0 2.877-.894l2.474 2.466c.173.183.39.274.649.274.25 0 .466-.091.649-.274a.887.887 0 0 0 .274-.649.883.883 0 0 0-.267-.649z"/></g></g></svg>