<svg xmlns="http://www.w3.org/2000/svg" width="14" height="14" viewBox="0 0 14 14"><g><g><g><path fill="#838993" d="M6.32 14.06a6.32 6.32 0 0 0 5.58-9.29c-.05.008-.104.01-.156.01-.03 0-.06 0-.091-.002l-.804-.062-.578.578a4.646 4.646 0 1 1-1.505-1.503l.524-.524-.071-.922a1.215 1.215 0 0 1 .003-.22A6.32 6.32 0 1 0 6.32 14.06z"/></g><g><path fill="#838993" d="M6.321 6.11c.042 0 .083.001.124.004l1.167-1.167.025-.025a3.11 3.11 0 0 0-4.427 2.82 3.112 3.112 0 1 0 5.93-1.315l-.025.025-1.167 1.167a1.633 1.633 0 1 1-1.627-1.51z"/></g><g><path fill="#838993" d="M12.835 2.104l.375-.375a.436.436 0 0 0 0-.618L12.95.85a.436.436 0 0 0-.616 0l-.43.429-.088-1.143A.145.145 0 0 0 11.668 0a.144.144 0 0 0-.103.043l-1.69 1.689a.739.739 0 0 0-.213.578l.004.067.082 1.057-.611.611-1.1 1.1-.024.024-1.064 1.064-.472.472a.364.364 0 0 0-.106.232l-.03.37a.369.369 0 0 0 .368.398h.019l.39-.019a.363.363 0 0 0 .243-.108l.467-.467 1.064-1.064.025-.025 1.1-1.1.663-.663.965.074.043.003.056.001a.742.742 0 0 0 .522-.215l1.687-1.688a.147.147 0 0 0-.092-.25z"/></g></g></g></svg>