<svg xmlns="http://www.w3.org/2000/svg" width="11" height="15" viewBox="0 0 11 15"><g><g><g><path fill="#838993" d="M5.502 7.026c1.597 0 2.892-1.573 2.892-3.513S7.97 0 5.502 0 2.61 1.573 2.61 3.513s1.295 3.513 2.892 3.513z"/></g><g><path fill="#838993" d="M.07 12.43c0-.195-.002-.055 0 0"/></g><g><path fill="#838993" d="M10.989 12.477c.004-.032.001-.224 0 0"/></g><g><path fill="#838993" d="M10.959 12.252c-.054-3.38-.495-4.342-3.873-4.952 0 0-.475.606-1.583.606-1.109 0-1.584-.606-1.584-.606-3.34.603-3.81 1.552-3.87 4.843-.006.268-.008.282-.009.251v.355s.805 1.621 5.463 1.621 5.462-1.62 5.462-1.62v-.263c0 .019-.003-.018-.006-.235z"/></g></g></g></svg>