<svg xmlns="http://www.w3.org/2000/svg" width="13" height="14" viewBox="0 0 13 14"><g><g><path fill="#838993" d="M4.31 1.747c-.027.2-.21.34-.41.313-.072-.008-1.658-.183-2.104 1.545a.366.366 0 0 1-.709-.182c.488-1.894 2.116-2.193 2.909-2.086.2.026.34.21.314.41zm6.772-.788C9.91-.111 8.585-.111 7.594.13c-.988.24-2.024.24-3.01 0-.992-.24-2.318-.242-3.49.829C-1.123 2.988.662 6.61 1.2 7.235c.537.625.555 1.457.936 3.156.382 1.7.867 3.312 1.838 3.07.971-.244 1.231-1.423 1.474-3 .017-.109.034-.21.052-.306.123-.657 1.055-.657 1.179 0 .018.095.035.197.052.305.243 1.578.503 2.757 1.474 3 .97.243 1.456-1.37 1.838-3.069.381-1.7.398-2.531.936-3.156.537-.624 2.323-4.247.104-6.276z"/></g></g></svg>