<svg xmlns="http://www.w3.org/2000/svg" width="12" height="15" viewBox="0 0 12 15"><g><g><g><path fill="#838993" d="M2.89 6.285c0-.169.138-.306.307-.306h.49c.169 0 .306.137.306.306v6.063c0 .169-.137.306-.306.306h-.49a.306.306 0 0 1-.306-.306zm2.453-.306h.494c.17 0 .31.137.31.306v6.063c0 .169-.14.306-.31.306h-.494a.308.308 0 0 1-.309-.306V6.285c0-.169.138-.306.309-.306zm1.834.306c0-.169.137-.306.306-.306h.49c.17 0 .306.137.306.306v6.063c0 .169-.137.306-.306.306h-.49a.306.306 0 0 1-.306-.306zm-5.864 7.976c.017.403.349.722.753.722h7.038a.754.754 0 0 0 .753-.722L10.36 3.65H.81z"/></g><g><path fill="#838993" d="M10.693.772H7.446V.158A.158.158 0 0 0 7.288 0h-3.41a.158.158 0 0 0-.158.158v.614H.473A.473.473 0 0 0 0 1.245V2.73h11.166V1.245a.473.473 0 0 0-.473-.473z"/></g></g></g></svg>