<?xml version="1.0" encoding="UTF-8" standalone="no"?>
<!-- Created with Inkscape (http://www.inkscape.org/) -->

<svg
   xmlns:dc="http://purl.org/dc/elements/1.1/"
   xmlns:cc="http://creativecommons.org/ns#"
   xmlns:rdf="http://www.w3.org/1999/02/22-rdf-syntax-ns#"
   xmlns:svg="http://www.w3.org/2000/svg"
   xmlns="http://www.w3.org/2000/svg"
   xmlns:sodipodi="http://sodipodi.sourceforge.net/DTD/sodipodi-0.dtd"
   xmlns:inkscape="http://www.inkscape.org/namespaces/inkscape"
   width="10.966242mm"
   height="9.037446mm"
   viewBox="0 0 38.856763 32.022446"
   id="svg4149"
   version="1.1"
   inkscape:version="0.91 r13725">
  <defs
     id="defs4151" />
  <sodipodi:namedview
     id="base"
     pagecolor="#ffffff"
     bordercolor="#666666"
     borderopacity="1.0"
     inkscape:pageopacity="0.0"
     inkscape:pageshadow="2"
     inkscape:zoom="1.979899"
     inkscape:cx="-20.216259"
     inkscape:cy="-15.390319"
     inkscape:document-units="px"
     inkscape:current-layer="layer1"
     showgrid="false"
     fit-margin-top="0"
     fit-margin-left="0"
     fit-margin-right="0"
     fit-margin-bottom="0"
     inkscape:window-width="1920"
     inkscape:window-height="976"
     inkscape:window-x="-8"
     inkscape:window-y="-8"
     inkscape:window-maximized="1" />
  <metadata
     id="metadata4154">
    <rdf:RDF>
      <cc:Work
         rdf:about="">
        <dc:format>image/svg+xml</dc:format>
        <dc:type
           rdf:resource="http://purl.org/dc/dcmitype/StillImage" />
        <dc:title></dc:title>
      </cc:Work>
    </rdf:RDF>
  </metadata>
  <g
     inkscape:label="Layer 1"
     inkscape:groupmode="layer"
     id="layer1"
     transform="translate(-565.25879,-846.29232)">
    <path
       id="path4713"
       d="m 589.55879,846.66732 c -3.5,1.3 -5.7,4.5 -5.5,8.1 l 0.1,1.4 -1.4,-0.2 c -5.1,-0.7 -9.5,-2.9 -13.3,-6.6 l -1.8,-1.8 -0.6,1.4 c -1,3 -0.4,6.2 1.7,8.4 1.1,1.2 0.9,1.4 -1.1,0.7 -0.7,-0.2 -1.3,-0.4 -1.3,-0.3 -0.2,0.2 0.5,2.8 1,3.8 0.7,1.4 2.2,2.8 3.8,3.6 l 1.4,0.7 -1.6,0 c -1.6,0 -1.6,0 -1.5,0.6 0.6,1.8 2.8,3.8 5.2,4.6 l 1.7,0.6 -1.3,0.9 c -2.2,1.3 -4.9,2 -7.5,2.1 -1.3,0 -2.3,0.1 -2.3,0.2 0,0.3 3.4,1.9 5.4,2.5 6,1.8 13,1 18.4,-2.1 3.8,-2.2 7.6,-6.7 9.3,-11 1,-2.3 1.9,-6.5 1.9,-8.5 0,-1.3 0.1,-1.5 1.7,-3 0.9,-0.9 1.8,-1.9 2,-2.2 0.3,-0.5 0.3,-0.5 -1.2,-0.1 -2.4,0.8 -2.7,0.7 -1.5,-0.5 0.9,-0.9 1.9,-2.5 1.9,-3 0,-0.1 -0.4,0.1 -0.9,0.3 -0.5,0.3 -1.6,0.7 -2.5,1 l -1.5,0.5 -1.4,-0.9 c -0.8,-0.5 -1.8,-1.1 -2.4,-1.2 -1.5,-0.5 -3.6,-0.5 -4.9,0 z"
       class="st0"
       inkscape:connector-curvature="0"
       style="clip-rule:evenodd;fill:#000000;fill-rule:evenodd;fill-opacity:1" />
  </g>
  <style
     id="style4698"
     type="text/css">
	.st0{fill-rule:evenodd;clip-rule:evenodd;fill:#463828;}
</style>
  <style
     id="style4711"
     type="text/css">
	.st0{fill-rule:evenodd;clip-rule:evenodd;fill:#463828;}
</style>
</svg>
