<svg xmlns="http://www.w3.org/2000/svg" width="16" height="15" viewBox="0 0 16 15"><g><g clip-path="url(#clip-9A1E8388-719A-4D57-BE3B-1214B6B73F26)"><g><path fill="#ffa300" d="M14.615 15H1.385c-.5 0-.948-.255-1.198-.683a1.356 1.356 0 0 1-.01-1.356L6.791.701A1.345 1.345 0 0 1 8 0c.52 0 .971.262 1.208.701l6.615 12.26c.24.443.236.937-.01 1.356-.25.428-.698.683-1.198.683z"/></g><g><path fill="#fff3f3" d="M8 13a1.001 1.001 0 0 1 0-2 1.001 1.001 0 0 1 0 2z"/></g><g><path fill="#fff3f3" d="M8 9c-.551 0-1-.539-1-1.201V5.2C7 4.54 7.449 4 8 4c.551 0 1 .539 1 1.201V7.8C9 8.46 8.551 9 8 9z"/></g></g></g></svg>