<?xml version="1.0" encoding="UTF-8" standalone="no"?>
<!-- Created with Inkscape (http://www.inkscape.org/) -->

<svg
   xmlns:dc="http://purl.org/dc/elements/1.1/"
   xmlns:cc="http://creativecommons.org/ns#"
   xmlns:rdf="http://www.w3.org/1999/02/22-rdf-syntax-ns#"
   xmlns:svg="http://www.w3.org/2000/svg"
   xmlns="http://www.w3.org/2000/svg"
   xmlns:sodipodi="http://sodipodi.sourceforge.net/DTD/sodipodi-0.dtd"
   xmlns:inkscape="http://www.inkscape.org/namespaces/inkscape"
   width="10.724444mm"
   height="7.3377776mm"
   viewBox="0 0 38 25.999999"
   id="svg4149"
   version="1.1"
   inkscape:version="0.91 r13725">
  <defs
     id="defs4151" />
  <sodipodi:namedview
     id="base"
     pagecolor="#ffffff"
     bordercolor="#666666"
     borderopacity="1.0"
     inkscape:pageopacity="0.0"
     inkscape:pageshadow="2"
     inkscape:zoom="1.979899"
     inkscape:cx="96.263461"
     inkscape:cy="136.00061"
     inkscape:document-units="px"
     inkscape:current-layer="layer1"
     showgrid="false"
     fit-margin-top="0"
     fit-margin-left="0"
     fit-margin-right="0"
     fit-margin-bottom="0"
     inkscape:window-width="1920"
     inkscape:window-height="976"
     inkscape:window-x="-8"
     inkscape:window-y="-8"
     inkscape:window-maximized="1" />
  <metadata
     id="metadata4154">
    <rdf:RDF>
      <cc:Work
         rdf:about="">
        <dc:format>image/svg+xml</dc:format>
        <dc:type
           rdf:resource="http://purl.org/dc/dcmitype/StillImage" />
        <dc:title></dc:title>
      </cc:Work>
    </rdf:RDF>
  </metadata>
  <g
     inkscape:label="Layer 1"
     inkscape:groupmode="layer"
     id="layer1"
     transform="translate(-448.77907,-1003.7057)">
    <path
       id="path4726"
       d="m 475.27907,1016.7057 c 0.2,0.4 0,0.9 -0.4,1.1 l -10.1,7.3 c -0.2,0.2 -0.4,0.2 -0.6,0.2 -0.2,0 -0.4,0 -0.6,-0.2 -0.4,-0.2 -0.6,-0.6 -0.6,-1.1 l 0,-14.6 c 0,-0.4 0.2,-0.9 0.6,-1.1 0.4,-0.2 0.9,-0.2 1.3,0 l 10.1,7.3 c 0,0.2 0.3,0.7 0.3,1.1 z m 11.5,0 c 0,-3.9 -0.3,-7.3 -0.7,-8.9 0,-0.2 0,-0.3 -0.2,-0.5 l 0,-0.2 c -0.5,-1.5 -1.8,-2.4 -3.4,-2.4 l 0.3,0 c 0,0 -6.3,-1 -15,-1 -8.5,0 -15,1 -15,1 l 0.3,0 c -1.6,0 -2.9,1 -3.4,2.4 l 0,0.2 c 0,0.2 0,0.3 -0.2,0.5 -0.2,1.6 -0.7,5 -0.7,8.9 0,3.9 0.5,7.3 0.7,8.9 0,0.2 0,0.3 0.2,0.5 l 0,0.2 c 0.5,1.5 1.8,2.4 3.4,2.4 l -0.3,0 c 0,0 6.3,1 15,1 8.5,0 15,-1 15,-1 l -0.3,0 c 1.6,0 2.9,-1 3.4,-2.4 l 0,-0.2 c 0,-0.2 0,-0.3 0.2,-0.5 0.2,-1.6 0.7,-5 0.7,-8.9 z"
       class="st0"
       inkscape:connector-curvature="0"
       style="fill:#000000;fill-opacity:1" />
  </g>
  <style
     id="style4698"
     type="text/css">
	.st0{fill-rule:evenodd;clip-rule:evenodd;fill:#463828;}
</style>
  <style
     id="style4711"
     type="text/css">
	.st0{fill-rule:evenodd;clip-rule:evenodd;fill:#463828;}
</style>
  <style
     id="style4724"
     type="text/css">
	.st0{fill:#463828;}
</style>
</svg>
