<svg id="SVGDoc" width="18" height="16" xmlns="http://www.w3.org/2000/svg" version="1.1" xmlns:xlink="http://www.w3.org/1999/xlink" xmlns:avocode="https://avocode.com/" viewBox="0 0 18 16"><defs><path d="M893,325c0,-1.65685 1.34315,-3 3,-3h6c1.65685,0 3,1.34315 3,3v6c0,1.65685 -1.34315,3 -3,3h-6c-1.65685,0 -3,-1.34315 -3,-3z" id="Path-0"/><path d="M899,321c0,-1.65685 1.34315,-3 3,-3h6c1.65685,0 3,1.34315 3,3v6c0,1.65685 -1.34315,3 -3,3h-6c-1.65685,0 -3,-1.34315 -3,-3z" id="Path-1"/></defs><desc>Generated with Avocode.</desc><g transform="matrix(1,0,0,1,-893,-318)"><g><title>Rectangle Copy 10</title><use xlink:href="#Path-0" fill="#e0e8f9" fill-opacity="1"/></g><g><title>Rectangle Copy 7</title><use xlink:href="#Path-1" fill="#9daad0" fill-opacity="1"/></g></g></svg>