<svg id="SVGDoc" width="15" height="15" xmlns="http://www.w3.org/2000/svg" version="1.1" xmlns:xlink="http://www.w3.org/1999/xlink" xmlns:avocode="https://avocode.com/" viewBox="0 0 15 15"><defs><path d="M803.38474,571.38454h-5.36369l5.36369,-5.36376zM797.61545,565.61527h5.36378l-5.36378,5.36376zM807.71173,571.38454h-2.01924v-7.67121l2.22649,-2.21753c0.05402,-0.06008 0.08102,-0.1291 0.08102,-0.20728c0,-0.07824 -0.027,-0.14729 -0.08102,-0.20734c-0.06008,-0.05406 -0.12923,-0.08118 -0.20725,-0.08118c-0.07824,0 -0.14738,0.027 -0.20744,0.08114l-2.21764,2.22662h-7.6712v-2.01927c0,-0.08421 -0.02699,-0.15339 -0.08114,-0.20735c-0.05409,-0.05402 -0.12314,-0.08114 -0.20738,-0.08114h-1.73071c-0.08415,0 -0.15339,0.027 -0.20735,0.08114c-0.05402,0.05409 -0.08114,0.12324 -0.08114,0.20735v2.01927h-2.01927c-0.08418,0 -0.15332,0.02697 -0.20735,0.08108c-0.05399,0.05409 -0.08111,0.12324 -0.08111,0.20735v1.73081c0,0.08418 0.027,0.15333 0.08108,0.20729c0.05412,0.05402 0.1233,0.08114 0.20735,0.08114h2.01926v7.78866c0,0.08418 0.027,0.15333 0.08115,0.20716c0.05409,0.05402 0.12323,0.08124 0.20734,0.08124h7.78856v2.01924c0,0.08408 0.02699,0.15326 0.08102,0.20725c0.05392,0.05402 0.12307,0.08102 0.20743,0.08102h1.73075c0.08418,0 0.15332,-0.027 0.20722,-0.08102c0.05405,-0.05402 0.08127,-0.12317 0.08127,-0.20725v-2.01924h2.01924c0.08405,0 0.15323,-0.02722 0.20712,-0.08124c0.05406,-0.0538 0.08105,-0.12298 0.08105,-0.20716v-1.73084c0,-0.08427 -0.02699,-0.15354 -0.08105,-0.20744c-0.05383,-0.05402 -0.12301,-0.08127 -0.20706,-0.08127z" id="Path-0"/></defs><desc>Generated with Avocode.</desc><g transform="matrix(1,0,0,1,-793,-561)"><g><title>Shape</title><use xlink:href="#Path-0" fill="#9daad0" fill-opacity="1"/></g></g></svg>