<svg xmlns="http://www.w3.org/2000/svg" width="146" height="23" viewBox="0 0 146 23"><g><g><g><g><path fill="#c29265" d="M28.111 6.785c.177-.374.321-.674.433-.897.107-.213.26-.47.46-.767a4.15 4.15 0 0 1 .592-.717c.3-.267.493-.326.61-.259.13.075.185.272.122.654a6.792 6.792 0 0 1-.197.817c-.085.28-.192.563-.32.852-.132.296-.262.57-.39.825-.125.252-.281.532-.467.842-.19.316-.351.582-.484.799-.132.214-.302.48-.511.799-.212.323-.372.572-.48.748-.44.703-.918 1.438-1.433 2.202.616-2.257 1.305-4.224 2.065-5.898zm-10.65 5.299c0-.43-.326-.795-.75-.795-.425 0-.75.365-.75.795 0 .43.325.795.75.795.424 0 .75-.365.75-.795zm-1.914 0c0-.43-.326-.795-.75-.795-.425 0-.75.365-.75.795 0 .43.325.795.75.795.424 0 .75-.365.75-.795zM4.745 15.352c2.75-.854 5.358-2.17 7.823-3.943.327-.232.61-.438.851-.618.24-.18.573-.435.997-.768.427-.335.8-.643 1.118-.924.318-.282.675-.62 1.072-1.012.401-.397.742-.77 1.021-1.12.28-.35.549-.734.806-1.155a5.28 5.28 0 0 0 .572-1.233c.117-.394.172-.802.163-1.223a2.764 2.764 0 0 0-.31-1.225 3.272 3.272 0 0 0-.919-1.114c-.383-.3-.8-.524-1.25-.672a6.736 6.736 0 0 0-1.468-.294 10.446 10.446 0 0 0-1.54-.038c-.486.025-1.001.076-1.545.152-.543.075-1.014.157-1.412.246-.391.088-.788.181-1.192.281C5.96 1.627 2.855 3.42.216 6.066L0 6.282l.217.215c.07.07.129.09.237.11l.056.012.055-.009c.278-.042.487-.123.628-.262a18.748 18.748 0 0 1 4.779-3.431 17.244 17.244 0 0 1 5.548-1.695c.353-.049.702-.083 1.05-.104.345-.02.733-.024 1.163-.012.425.012.82.048 1.186.108.36.059.717.155 1.074.288.346.13.636.29.872.478.227.182.414.421.562.722.147.297.225.643.232 1.04.008.344-.053.706-.184 1.088a6.036 6.036 0 0 1-.501 1.1 7.562 7.562 0 0 1-.808 1.096c-.345.399-.665.74-.959 1.023-.295.284-.658.606-1.087.966-.432.362-.776.64-1.03.836-.258.197-.583.44-.974.73-2.203 1.641-4.858 2.962-7.966 3.964.215-.806.477-1.84.787-3.1.367-1.497.718-2.863 1.052-4.098.332-1.23.685-2.376 1.06-3.437l.116-.332-.475-.094-.06.01c-.269.049-.458.14-.558.317A10.943 10.943 0 0 0 5.12 5.99a37.719 37.719 0 0 0-.784 2.873 48.684 48.684 0 0 1-.573 2.262l-.295.987a193.575 193.575 0 0 1-.55 1.818.675.675 0 0 0-.415.135c-.3.198-.356.53-.087.781a2.572 2.572 0 0 0 .173.155h-.015l-.118.058c-.303.15-.49.278-.58.428-.106.175-.05.413.18.49a.505.505 0 0 0 .256.008 41.044 41.044 0 0 0-.687 2.775.32.32 0 0 0 .124.328.36.36 0 0 0 .2.07.845.845 0 0 0 .223-.02l.013-.003c.376-.09.609-.215.688-.451.277-.772.568-1.673.871-2.7a58.41 58.41 0 0 0 5.033 3.8c.299.205.528.364.686.475.163.115.402.274.718.479.318.205.58.369.79.491.206.121.468.273.786.455.329.189.618.335.87.44l.815.341c.32.135.621.236.903.302.272.064.558.12.858.167.31.048.615.07.914.065.299-.004.592-.037.878-.098a.536.536 0 0 0 .427-.329.46.46 0 0 0-.136-.534.62.62 0 0 0-.514-.129l-.014.002c-.151.03-.31.05-.479.057-.164.007-.326 0-.486-.022a9.656 9.656 0 0 1-.51-.085 4.342 4.342 0 0 1-.508-.133 8.318 8.318 0 0 1-1.007-.384c-.192-.087-.354-.16-.487-.222-.13-.061-.287-.137-.469-.227-1.312-.653-2.845-1.605-4.597-2.855a70.963 70.963 0 0 1-3.47-2.688zm19.55-.767a.627.627 0 0 0-.324.172 7.259 7.259 0 0 1-1.704 1.27 5.964 5.964 0 0 1-1.922.667c-1.501.241-2.315-.145-2.579-1.163-.1-.387-.131-.856-.091-1.405a.434.434 0 0 0-.34-.474.728.728 0 0 0-.446.028.577.577 0 0 0-.346.304c-.094.2-.21.423-.343.66a7.86 7.86 0 0 1-1.11 1.488 2.325 2.325 0 0 1-.636.46c-.209.102-.394.137-.56.113a3.108 3.108 0 0 1-.184-.033c.004-.08.012-.184.026-.314a8.33 8.33 0 0 1 .17-.985c.081-.394.182-.796.302-1.211a.34.34 0 0 0 .031-.145c0-.306-.248-.436-.547-.419-.316.027-.544.16-.622.416-.018.055-.047.15-.089.29-.057.179-.102.325-.133.432l-.132.474c-.061.222-.104.41-.127.564l-.07.501c-.028.221-.028.41.004.571.029.142.07.28.122.412.073.183.2.327.375.42.158.084.344.125.552.125.477 0 .954-.138 1.427-.41.454-.259.849-.57 1.184-.934.166-.179.326-.37.48-.573.378 1.252 1.39 1.89 2.972 1.867.935-.018 1.867-.253 2.794-.703a9.254 9.254 0 0 0 1.47-.888c-.105.446-.206.89-.3 1.332l-.007.031v.032c0 .116.052.214.135.28l-.276.17 1.223-.068c.432-.024.694-.069.849-.172.396-.237.741-.438 1.038-.605.295-.166.682-.366 1.16-.601.47-.23.956-.426 1.461-.587a11.715 11.715 0 0 1 1.504-.375 9.453 9.453 0 0 1 1.49-.122c.487 0 .906.024 1.256.07.347.047.723.13 1.128.249.412.121.746.23 1.002.328.261.1.587.23.976.392.394.163.692.284.896.363 1.42.526 2.935.848 4.551.967 1.073.079 2.214.08 3.422.005a30.933 30.933 0 0 0 3.497-.414 46.354 46.354 0 0 0 5.838-1.409l.013-.004a.352.352 0 0 0 .159-.098c.085-.091.12-.23.045-.363a.298.298 0 0 0-.135-.13c-.083-.047-.166-.055-.314-.055-.462-.014-.802.011-1.029.084-.503.154-1.007.3-1.506.44-.497.138-1.062.282-1.696.43-.632.148-1.244.27-1.839.367-.597.096-1.24.185-1.928.266-.682.08-1.327.123-1.935.13a24.68 24.68 0 0 1-1.917-.059 11.64 11.64 0 0 1-2.046-.336 13.933 13.933 0 0 1-1.711-.557l-1.532-.624a13.15 13.15 0 0 0-1.795-.57 11.983 11.983 0 0 0-2.136-.321c-2.019-.14-4.085.212-6.194 1.053l-.025.01-2.535 1.557c.143-.344.274-.64.395-.884l-.056-.033c.069-.295.147-.615.234-.96a85.705 85.705 0 0 0 3.205-4.501c1.002-1.502 1.777-2.777 2.324-3.828l.438-.841c.047-.09.115-.236.208-.444a3.98 3.98 0 0 0 .202-.53c.037-.134.072-.29.103-.468a2.27 2.27 0 0 0 .037-.535c-.022-.448-.19-.784-.516-.962-.296-.162-.634-.19-.999-.09a4.286 4.286 0 0 0-.912.368c-.3.162-.545.336-.732.525-.2.21-.388.429-.566.66-.18.234-.353.492-.519.775l-.425.731c-.133.229-.27.52-.413.875-.136.34-.245.6-.325.783a10.72 10.72 0 0 0-.326.893l-.264.805a88.36 88.36 0 0 0-.513 1.639 72.871 72.871 0 0 0-.972 3.359z"/></g></g><g><g><path fill="#f5eae1" d="M141.195 14.882v-7.28h.803v6.52H146v.76zm-9.475-2.663h3.24l-1.615-3.712zm-1.981 2.663l3.24-7.332h.752l3.24 7.332h-.863l-.833-1.924h-3.87l-.843 1.924zm-6.001 0v-6.52h-2.388v-.76h5.587v.76h-2.387v6.52zm-12.727 0v-7.28h.753l4.488 5.834V7.602h.783v7.28h-.64l-4.6-5.97v5.97zm-9.627 0v-7.28h5.14v.749h-4.338v2.485h3.88v.75h-3.88v2.547h4.389v.749zm-9.963-.76h1.666c1.798 0 2.946-1.247 2.946-2.86v-.02c0-1.612-1.148-2.88-2.946-2.88H91.42zm-.803.76v-7.28h2.469c2.234 0 3.779 1.57 3.779 3.62v.02c0 2.049-1.545 3.64-3.78 3.64zm-10.069 0v-7.28h1.25v3.026h3.392V7.602h1.25v7.28h-1.25v-3.068H81.8v3.068zm-7.032.124c-1.849 0-3.027-1.093-3.027-3.207V7.602h1.25v4.145c0 1.353.68 2.082 1.798 2.082 1.107 0 1.787-.687 1.787-2.03V7.602h1.25v4.134c0 2.177-1.199 3.27-3.058 3.27zM62.25 11.211h1.829c.894 0 1.463-.479 1.463-1.217v-.02c0-.78-.549-1.207-1.473-1.207h-1.819zM61 14.88V7.603h3.17c.893 0 1.594.27 2.051.728.376.395.59.936.59 1.57v.021c0 1.196-.701 1.914-1.697 2.205l1.92 2.756h-1.473l-1.747-2.538h-1.565v2.538z"/></g><g><path fill="#f5eae1" d="M71.77 5.862c.492 0 .891-.417.891-.931S72.262 4 71.771 4c-.492 0-.891.417-.891.93 0 .515.399.932.89.932z"/></g><g><path fill="#f5eae1" d="M75.33 5.862c.492 0 .89-.417.89-.931S75.823 4 75.33 4c-.491 0-.89.417-.89.93 0 .515.399.932.89.932z"/></g></g></g></g></svg>