<?xml version="1.0" encoding="UTF-8" standalone="no"?>
<svg
   xmlns:dc="http://purl.org/dc/elements/1.1/"
   xmlns:cc="http://creativecommons.org/ns#"
   xmlns:rdf="http://www.w3.org/1999/02/22-rdf-syntax-ns#"
   xmlns:svg="http://www.w3.org/2000/svg"
   xmlns="http://www.w3.org/2000/svg"
   version="1.1"
   id="svg2"
   viewBox="0 0 567.33117 468.20081"
   height="132.13667mm"
   width="160.11346mm">
  <defs
     id="defs4" />
  <metadata
     id="metadata7">
    <rdf:RDF>
      <cc:Work
         rdf:about="">
        <dc:format>image/svg+xml</dc:format>
        <dc:type
           rdf:resource="http://purl.org/dc/dcmitype/StillImage" />
        <dc:title></dc:title>
      </cc:Work>
    </rdf:RDF>
  </metadata>
  <g
     transform="translate(750.54491,-834.49179)"
     id="layer1">
    <path
       id="path4147"
       d="m -262.58929,1300.3306 c -7.53674,-3.5179 -63.61192,-60.5352 -65.57209,-66.6738 -1.92515,-6.029 -0.049,-12.1668 5.02379,-16.4352 9.87401,-8.3085 14.2489,-6.6215 34.52561,13.313 l 16.64769,16.3667 0.003,-199.9035 c 0.001,-187.84557 0.13378,-200.1622 2.1875,-204.1927 4.4311,-8.69615 15.62425,-11.00683 23.46023,-4.84305 7.23602,5.69228 6.84972,-6.14613 6.84972,209.96995 l 0,199.043 16.5625,-16.3575 c 17.7855,-17.5653 20.887,-19.3464 29.0173,-16.6631 6.8747,2.2688 10.6703,7.735 10.6703,15.3669 l 0,6.4103 -31.5625,31.7535 c -28.525,28.6975 -36.24365,35.2918 -41.2099,35.2067 -0.88146,-0.015 -3.85265,-1.0776 -6.60265,-2.3612 z m -168.34281,-13.8613 c -9.26893,-0.5343 -11.31044,-1.0652 -14.0644,-3.6572 -7.87599,-7.4129 -6.22111,-20.9327 3.15576,-25.7817 2.72179,-1.4075 9.15719,-1.8101 28.87688,-1.8064 23.24577,0 25.72171,0.2163 29.5123,2.5273 4.24111,2.5858 7.74091,8.9178 7.7326,13.9903 -0.006,3.7231 -4.0729,10.3157 -7.91743,12.8347 -3.32016,2.1754 -26.38205,3.0985 -47.29571,1.893 z m -94.25268,-112.8133 c -7.99146,-7.3236 -6.87414,-19.1169 2.34368,-24.7373 3.83487,-2.3383 6.73931,-2.4401 69.62681,-2.4401 63.62166,0 65.75131,0.077 69.76273,2.5227 8.72665,5.3205 9.74037,16.9649 2.13868,24.5666 l -4.15141,4.1514 -67.64336,0 -67.64335,0 -4.43378,-4.0633 z m -70.66292,-96.5578 c -10.33574,-5.6178 -10.4568,-21.0882 -0.21755,-27.799 3.12914,-2.0508 10.22454,-2.2313 101.54509,-2.583 53.99948,-0.208 100.67822,-0.017 103.73052,0.4246 6.38001,0.9229 13.11723,6.6969 14.57053,12.4873 1.35312,5.3913 -1.87074,13.1313 -6.86753,16.488 l -4.24736,2.8532 -102.62764,-0.05 c -86.1116,-0.042 -103.15204,-0.335 -105.88606,-1.8211 z m -72.02947,-98.72072 c -6.02812,-2.6376 -9.34001,-8.71232 -8.71398,-15.98332 0.29791,-3.46003 1.50406,-7.06332 2.88209,-8.61003 5.57347,-6.25572 0.92539,-6.06481 147.66162,-6.06481 130.53524,0 137.45544,0.11175 141.50608,2.28409 4.61721,2.47623 8.82707,9.03755 8.82707,13.7575 0,4.43576 -3.54107,11.02393 -7.29519,13.57271 -3.15669,2.14316 -10.54363,2.275 -142.07981,2.53566 -117.25446,0.23238 -139.37556,10e-4 -142.78788,-1.4918 z m -75.81852,-100.76853 c -7.01294,-5.51638 -8.83062,-13.77749 -4.56921,-20.76644 5.15136,-8.4485 -8.3984,-7.87319 185.42869,-7.87319 l 175.50221,0 4.24736,2.85325 c 4.99679,3.3567 8.22065,11.0967 6.86752,16.48795 -0.49088,1.95589 -2.77187,5.4355 -5.06884,7.73248 l -4.17633,4.17632 -177.45643,0 -177.45642,0 -3.31855,-2.61037 z"
       style="fill:#333333" />
  </g>
</svg>
