<svg xmlns="http://www.w3.org/2000/svg" width="29" height="29"><defs><clipPath id="a"><path d="M0 10.45C0 4.679 4.679 0 10.45 0h8.1C24.321 0 29 4.679 29 10.45v8.1C29 24.321 24.321 29 18.55 29h-8.1C4.679 29 0 24.321 0 18.55z"/></clipPath></defs><g clip-path="url(#clip-823BEA27-1C7E-411E-97A5-8ADBB1A0B0E4)"><path fill="#cfab8a" d="M0 10.45C0 4.679 4.679 0 10.45 0h8.1C24.321 0 29 4.679 29 10.45v8.1C29 24.321 24.321 29 18.55 29h-8.1C4.679 29 0 24.321 0 18.55z"/><g clip-path="url(#a)"><path fill="#fff" d="M27.792 4.299c.224-.527.408-.948.55-1.262.135-.3.33-.66.584-1.08.246-.407.497-.742.752-1.007.38-.376.627-.459.775-.364.164.105.234.382.155.919a10.537 10.537 0 01-.658 2.347c-.167.416-.332.803-.494 1.161-.16.354-.357.748-.594 1.184-.24.444-.446.818-.615 1.123-.167.302-.383.677-.648 1.124-.27.454-.472.804-.609 1.052-.56.99-1.167 2.023-1.821 3.098.783-3.176 1.658-5.94 2.623-8.295zm-14.365 7.454c0-.596-.434-1.1-1-1.1-.566 0-1 .504-1 1.1 0 .597.434 1.102 1 1.102.566 0 1-.505 1-1.102zm-2.551 0c0-.596-.434-1.1-1-1.1-.567 0-1 .504-1 1.1 0 .597.433 1.102 1 1.102.566 0 1-.505 1-1.102zm-14.4 4.51c3.666-1.179 7.143-2.993 10.429-5.44.435-.32.814-.605 1.134-.853.32-.248.764-.601 1.329-1.06a33.353 33.353 0 001.49-1.276c.424-.388.9-.853 1.43-1.396a17.91 17.91 0 001.36-1.544c.374-.483.732-1.014 1.076-1.594a7.408 7.408 0 00.761-1.702c.157-.544.23-1.107.218-1.687a3.921 3.921 0 00-.413-1.69 4.484 4.484 0 00-1.225-1.537 5.434 5.434 0 00-1.666-.928 8.715 8.715 0 00-1.958-.405 13.456 13.456 0 00-2.053-.053c-.648.035-1.334.104-2.06.209a23.4 23.4 0 00-1.882.34c-.521.121-1.05.25-1.589.388-4.76 1.29-8.9 3.762-12.42 7.415l-.287.299.29.296c.093.096.171.123.315.153l.074.015.075-.012c.37-.058.649-.17.836-.361A25.033 25.033 0 01-1.889-.895a22.423 22.423 0 017.396-2.339c.471-.067.937-.115 1.399-.143.46-.027.978-.033 1.551-.016.567.016 1.094.066 1.581.148.48.081.957.214 1.432.398a4.15 4.15 0 011.163.66c.302.25.552.58.749.995.196.41.3.888.31 1.434a4.46 4.46 0 01-.246 1.502 8.472 8.472 0 01-.668 1.517c-.266.467-.624.972-1.077 1.514-.46.55-.887 1.02-1.278 1.41-.394.393-.877.838-1.45 1.334-.575.5-1.034.884-1.374 1.154-.343.272-.775.607-1.297 1.006-2.937 2.265-6.476 4.089-10.62 5.47.287-1.112.637-2.538 1.05-4.278.49-2.065.957-3.95 1.402-5.654A68.246 68.246 0 01-.454.475l.156-.458-.633-.13-.08.015c-.359.067-.612.191-.744.436-.491.866-.916 1.87-1.27 3.007A53.633 53.633 0 00-4.07 7.309c-.344 1.507-.599 2.549-.763 3.122-.123.422-.254.876-.393 1.362A273.214 273.214 0 01-5.96 14.3a.88.88 0 00-.554.187c-.4.274-.474.732-.117 1.078a3.48 3.48 0 00.23.214h-.02l-.156.08c-.404.207-.652.383-.773.59-.141.242-.067.57.24.676.11.037.21.034.342.012a58.28 58.28 0 00-.916 3.828.45.45 0 00.165.453.47.47 0 00.266.097c.086.006.18-.004.298-.029l.017-.003c.501-.125.811-.297.917-.623.37-1.065.757-2.308 1.161-3.725a78.201 78.201 0 006.24 4.917 53.368 53.368 0 011.384.982c.217.158.536.378.958.66.423.284.773.51 1.052.679.275.166.624.375 1.049.627.438.26.824.462 1.16.607l1.085.471c.428.186.829.325 1.204.417.363.088.744.165 1.145.23.413.066.82.096 1.217.09a5.786 5.786 0 001.171-.136c.266-.05.475-.204.57-.454a.649.649 0 00-.182-.737c-.186-.165-.425-.219-.685-.178l-.019.004a4.133 4.133 0 01-.638.078c-.219.01-.435 0-.649-.031a12.461 12.461 0 01-.68-.116 5.632 5.632 0 01-.676-.184 10.892 10.892 0 01-1.343-.53c-.255-.12-.472-.222-.649-.307a27.834 27.834 0 01-.625-.312c-1.75-.902-3.793-2.215-6.128-3.94a95.099 95.099 0 01-4.626-3.708zm26.06-1.057a.828.828 0 00-.43.238 9.71 9.71 0 01-2.271 1.752 7.771 7.771 0 01-2.563.92c-2.001.333-3.086-.199-3.438-1.604-.133-.535-.175-1.182-.122-1.94a.598.598 0 00-.453-.654.94.94 0 00-.594.04c-.215.084-.378.22-.462.42a13.61 13.61 0 01-.457.91c-.176.322-.398.674-.668 1.056-.267.377-.538.71-.813.996-.257.27-.539.48-.847.635-.278.14-.525.19-.746.157a4.01 4.01 0 01-.245-.046 8.2 8.2 0 01.034-.433c.022-.284.097-.737.227-1.36.108-.543.242-1.099.403-1.671a.484.484 0 00.041-.2c0-.422-.331-.602-.73-.578-.42.038-.725.22-.828.574a15.22 15.22 0 00-.119.4 19.02 19.02 0 00-.177.597 150 150 0 00-.176.653 6.872 6.872 0 00-.169.779c-.028.196-.06.427-.093.692-.039.305-.039.566.005.788.038.195.092.385.162.568.097.253.267.451.5.58.211.116.458.171.737.171.635 0 1.27-.19 1.9-.563a6.633 6.633 0 001.58-1.29c.22-.248.434-.511.64-.79.503 1.727 1.852 2.606 3.961 2.575 1.247-.024 2.49-.349 3.725-.97.7-.352 1.354-.761 1.96-1.226a91.525 91.525 0 00-.401 1.838l-.009.043v.045c0 .16.07.295.18.387l-.367.234 1.63-.095c.576-.033.925-.094 1.132-.236a57.45 57.45 0 011.383-.835c.393-.23.91-.506 1.547-.83a13.93 13.93 0 011.948-.81 15.18 15.18 0 012.005-.517c.675-.112 1.34-.168 1.985-.168.65 0 1.21.032 1.675.097.463.064.965.178 1.504.342.549.167.995.319 1.336.453.348.138.782.318 1.301.54.525.226.923.393 1.194.502 1.892.726 3.913 1.17 6.068 1.334 1.43.11 2.95.112 4.562.007a39.891 39.891 0 004.661-.57 60.138 60.138 0 007.783-1.944l.017-.007a.467.467 0 00.212-.136.428.428 0 00.06-.5.404.404 0 00-.18-.179c-.11-.066-.222-.076-.419-.076-.616-.02-1.07.015-1.37.115-.672.212-1.344.415-2.009.607-.662.191-1.416.39-2.261.594-.842.205-1.659.373-2.45.506-.797.133-1.654.256-2.571.367-.91.11-1.77.17-2.58.179a31.79 31.79 0 01-2.556-.08 15.035 15.035 0 01-2.728-.464 18.128 18.128 0 01-2.28-.77l-2.043-.86c-.7-.296-1.498-.558-2.392-.787a15.59 15.59 0 00-2.848-.443c-2.691-.192-5.445.293-8.257 1.453l-.034.014-3.379 2.15c.19-.476.366-.883.527-1.221l-.075-.046c.092-.407.196-.848.312-1.324a118.336 118.336 0 004.272-6.212c1.336-2.072 2.37-3.832 3.099-5.282l.584-1.161c.062-.124.153-.326.277-.612a5.78 5.78 0 00.27-.734c.049-.184.094-.399.137-.644.045-.265.062-.51.048-.739-.029-.618-.252-1.082-.687-1.328-.394-.222-.846-.26-1.332-.123a5.603 5.603 0 00-1.216.507c-.4.224-.726.465-.975.725a10.34 10.34 0 00-1.446 1.98l-.568 1.009a9.65 9.65 0 00-.55 1.207c-.182.469-.326.83-.433 1.08-.115.272-.26.681-.435 1.234a125.019 125.019 0 00-.715 2.294 65.2 65.2 0 00-.32 1.078 103.304 103.304 0 00-1.296 4.636z"/></g></g></svg>