<?xml version="1.0" encoding="UTF-8"?>
<svg id="SVGDoc" width="35" height="39" xmlns="http://www.w3.org/2000/svg" version="1.1" xmlns:xlink="http://www.w3.org/1999/xlink" xmlns:avocode="https://avocode.com/" viewBox="0 0 35 39"><defs></defs><desc>Generated with Avocode.</desc><g><g><title>Group 9</title><g><title>Oval</title><path d="M17.5,35c9.66498,0 17.5,-7.83502 17.5,-17.5c0,-9.66498 -7.83502,-17.5 -17.5,-17.5c-9.66498,0 -17.5,7.83502 -17.5,17.5c0,9.66498 7.83502,17.5 17.5,17.5z" fill="#eff0f3" fill-opacity="1"></path></g><g transform="rotate(45 13 24)"><title>tag (2)</title><g><title>Shape</title><path d="M15.07,21.39625c-1.2783,0 -2.31818,-1.07238 -2.31818,-2.39062c0,-1.25524 1.00336,-2.39063 2.31818,-2.39063c1.2783,0 2.31818,1.07238 2.31818,2.39063c0,1.31824 -1.03988,2.39062 -2.31818,2.39062zM16.70901,10.9073c-0.42851,-0.44189 -1.02675,-0.66029 -1.62459,-0.66427c-0.00499,0 -0.00942,-0.00223 -0.01442,-0.00271c-0.00046,-0.00011 -0.00103,-0.00032 -0.00149,-0.00032c-0.6033,0 -2.7506,0.22137 -3.17694,0.66109l0.62493,0.93266l-4.81456,4.87773c-0.65965,0.68026 -1.13194,1.71407 -1.13194,2.81785v15.52005c0,1.31824 1.03988,2.39062 2.31818,2.39062h12.36364c1.2783,0 2.31818,-1.07238 2.31818,-2.39062v-15.52005c0,-1.06457 -0.40223,-2.06534 -1.13797,-2.82407z" fill="#e6bc96" fill-opacity="1"></path></g><g><title>Group</title><g><title>Path</title><path d="M23.57083,35.04906v0v-15.52005c0,-1.06457 -0.40558,-2.06534 -1.14745,-2.82407l-5.77072,-5.79796c-0.43207,-0.44189 -1.0353,-0.66029 -1.63812,-0.66427c-0.00503,0 -0.0095,-0.00223 -0.01454,-0.00271v6.37468c1.28895,0 2.3375,1.07238 2.3375,2.39063c0,1.31824 -1.04855,2.39062 -2.3375,2.39062v16.04375v0h6.23333c1.28895,0 2.3375,-1.07238 2.3375,-2.39062z" fill="#c29265" fill-opacity="1"></path></g><g><title>Path</title><path d="M18.89166,31.80689c0,0.4463 -0.34278,0.79687 -0.77917,0.79687h-6.23332c-0.43639,0 -0.77917,-0.35057 -0.77917,-0.79687c0,-0.44631 0.34278,-0.79688 0.77917,-0.79688h6.23332c0.43639,0 0.77917,0.35057 0.77917,0.79688z" fill="#ffffff" fill-opacity="1"></path></g><g><title>Path</title><path d="M18.89166,28.61689c0,0.4463 -0.34278,0.79687 -0.77917,0.79687h-6.23332c-0.43639,0 -0.77917,-0.35057 -0.77917,-0.79687c0,-0.44631 0.34278,-0.79688 0.77917,-0.79688h6.23332c0.43639,0 0.77917,0.35057 0.77917,0.79688z" fill="#ffffff" fill-opacity="1"></path></g></g><g><title>Path</title><path d="M14.88111,16.58667h-4.53333c-1.27609,0 -2.26667,-1.13547 -2.26667,-2.38c0,-1.31239 1.01678,-2.38 2.26667,-2.38h2.03657v0l0.90007,-0.92852c0.41687,-0.43776 1.00529,-0.65815 1.59523,-0.65815h-4.53187c-2.08297,0 -3.77778,1.77955 -3.77778,3.96667c0,2.12629 1.687,3.96666 3.77778,3.96666h4.53333c0.41762,0 0.75556,-0.35483 0.75556,-0.79333c0,-0.4385 -0.33794,-0.79333 -0.75556,-0.79333z" fill="#2b2f37" fill-opacity="1"></path></g><g><title>Path</title><path d="M15.63324,17.60667c0,-0.31322 -0.50686,-0.56667 -1.13324,-0.56667v1.13333c0.62638,0 1.13324,-0.25345 1.13324,-0.56666z" fill="#38211a" fill-opacity="1"></path></g></g></g></g></svg>