<svg xmlns="http://www.w3.org/2000/svg" width="27" height="27" viewBox="0 0 27 27"><g><g><path fill="#c6bba2" d="M0 7a7 7 0 0 1 7-7h13a7 7 0 0 1 7 7v13a7 7 0 0 1-7 7H7a7 7 0 0 1-7-7z"/></g><g><g><path fill="#fff" d="M15.353 9.01h-5.93C8.64 9.01 8 9.65 8 10.432v4.793c0 .782.64 1.422 1.422 1.422h5.93c.783 0 1.423-.64 1.423-1.422v-4.793c0-.796-.64-1.422-1.422-1.422z"/></g><g><path fill="#fff" d="M19.95 9.793a.724.724 0 0 0-.241.1l-2.219 1.28v3.299l2.233 1.28c.412.242.924.1 1.166-.313a.869.869 0 0 0 .114-.427v-4.394a.856.856 0 0 0-1.053-.825z"/></g></g></g></svg>