<svg xmlns="http://www.w3.org/2000/svg" width="11" height="15" viewBox="0 0 11 15"><g><g><g><path fill="#af9179" d="M5.5 3a1.5 1.5 0 1 0 0-3 1.5 1.5 0 0 0 0 3z"/></g><g><path fill="#af9179" d="M1.5 3a1.5 1.5 0 1 0 0-3 1.5 1.5 0 0 0 0 3z"/></g><g><path fill="#af9179" d="M9.5 3a1.5 1.5 0 1 0 0-3 1.5 1.5 0 0 0 0 3z"/></g><g><path fill="#af9179" d="M5.5 7a1.5 1.5 0 1 0 0-3 1.5 1.5 0 0 0 0 3z"/></g><g><path fill="#af9179" d="M1.5 7a1.5 1.5 0 1 0 0-3 1.5 1.5 0 0 0 0 3z"/></g><g><path fill="#af9179" d="M9.5 7a1.5 1.5 0 1 0 0-3 1.5 1.5 0 0 0 0 3z"/></g><g><path fill="#af9179" d="M5.5 11a1.5 1.5 0 1 0 0-3 1.5 1.5 0 0 0 0 3z"/></g><g><path fill="#af9179" d="M5.5 15a1.5 1.5 0 1 0 0-3 1.5 1.5 0 0 0 0 3z"/></g><g><path fill="#af9179" d="M1.5 11a1.5 1.5 0 1 0 0-3 1.5 1.5 0 0 0 0 3z"/></g><g><path fill="#af9179" d="M9.5 11a1.5 1.5 0 1 0 0-3 1.5 1.5 0 0 0 0 3z"/></g></g></g></svg>