<svg xmlns="http://www.w3.org/2000/svg" width="55" height="32" viewBox="0 0 55 32"><defs><clipPath id="1lhva"><path d="M0 11.222C0 5.024 5.024 0 11.222 0h8.81c6.198 0 11.222 5.024 11.222 11.222v8.81c0 6.198-5.024 11.222-11.222 11.222h-8.81C5.024 31.254 0 26.23 0 20.032z"/></clipPath></defs><g><g><g><g><path fill="#cfab8a" d="M0 11.222C0 5.024 5.024 0 11.222 0h8.81c6.198 0 11.222 5.024 11.222 11.222v8.81c0 6.198-5.024 11.222-11.222 11.222h-8.81C5.024 31.254 0 26.23 0 20.032z"/></g><g clip-path="url(#1lhva)"><path fill="#fff" d="M29.957 4.625c.242-.568.44-1.02.593-1.358.147-.323.357-.711.631-1.163.266-.438.537-.8.812-1.085.41-.404.676-.494.836-.392.177.113.254.412.168.99-.063.4-.154.813-.27 1.237-.118.423-.264.853-.44 1.29-.18.448-.359.865-.533 1.25-.172.38-.386.806-.642 1.275-.26.478-.481.88-.663 1.209-.18.325-.414.728-.7 1.21-.291.489-.51.866-.657 1.132a120.968 120.968 0 0 1-1.966 3.336c.845-3.42 1.79-6.396 2.831-8.931zM14.483 12.66c0-.638-.47-1.177-1.082-1.177-.613 0-1.083.54-1.083 1.177s.47 1.177 1.083 1.177c.612 0 1.082-.54 1.082-1.177zm-2.75 0c0-.638-.47-1.177-1.082-1.177-.613 0-1.083.54-1.083 1.177s.47 1.177 1.083 1.177 1.083-.54 1.083-1.177zM-3.79 17.52C.16 16.249 3.909 14.294 7.45 11.656c.47-.345.878-.652 1.223-.919.346-.267.823-.647 1.432-1.142a35.955 35.955 0 0 0 1.607-1.375c.457-.419.97-.92 1.541-1.504a19.515 19.515 0 0 0 1.467-1.665c.403-.52.789-1.093 1.159-1.718.379-.641.653-1.252.82-1.834.17-.586.248-1.193.235-1.818a4.225 4.225 0 0 0-.445-1.822 4.833 4.833 0 0 0-1.32-1.656 5.858 5.858 0 0 0-1.796-1 9.397 9.397 0 0 0-2.11-.437A14.51 14.51 0 0 0 9.05-5.29c-.698.038-1.438.113-2.22.226-.78.112-1.457.234-2.029.367-.562.13-1.133.27-1.713.418C-2.044-2.89-6.507-.226-10.3 3.71l-.31.322.312.32c.101.104.185.132.34.164l.08.017.08-.013c.4-.063.7-.183.902-.39C-6.84 2.036-4.55.335-2.028-.973a24.176 24.176 0 0 1 7.972-2.52c.509-.073 1.01-.124 1.508-.154.497-.03 1.055-.036 1.673-.018.61.018 1.179.072 1.704.16.517.088 1.031.23 1.544.429.497.192.914.43 1.253.711.326.27.595.626.808 1.073.21.442.322.956.333 1.545a4.806 4.806 0 0 1-.265 1.619 9.129 9.129 0 0 1-.72 1.635 11.236 11.236 0 0 1-1.16 1.631c-.497.593-.956 1.1-1.378 1.52-.425.424-.946.903-1.563 1.438-.62.538-1.114.952-1.48 1.243-.37.294-.837.655-1.4 1.084-3.166 2.442-6.98 4.407-11.448 5.896.31-1.198.687-2.735 1.132-4.61a281.051 281.051 0 0 1 1.511-6.094c.478-1.83.986-3.533 1.523-5.11L-.313.01l-.683-.14-.086.017c-.386.072-.659.206-.802.47-.53.933-.987 2.016-1.369 3.24A57.633 57.633 0 0 0-4.379 7.87c-.371 1.623-.646 2.746-.823 3.364l-.424 1.468a295.193 295.193 0 0 1-.79 2.702.948.948 0 0 0-.597.202c-.432.294-.51.788-.126 1.16a3.752 3.752 0 0 0 .249.231h-.022l-.168.087c-.436.223-.703.413-.834.637-.152.26-.072.614.258.727.12.04.227.037.37.013a62.798 62.798 0 0 0-.988 4.126c-.038.18.024.37.178.488a.506.506 0 0 0 .287.105c.093.007.193-.005.32-.031l.019-.004c.54-.135.875-.32.989-.671a76.666 76.666 0 0 0 1.252-4.015 84.295 84.295 0 0 0 6.726 5.3 57.163 57.163 0 0 1 1.491 1.058c.234.17.578.407 1.033.711.456.306.834.55 1.135.732.296.179.672.404 1.13.676.472.28.888.498 1.25.654.342.147.732.317 1.17.507.461.2.894.35 1.299.45.39.095.801.177 1.233.247.446.071.884.104 1.313.098.43-.007.85-.056 1.262-.148.287-.052.512-.219.614-.488a.7.7 0 0 0-.196-.794c-.2-.178-.458-.236-.739-.192l-.02.004a4.456 4.456 0 0 1-.688.083c-.236.011-.469 0-.7-.033-.25-.035-.494-.077-.732-.125a6.07 6.07 0 0 1-.73-.198 11.739 11.739 0 0 1-1.448-.572 77.383 77.383 0 0 1-.698-.33c-.188-.09-.413-.202-.674-.336-1.886-.972-4.09-2.388-6.606-4.246A102.504 102.504 0 0 1-3.79 17.52zm28.082-1.143a.892.892 0 0 0-.465.257 10.465 10.465 0 0 1-2.447 1.887c-.91.51-1.83.84-2.762.992-2.157.359-3.326-.215-3.705-1.729-.144-.576-.189-1.273-.132-2.089a.644.644 0 0 0-.488-.705 1.012 1.012 0 0 0-.64.043c-.232.09-.408.237-.498.452-.134.297-.3.628-.493.981-.189.347-.429.726-.72 1.137a9.39 9.39 0 0 1-.875 1.074c-.278.29-.581.517-.913.684-.3.151-.566.204-.805.169a4.33 4.33 0 0 1-.263-.05c.005-.117.017-.273.036-.466.023-.307.105-.794.245-1.465a24.2 24.2 0 0 1 .433-1.801.522.522 0 0 0 .045-.214c0-.456-.357-.65-.786-.624-.453.04-.782.238-.893.618-.026.082-.069.225-.128.432-.083.266-.147.483-.19.643-.043.154-.106.389-.19.703-.09.33-.15.61-.183.839-.03.212-.064.46-.1.746a2.7 2.7 0 0 0 .005.849c.041.21.1.415.175.612.105.272.288.486.539.624.227.126.494.185.794.185.685 0 1.37-.205 2.049-.607a7.148 7.148 0 0 0 1.702-1.39c.237-.266.467-.55.69-.852.542 1.862 1.995 2.81 4.269 2.775 1.344-.026 2.683-.375 4.015-1.044.754-.38 1.459-.82 2.113-1.322a98.597 98.597 0 0 0-.434 1.981l-.01.047v.047c0 .172.076.318.196.418l-.397.252 1.756-.102c.622-.036.998-.102 1.22-.255a61.96 61.96 0 0 1 1.491-.9c.424-.246.98-.544 1.668-.894a15.017 15.017 0 0 1 2.099-.872c.727-.24 1.448-.426 2.161-.558.728-.12 1.444-.18 2.14-.18.7 0 1.303.034 1.805.104.5.069 1.04.192 1.62.369.592.18 1.073.343 1.44.488.376.148.843.342 1.403.582.566.243.994.423 1.286.54 2.04.782 4.218 1.26 6.54 1.438 1.541.117 3.18.12 4.917.007a43.01 43.01 0 0 0 5.024-.615 68.656 68.656 0 0 0 4.45-.963 64.849 64.849 0 0 0 3.939-1.132l.017-.006a.503.503 0 0 0 .228-.147.46.46 0 0 0 .066-.538.435.435 0 0 0-.194-.193c-.12-.071-.24-.082-.452-.082-.664-.021-1.153.016-1.477.124-.724.229-1.448.447-2.165.654-.714.206-1.526.42-2.437.64-.907.22-1.787.402-2.641.545-.858.144-1.782.276-2.77.396-.98.118-1.907.183-2.781.192a34.27 34.27 0 0 1-2.755-.086 16.21 16.21 0 0 1-2.94-.5 19.545 19.545 0 0 1-2.458-.828l-2.2-.928c-.756-.319-1.615-.6-2.58-.848a16.678 16.678 0 0 0-3.069-.477c-2.9-.207-5.868.316-8.899 1.566l-.036.015-3.642 2.316c.205-.513.395-.951.568-1.316l-.08-.049c.098-.439.21-.914.336-1.426a127.493 127.493 0 0 0 4.604-6.694c1.44-2.232 2.553-4.128 3.34-5.69l.629-1.251c.067-.133.165-.351.298-.66.138-.319.235-.58.29-.79.054-.198.103-.43.149-.694a3.49 3.49 0 0 0 .052-.796c-.031-.666-.271-1.165-.74-1.43-.425-.24-.912-.281-1.436-.134a6.04 6.04 0 0 0-1.31.547c-.433.241-.783.5-1.052.781-.288.313-.557.638-.814.981a10.83 10.83 0 0 0-.744 1.153l-.612 1.086c-.19.34-.388.773-.593 1.301-.196.505-.351.893-.466 1.164a16.3 16.3 0 0 0-.47 1.329l-.379 1.196c-.069.217-.199.642-.39 1.275a70.069 70.069 0 0 0-.347 1.162c-.51 1.676-.976 3.344-1.396 4.994z"/></g></g><g><g><text dominant-baseline="text-before-edge" style="font-kerning:normal" fill="#fff" font-family="Helvetica" font-size="21.11" letter-spacing="4.87" transform="translate(37.8 1.89)"><tspan style="font-kerning:normal">+</tspan></text></g></g></g></g></svg>