<svg xmlns="http://www.w3.org/2000/svg" width="27" height="27" viewBox="0 0 27 27"><g><g><path fill="#c6bba2" d="M0 7a7 7 0 0 1 7-7h13a7 7 0 0 1 7 7v13a7 7 0 0 1-7 7H7a7 7 0 0 1-7-7z"/></g><g><path fill="#fff" d="M17.04 16.107c-.053 1.834-.42 3.836-.89 3.892-.441.053-.577-3.676-2.359-3.676-1.78 0-1.917 3.73-2.357 3.676-.175-.02-.335-.309-.47-.757a5.15 5.15 0 0 1 1.175-4.977c2.62-2.78 6.994-3.852 5.67-7.265 1.098.476 1.56 2.352.855 4.143-.812 2.06-1.572 3.13-1.624 4.964zM9.204 13.5c-.257-.604-.555-1.256-.86-2.048C7.514 9.3 8.264 7.03 9.762 7c1.394-.027 1.926 1.308 3.559 1.308 1.633 0 2.165-1.335 3.56-1.308.065.002.128.009.19.018.889 4.204-4.668 2.268-7.867 6.482zm2.463-4.184l-1.084-.294-.291-1.093L10 9.022l-1.083.294L10 9.611l.292 1.093.291-1.093z"/></g></g></svg>