<svg xmlns="http://www.w3.org/2000/svg" width="160" height="34" viewBox="0 0 160 34"><g><g><path fill="#c29265" d="M41.4 10.03c.26-.554.473-.996.637-1.325.158-.315.384-.694.678-1.135.286-.428.577-.781.872-1.06.441-.394.727-.482.898-.382.19.11.272.402.18.966-.067.39-.164.794-.29 1.207-.126.414-.283.834-.473 1.26a30.13 30.13 0 0 1-.572 1.22 18.63 18.63 0 0 1-.69 1.245c-.279.466-.516.86-.712 1.18-.194.318-.445.712-.752 1.181-.313.478-.548.846-.706 1.106a116.226 116.226 0 0 1-2.112 3.256c.908-3.337 1.923-6.244 3.042-8.718zm-15.685 7.833c0-.636-.48-1.174-1.105-1.174s-1.105.538-1.105 1.174c0 .636.48 1.175 1.105 1.175.626 0 1.105-.539 1.105-1.175zm-2.818 0c0-.636-.48-1.174-1.105-1.174-.626 0-1.106.538-1.106 1.174 0 .636.48 1.175 1.106 1.175.625 0 1.105-.539 1.105-1.175zM6.989 22.695c4.05-1.264 7.89-3.207 11.52-5.829.481-.343.9-.648 1.254-.914.354-.265.843-.644 1.468-1.135.628-.495 1.177-.95 1.646-1.367.469-.416.995-.915 1.58-1.495A19.598 19.598 0 0 0 25.96 10.3c.412-.517.808-1.087 1.187-1.708.389-.638.67-1.245.842-1.823a5.866 5.866 0 0 0 .24-1.807 4.098 4.098 0 0 0-.456-1.812 4.833 4.833 0 0 0-1.353-1.646A6.059 6.059 0 0 0 24.58.51a9.89 9.89 0 0 0-2.163-.434 15.328 15.328 0 0 0-2.269-.057c-.715.037-1.474.112-2.275.224-.8.112-1.493.234-2.08.365-.575.13-1.16.268-1.755.416-5.26 1.38-9.833 4.03-13.72 7.943L0 9.287l.32.318c.103.103.19.131.349.163l.081.016.083-.012c.41-.063.717-.182.924-.387a27.613 27.613 0 0 1 7.038-5.073 25.327 25.327 0 0 1 8.17-2.506 19.541 19.541 0 0 1 1.546-.153c.509-.03 1.08-.035 1.713-.017.626.017 1.209.07 1.747.159a8.32 8.32 0 0 1 1.582.426c.51.19.937.427 1.285.707.334.268.61.622.827 1.066.216.44.331.95.342 1.536a4.647 4.647 0 0 1-.271 1.61 8.938 8.938 0 0 1-.739 1.625c-.292.5-.689 1.041-1.189 1.621-.508.59-.98 1.094-1.412 1.512-.435.42-.969.897-1.602 1.429-.635.534-1.141.947-1.517 1.235-.38.292-.857.652-1.434 1.078-3.244 2.427-7.153 4.38-11.732 5.86a240.82 240.82 0 0 0 1.16-4.582c.541-2.212 1.057-4.231 1.549-6.057.49-1.82 1.01-3.513 1.56-5.08l.172-.492-.7-.14-.088.017c-.396.071-.675.205-.822.467-.542.928-1.01 2.004-1.402 3.221-.386 1.2-.77 2.615-1.155 4.248-.38 1.614-.661 2.73-.843 3.344l-.434 1.46a285.988 285.988 0 0 1-.81 2.686.991.991 0 0 0-.612.2c-.442.293-.523.783-.128 1.154a3.807 3.807 0 0 0 .254.23H3.79l-.173.085c-.446.222-.72.411-.854.633-.156.258-.074.611.264.723.123.04.233.037.379.013a60.857 60.857 0 0 0-1.012 4.102.475.475 0 0 0 .182.485c.096.07.191.097.294.104a1.24 1.24 0 0 0 .33-.03l.018-.005c.554-.133.896-.317 1.013-.667a74.543 74.543 0 0 0 1.283-3.99 86.053 86.053 0 0 0 6.894 5.267 58.908 58.908 0 0 1 1.528 1.052c.24.17.592.405 1.059.708.467.303.854.545 1.162.727.303.178.69.402 1.158.672.484.278.91.495 1.281.65l1.2.504c.472.2.915.349 1.33.447.4.095.822.177 1.264.246.458.071.906.104 1.346.097a6.58 6.58 0 0 0 1.293-.146c.294-.052.525-.218.63-.486a.681.681 0 0 0-.202-.79c-.205-.176-.47-.234-.756-.19l-.021.004a4.702 4.702 0 0 1-.705.083c-.242.011-.48 0-.717-.033a14.154 14.154 0 0 1-.75-.124 6.373 6.373 0 0 1-.748-.197 12.226 12.226 0 0 1-1.484-.568c-.282-.128-.52-.237-.716-.329-.193-.09-.424-.201-.691-.334-1.933-.966-4.19-2.373-6.77-4.22a104.567 104.567 0 0 1-5.11-3.974zm28.79-1.135a.923.923 0 0 0-.477.255 10.693 10.693 0 0 1-2.508 1.877 8.761 8.761 0 0 1-2.831.986c-2.211.356-3.41-.214-3.799-1.719-.146-.572-.193-1.265-.134-2.077.033-.329-.161-.613-.5-.701a1.068 1.068 0 0 0-.657.042c-.237.09-.418.236-.51.45-.138.295-.308.625-.505.976-.194.344-.44.721-.738 1.13a9.4 9.4 0 0 1-.898 1.068 3.424 3.424 0 0 1-.935.68c-.308.15-.58.203-.826.168a4.57 4.57 0 0 1-.27-.05c.006-.116.018-.272.038-.463.024-.305.107-.79.25-1.457.12-.582.268-1.177.445-1.79a.505.505 0 0 0 .046-.214c0-.452-.366-.645-.806-.62-.464.04-.801.237-.915.615-.027.081-.07.223-.131.43-.085.264-.151.48-.196.638l-.194.7c-.091.328-.153.605-.187.834-.031.21-.066.458-.103.741-.043.327-.043.607.005.844.042.21.102.413.18.609.107.27.295.483.552.62.233.125.506.185.814.185.702 0 1.404-.204 2.1-.604a7.287 7.287 0 0 0 1.744-1.382c.244-.265.48-.547.708-.847.556 1.85 2.045 2.793 4.375 2.76 1.379-.026 2.75-.374 4.116-1.04a13.619 13.619 0 0 0 2.166-1.313c-.156.66-.304 1.316-.444 1.97l-.01.046v.047c0 .17.077.316.2.415l-.406.25 1.8-.1c.637-.037 1.022-.102 1.25-.254.583-.35 1.092-.649 1.528-.895a36.081 36.081 0 0 1 1.71-.889c.69-.34 1.408-.63 2.151-.867a17.198 17.198 0 0 1 2.215-.554c.746-.12 1.48-.18 2.193-.18.719 0 1.336.034 1.85.103.513.07 1.067.191 1.662.367.607.18 1.1.342 1.476.486.385.147.864.34 1.438.578.58.242 1.02.42 1.318.538 2.091.777 4.324 1.253 6.704 1.429 1.58.117 3.26.12 5.04.007a45.39 45.39 0 0 0 5.15-.611 68.052 68.052 0 0 0 8.598-2.083l.018-.006a.518.518 0 0 0 .234-.146.448.448 0 0 0 .067-.536.44.44 0 0 0-.199-.19c-.122-.072-.245-.083-.463-.083-.68-.02-1.181.016-1.514.123a93.48 93.48 0 0 1-2.219.651c-.732.205-1.565.417-2.498.636a39.65 39.65 0 0 1-2.708.542c-.879.143-1.825.274-2.84.393a26.855 26.855 0 0 1-2.85.192c-.9.01-1.841-.02-2.823-.086a17.085 17.085 0 0 1-3.013-.497 20.464 20.464 0 0 1-2.52-.824l-2.256-.922a19.313 19.313 0 0 0-2.643-.843 17.586 17.586 0 0 0-3.146-.474c-2.973-.207-6.016.313-9.122 1.556l-.037.015-3.733 2.303c.21-.51.404-.946.582-1.308l-.083-.049c.101-.436.216-.909.345-1.418a126.696 126.696 0 0 0 4.72-6.655c1.476-2.22 2.616-4.105 3.422-5.657l.646-1.244c.068-.132.17-.35.306-.656.14-.317.24-.577.297-.785.055-.198.106-.428.152-.69.05-.284.069-.548.054-.792-.032-.662-.279-1.159-.76-1.422-.435-.239-.934-.28-1.47-.133-.46.126-.908.307-1.344.543-.443.24-.802.498-1.078.778-.295.31-.571.633-.834.975-.265.345-.52.727-.763 1.146l-.627 1.08c-.196.338-.398.768-.608 1.293-.2.502-.36.888-.478 1.157-.127.29-.287.73-.48 1.321l-.39 1.19c-.07.216-.204.638-.4 1.268a68.144 68.144 0 0 0-.355 1.154 108.047 108.047 0 0 0-1.431 4.966z"/></g><g><g><text fill="#524e49" dominant-baseline="text-before-edge" font-family="'Gotham Medium','Gotham-Medium'" font-size="14" letter-spacing="1.61" transform="translate(80 7)"><tspan letter-spacing="1.5">R</tspan></text></g></g></g></svg>