<svg xmlns="http://www.w3.org/2000/svg" width="74" height="76" viewBox="0 0 74 76"><g><g><g><path fill="#838993" d="M34.475 23.967a.973.973 0 0 0 .975-.973v-1.019a.974.974 0 0 0-.975-.975.973.973 0 0 0-.975.975v1.02c0 .539.436.972.975.972z"/></g><g><path fill="#838993" d="M25.09 34.069v-7.92h11.878v7.92zm12.853-11.384H35.98v.495a1.485 1.485 0 0 1-2.968 0v-.495H29.05v.495c0 .819-.666 1.485-1.485 1.485-.819 0-1.484-.666-1.484-1.485v-.495L24.1 22.66v12.396h12.868l.99-.003z"/></g><g><path fill="#838993" d="M27.554 23.967a.973.973 0 0 0 .976-.973v-1.019a.974.974 0 1 0-1.95 0v1.02c0 .539.435.972.974.972z"/></g><g><path fill="#838993" d="M29.05 27.21h1.56v1.377h-1.56z"/></g><g><path fill="#838993" d="M31.58 27.21h1.561v1.377H31.58z"/></g><g><path fill="#838993" d="M33.91 27.21h1.56v1.377h-1.56z"/></g><g><path fill="#838993" d="M29.05 29.5h1.56v1.376h-1.56z"/></g><g><path fill="#838993" d="M31.58 29.5h1.561v1.376H31.58z"/></g><g><path fill="#838993" d="M33.91 29.5h1.56v1.376h-1.56z"/></g><g><path fill="#838993" d="M29.05 31.83h1.56v1.376h-1.56z"/></g><g><path fill="#838993" d="M26.58 29.5h1.559v1.376H26.58z"/></g><g><path fill="#838993" d="M26.58 31.83h1.559v1.376H26.58z"/></g><g><path fill="#838993" d="M31.58 31.83h1.561v1.376H31.58z"/></g><g><path fill="#838993" d="M33.91 31.83h1.56v1.376h-1.56z"/></g></g><g><g><path fill="#70f2a4" d="M37.003 3.97C17.03 3.97.84 20.096.84 39.987c0 18.788 14.443 34.212 32.873 35.868h6.58c18.43-1.656 32.872-17.08 32.872-35.868 0-19.891-16.19-36.017-36.162-36.017z"/></g><g><path fill="#50dd89" d="M71.202 28.265C66.318 14.128 52.85 3.97 36.999 3.97 21.15 3.97 7.684 14.126 2.8 28.26a33.836 33.836 0 0 0-.038 1.829c.062 9.02 3.617 17.49 10.027 23.874a34.201 34.201 0 0 0 10.842 7.3c2.473 1.044 4.102 3.433 4.102 6.109v7.435c1.934.51 3.931.864 5.978 1.048h6.579a36.189 36.189 0 0 0 5.978-1.048v-7.435c0-2.676 1.629-5.065 4.102-6.109 4-1.689 7.676-4.147 10.841-7.3C67.677 47.522 71.24 38.958 71.24 29.85c0-.53-.013-1.058-.037-1.584z"/></g><g><path fill="#e9efff" d="M33.71 57.6v18.25c1.084.097 2.18.15 3.29.15 1.109 0 2.205-.053 3.289-.15V57.6a28.36 28.36 0 0 1-3.29.193c-1.112 0-2.21-.067-3.289-.193z"/></g><g><path fill="#bec8f7" d="M37 63.836a2.19 2.19 0 0 1 2.266-2.19c.34.012.68.018 1.023.018V57.6c-1.08.126-2.177.193-3.29.193a28.36 28.36 0 0 1-3.289-.193v18.25c1.084.097 2.18.15 3.29.15z"/></g><g transform="rotate(-45 37 29.5)"><path fill="#ff4155" d="M37.047 58.041c15.575.032 28.176-12.569 28.144-28.144C65.161 14.323 52.51 1.671 36.934 1.64 21.359 1.61 8.759 14.21 8.79 29.784c.031 15.575 12.683 28.226 28.257 28.257z"/></g><g><path fill="#f55468" d="M54.397 52.034a.934.934 0 0 1-.324-.573.578.578 0 0 0-.489-.486c-1.743-.225-1.923-1.631-1.925-2.193a.576.576 0 0 0-.172-.412l-33.324-32.7a.568.568 0 0 0-.352-.162c-1.887-.147-2.226-1.294-2.261-1.963a.58.58 0 0 0-.468-.528 1.296 1.296 0 0 1-.544-.247A27.95 27.95 0 0 0 8.74 29.85c0 15.545 12.653 28.147 28.262 28.147 6.56 0 12.599-2.227 17.395-5.963z"/></g><g><path fill="#ff7186" d="M64.283 29.843c0 14.989-12.241 27.183-27.288 27.183-15.046 0-27.288-12.194-27.288-27.183C9.707 14.854 21.95 2.66 36.995 2.66c15.047 0 27.288 12.194 27.288 27.183zm1.948 0C66.23 13.79 53.118.73 37 .73 20.881.73 7.77 13.79 7.77 29.843c0 16.053 13.113 29.113 29.23 29.113 16.118 0 29.23-13.06 29.23-29.113z"/></g><g><path fill="#4e5fc6" d="M17.805 15.78a23.551 23.551 0 0 0-4.644 14.238c.093 12.925 10.683 23.474 23.66 23.567a23.774 23.774 0 0 0 14.297-4.626 1.19 1.19 0 0 0 .13-1.803L19.615 15.65a1.202 1.202 0 0 0-1.81.13z"/></g><g><path fill="#5561cc" d="M56.195 43.905a23.552 23.552 0 0 0 4.644-14.238C60.746 16.742 50.155 6.193 37.177 6.1a23.774 23.774 0 0 0-14.295 4.626 1.19 1.19 0 0 0-.13 1.803l31.632 31.504a1.202 1.202 0 0 0 1.81-.129z"/></g><g><path fill="#ff4155" d="M55.512 52.36c-1.08-.025-1.376-.517-1.44-.902a.603.603 0 0 0-.146-.302A27.229 27.229 0 0 1 37 57.03c-15.05 0-27.293-12.194-27.293-27.183a26.977 26.977 0 0 1 5.715-16.625.608.608 0 0 0-.341-.208c-.676-.147-.88-.6-.933-.948a.59.59 0 0 0-.092-.236A28.897 28.897 0 0 0 7.77 29.847C7.77 45.9 20.883 58.96 37 58.96a29.168 29.168 0 0 0 18.512-6.6z"/></g><g><path fill="#f9a0b1" d="M44.34 2.937c0 .422.276.796.68.92 10.507 3.225 18.326 12.61 19.189 23.901a.969.969 0 0 0 .965.897c.561 0 1.01-.473.967-1.03-.918-12.098-9.292-22.155-20.546-25.612a.97.97 0 0 0-1.255.924z"/></g><g><path fill="#fcc0cf" d="M66.136 27.578a28.797 28.797 0 0 0-2.375-9.425.953.953 0 0 0-1.22-.497l-.03.012a.95.95 0 0 0-.519 1.272 26.885 26.885 0 0 1 2.216 8.823.969.969 0 0 0 1.047.894c.54-.044.923-.542.881-1.079z"/></g></g></g></svg>