<svg xmlns="http://www.w3.org/2000/svg" width="9" height="14" viewBox="0 0 9 14"><g><g><g><path fill="#838993" d="M7.928 4.348L4.66 1.08a.221.221 0 0 0-.322 0L1.07 4.348a.222.222 0 0 0 0 .323l.35.35a.222.222 0 0 0 .323 0L4.5 2.265l2.756 2.756a.221.221 0 0 0 .323 0l.35-.35a.222.222 0 0 0 0-.323z"/><path fill="none" stroke="#838993" stroke-miterlimit="20" d="M7.928 4.348L4.66 1.08a.221.221 0 0 0-.322 0L1.07 4.348a.222.222 0 0 0 0 .323l.35.35a.222.222 0 0 0 .323 0L4.5 2.265v0l2.756 2.756a.221.221 0 0 0 .323 0l.35-.35a.222.222 0 0 0 0-.323z"/></g><g><path fill="#838993" d="M7.928 8.923L4.66 12.191a.221.221 0 0 1-.322 0L1.07 8.923a.222.222 0 0 1 0-.322l.35-.35a.222.222 0 0 1 .323 0L4.5 11.005 7.255 8.25a.221.221 0 0 1 .323 0l.35.35a.222.222 0 0 1 0 .323z"/><path fill="none" stroke="#838993" stroke-miterlimit="20" d="M7.928 8.923L4.66 12.191a.221.221 0 0 1-.322 0L1.07 8.923a.222.222 0 0 1 0-.322l.35-.35a.222.222 0 0 1 .323 0L4.5 11.005v0L7.255 8.25a.221.221 0 0 1 .323 0l.35.35a.222.222 0 0 1 0 .323z"/></g></g></g></svg>