<svg xmlns="http://www.w3.org/2000/svg" width="14" height="14" viewBox="0 0 14 14"><g><g><g><path fill="#838993" d="M10.475 2.967a.973.973 0 0 0 .975-.973V.975A.974.974 0 0 0 10.475 0 .973.973 0 0 0 9.5.975v1.02c0 .539.436.972.975.972z"/></g><g><path fill="#838993" d="M1.09 13.069v-7.92h11.878v7.92zM13.944 1.685H11.98v.495a1.485 1.485 0 0 1-2.968 0v-.495H5.05v.495c0 .819-.666 1.485-1.485 1.485-.819 0-1.484-.666-1.484-1.485v-.495L.1 1.66v12.396h12.868l.99-.003z"/></g><g><path fill="#838993" d="M3.554 2.967a.973.973 0 0 0 .976-.973V.975a.974.974 0 1 0-1.95 0v1.02c0 .539.435.972.974.972z"/></g><g><path fill="#838993" d="M5.05 6.21h1.56v1.377H5.05z"/></g><g><path fill="#838993" d="M7.58 6.21h1.561v1.377H7.58z"/></g><g><path fill="#838993" d="M9.91 6.21h1.56v1.377H9.91z"/></g><g><path fill="#838993" d="M5.05 8.5h1.56v1.376H5.05z"/></g><g><path fill="#838993" d="M7.58 8.5h1.561v1.376H7.58z"/></g><g><path fill="#838993" d="M9.91 8.5h1.56v1.376H9.91z"/></g><g><path fill="#838993" d="M5.05 10.83h1.56v1.376H5.05z"/></g><g><path fill="#838993" d="M2.58 8.5h1.559v1.376H2.58z"/></g><g><path fill="#838993" d="M2.58 10.83h1.559v1.376H2.58z"/></g><g><path fill="#838993" d="M7.58 10.83h1.561v1.376H7.58z"/></g><g><path fill="#838993" d="M9.91 10.83h1.56v1.376H9.91z"/></g></g></g></svg>