<?xml version="1.0" encoding="UTF-8" standalone="no"?>
<svg
   xmlns:dc="http://purl.org/dc/elements/1.1/"
   xmlns:cc="http://creativecommons.org/ns#"
   xmlns:rdf="http://www.w3.org/1999/02/22-rdf-syntax-ns#"
   xmlns:svg="http://www.w3.org/2000/svg"
   xmlns="http://www.w3.org/2000/svg"
   version="1.1"
   id="svg2"
   viewBox="0 0 195.37649 281.26146"
   height="79.378235mm"
   width="55.139587mm">
  <defs
     id="defs4" />
  <metadata
     id="metadata7">
    <rdf:RDF>
      <cc:Work
         rdf:about="">
        <dc:format>image/svg+xml</dc:format>
        <dc:type
           rdf:resource="http://purl.org/dc/dcmitype/StillImage" />
        <dc:title></dc:title>
      </cc:Work>
    </rdf:RDF>
  </metadata>
  <g
     transform="translate(-441.77389,-383.07525)"
     id="layer1">
    <g
       transform="translate(-285.71429,-422.85714)"
       id="g4147">
      <path
         id="path4235"
         d="m 857.58929,1085.2873 c -3.78125,-1.0394 -14.1875,-4.0672 -23.125,-6.7286 -21.44735,-6.3864 -27.51362,-7.5357 -39.77415,-7.5357 -12.50906,0 -25.75406,3.4254 -36.51587,9.4437 -4.23512,2.3685 -8.20867,4.2979 -8.83011,4.2876 -1.17153,-0.019 -19.84704,-26.1626 -19.06941,-26.6947 5.20154,-3.559 18.22545,-14.6794 23.13275,-19.7518 22.34526,-23.0967 28.50928,-46.44298 18.98389,-71.90185 l -2.48172,-6.633 -21.21074,0 -21.21075,0 0.36306,-10.3125 0.36305,-10.3125 13.95669,-0.35245 13.95669,-0.35245 -6.22273,-13.19216 c -7.86846,-16.68114 -11.06565,-29.01406 -11.06565,-42.68496 0,-21.02703 6.13198,-35.12082 22.48993,-51.69106 12.46606,-12.62783 23.0491,-18.42246 40.82272,-22.35204 15.62739,-3.45506 42.51865,-3.45378 56.1749,0.003 34.11926,8.63573 54.78974,35.21467 57.59651,74.05994 l 0.7903,10.9375 -17.42926,0 -17.42925,0 -1.97238,-12.52245 c -4.39246,-27.88725 -16.69176,-40.59141 -42.42125,-43.81761 -12.11007,-1.51847 -19.60166,-0.8444 -31.54391,2.83823 -15.396,4.74768 -26.63212,18.16317 -29.67342,35.42896 -2.01058,11.41421 0.74177,22.04385 11.48594,44.35896 l 9.01028,18.71391 31.04945,0 31.04944,0 0,10.625 0,10.625 -26.39579,0 -26.39579,0 0.78223,2.8125 c 0.43023,1.54688 1.36061,6.82658 2.06752,11.73266 3.32291,23.06179 -6.72856,46.15457 -29.58849,67.97827 l -9.84468,9.3984 11.06727,-4.1592 c 22.18336,-8.3367 37.75208,-8.2656 68.12692,0.3113 31.38443,8.862 37.10715,8.5418 54.73277,-3.0624 l 3.92696,-2.5854 7.63554,12.3545 c 4.19955,6.7951 7.63554,12.9243 7.63554,13.6207 0,2.0705 -17.03296,12.8661 -24.73544,15.6774 -9.36286,3.4174 -30.33479,4.1651 -40.26456,1.4356 z"
         style="fill:#fbfbfb" />
      <path
         id="path4233"
         d="m 860.08929,1085.8502 c -2.40625,-0.6585 -12.8125,-3.6575 -23.125,-6.6645 -24.31652,-7.0902 -29.87412,-8.1627 -42.2989,-8.1627 -13.05139,0 -22.51405,2.4067 -35.46598,9.0203 -5.64568,2.8829 -10.47603,4.9858 -10.73412,4.6731 -2.69097,-3.2599 -18.50835,-26.4389 -18.1829,-26.6454 10.26214,-6.5135 26.16025,-21.859 33.6769,-32.5064 13.5949,-19.2573 16.29261,-38.14955 8.44327,-59.12879 l -2.47054,-6.60312 -20.85887,-0.34238 -20.85886,-0.34236 0,-10 0,-10 14.15274,-0.35429 c 7.784,-0.19485 13.96664,-0.75735 13.7392,-1.25 -0.22745,-0.49263 -3.12888,-6.52071 -6.44763,-13.39571 -7.72554,-16.00395 -10.82352,-27.97853 -10.80447,-41.76245 0.0288,-20.83153 6.31894,-35.294 22.39354,-51.48769 12.67229,-12.76619 23.17252,-18.458 41.53313,-22.51368 9.92269,-2.19182 14.69767,-2.49786 31.68349,-2.03064 17.28959,0.47557 21.35521,0.99486 30,3.83179 19.27945,6.32687 32.96295,18.17345 41.93016,36.30133 5.43104,10.97925 9.9002,29.19808 9.92841,40.47384 l 0.0164,6.5625 -17.33338,0 -17.33337,0 -1.33856,-10.36947 c -4.15229,-32.16664 -19.96184,-46.23172 -52.11969,-46.36871 -17.34875,-0.0739 -27.98125,3.25607 -37.14863,11.63454 -8.2154,7.50841 -12.81497,15.7018 -14.7068,26.19778 -2.40387,13.33677 -0.75367,19.82645 11.5617,45.46836 l 8.85521,18.4375 31.03176,0 31.03176,0 0,10.625 0,10.625 -26.38551,0 -26.38551,0 0.69607,2.8125 c 7.34556,29.67989 -1.25886,54.82265 -27.14817,79.32905 l -10.44326,9.8854 10.82201,-4.0649 c 23.09122,-8.6734 37.44113,-8.4966 71.00336,0.8751 24.1225,6.7358 32.72583,7.0044 43.46601,1.3569 4.125,-2.169 8.6969,-4.8105 10.15977,-5.8699 2.58136,-1.8695 2.88548,-1.559 10.3125,10.5269 4.20901,6.8492 7.63079,12.919 7.60398,13.4885 -0.15256,3.2404 -19.98981,14.6491 -30.1948,17.3656 -7.44943,1.9829 -25.60506,2.1924 -32.25645,0.3721 z"
         style="fill:#f6f6f6" />
      <path
         id="path4231"
         d="m 858.36185,1085.2853 c -4.04385,-0.9786 -13.60635,-3.7269 -21.25,-6.1073 -19.28836,-6.0067 -30.47566,-8.155 -42.46666,-8.155 -13.03265,0 -22.49247,2.3935 -35.47828,8.9766 -5.66356,2.8712 -10.49391,4.9791 -10.73412,4.6843 -2.82626,-3.4683 -18.47203,-26.4088 -18.1504,-26.6129 16.73325,-10.6208 36.85225,-33.3811 42.24287,-47.7889 5.8582,-15.6574 5.81081,-27.89605 -0.17018,-43.94665 l -2.44541,-6.5625 -20.53519,0 -20.53519,0 0,-10.70068 0,-10.70067 14.23184,0.38817 14.23185,0.38818 -6.82534,-13.6031 C 742.091,908.83003 738.8343,896.73754 738.85413,882.3855 c 0.0288,-20.86698 6.33114,-35.33895 22.39354,-51.4222 8.28665,-8.29741 12.84238,-11.74753 20.09162,-15.21569 16.11089,-7.70771 23.78569,-9.1019 50,-9.08288 22.58194,0.0164 23.37581,0.10621 33.80521,3.8249 19.86761,7.08398 32.20153,17.88272 41.29865,36.15832 5.38397,10.81606 9.85153,29.04518 9.87971,40.3125 l 0.0164,6.5625 -17.35598,0 -17.35596,0 -0.81049,-7.1875 c -1.35471,-12.01396 -3.34908,-19.34139 -7.32678,-26.91902 -6.75065,-12.86016 -17.73238,-19.78252 -35.24807,-22.21873 -32.31639,-4.49479 -57.01461,10.40716 -61.86656,37.32791 -2.44268,13.55302 0.15936,23.23227 13.2731,49.37423 l 7.40008,14.7519 30.58283,0.24811 30.58283,0.2481 0.36305,10.3125 0.36305,10.3125 -26.43606,0 -26.43606,0 0.69607,2.8125 c 7.26882,29.36981 -0.17877,52.06485 -25.3564,77.26855 l -11.94365,11.956 8.75,-3.4191 c 21.01543,-8.2118 37.57439,-9.0242 60.625,-2.9743 35.25859,9.254 37.394,9.6422 45.34254,8.242 4.9165,-0.866 10.205,-3.0172 15.35372,-6.2454 l 7.85399,-4.9245 7.59987,12.4204 c 4.17993,6.8312 7.59988,12.834 7.59988,13.3395 0,1.0973 -13.80515,10.4077 -20,13.4882 -11.27304,5.6058 -29.6379,7.0793 -44.22744,3.5485 z"
         style="fill:#f3f3f3" />
      <path
         id="path4229"
         d="m 860.71429,1085.9292 c -2.75,-0.6739 -12.3125,-3.4435 -21.25,-6.1546 -21.82689,-6.6211 -32.63468,-8.7516 -44.39519,-8.7516 -13.77623,0 -21.31928,1.8175 -34.72763,8.3679 -6.39255,3.1229 -11.77658,5.4709 -11.96452,5.2176 -4.49886,-6.0631 -18.31929,-26.4262 -18.0436,-26.5855 4.90298,-2.8342 17.208,-13.6119 24.77549,-21.7002 21.10797,-22.5607 26.70218,-44.74579 17.49045,-69.36235 l -2.68962,-7.1875 -20.53519,0 -20.53519,0 0,-10 0,-10 14.33039,0 14.3304,0 -7.47698,-15.3125 c -10.52751,-21.55985 -13.5577,-39.28371 -9.82009,-57.43847 3.3557,-16.29968 17.56169,-36.31445 33.09158,-46.6226 8.71546,-5.78499 23.31164,-11.14822 35.7989,-13.15395 12.4346,-1.99728 41.44035,-0.96908 51.57765,1.82833 32.52495,8.97533 52.27076,35.45219 55.2391,74.06929 l 0.79786,10.3799 -17.52086,0 -17.52087,0 -1.46425,-11.5625 c -3.42072,-27.01187 -16.23145,-40.87317 -41.38185,-44.77539 -19.05346,-2.95624 -36.96075,1.36927 -48.20209,11.64322 -7.88607,7.20743 -12.06578,14.57262 -14.23861,25.09025 -2.73137,13.22128 0.0671,23.66025 13.54922,50.54192 l 7.67977,15.3125 30.61537,0 30.61536,0 0,10 0,10 -26.38551,0 -26.38551,0 0.74134,2.95374 c 2.18842,8.71936 2.99353,20.23544 1.93651,27.69933 -2.65677,18.76028 -10.16712,32.28198 -27.55275,49.60638 l -12.17734,12.1344 6.47413,-2.6293 c 15.34497,-6.2319 22.24823,-7.6445 37.09913,-7.5915 11.51874,0.041 16.73451,0.6998 26.25,3.3152 35.6042,9.7858 36.34846,9.9277 44.74781,8.5276 5.46391,-0.9107 10.30985,-2.8403 15.83763,-6.3062 l 7.96481,-4.9939 7.59987,12.4204 c 4.17993,6.8312 7.59988,12.834 7.59988,13.3395 0,1.7308 -15.79186,11.6299 -23.83669,14.942 -6.5374,2.6915 -10.37232,3.3706 -20.53831,3.6367 -6.875,0.18 -14.75,-0.2242 -17.5,-0.8981 z"
         style="fill:#e8e8e8" />
      <path
         id="path4227"
         d="m 855.08929,1084.3223 c -5.84375,-1.6422 -17.65625,-5.0801 -26.25,-7.6398 -12.46052,-3.7115 -18.4376,-4.7896 -29.5126,-5.3234 -17.04109,-0.8214 -23.53346,0.5187 -38.98522,8.0471 -6.39255,3.1145 -11.77658,5.4556 -11.96452,5.2023 -0.18794,-0.2533 -4.35572,-6.2116 -9.26174,-13.2407 l -8.92002,-12.7802 7.20069,-5.5408 c 13.19236,-10.1513 27.11968,-26.0985 32.64222,-37.3764 8.38411,-17.12164 9.13633,-30.06751 2.81214,-48.39745 l -2.372,-6.875 -20.81948,-0.34272 -20.81947,-0.34273 0,-9.96977 0,-9.96978 14.30402,0 14.30402,0 -7.45307,-15.41781 c -9.1896,-19.0101 -11.6275,-29.38001 -10.77487,-45.83219 1.00909,-19.47106 8.27143,-34.87386 23.11777,-49.03079 17.32733,-16.52271 37.1331,-23.33393 68.11733,-23.4256 18.81575,-0.0557 31.2018,2.41921 44.4882,8.88926 24.31928,11.8427 38.3179,35.17759 40.94604,68.25463 l 0.81937,10.3125 -17.6844,0 -17.68441,0 -0.0436,-3.4375 c -0.17285,-13.62531 -6.43668,-31.98293 -13.48353,-39.51669 -10.59371,-11.32571 -30.77954,-16.60069 -51.3112,-13.4087 -17.42959,2.70972 -29.75393,11.32395 -36.48521,25.50175 -7.87589,16.58863 -6.22599,28.84244 7.7048,57.22358 l 9.76175,19.88756 30.6785,0 30.6785,0 0,10 0,10 -26.25,0 c -14.4375,0 -26.23625,0.42188 -26.21944,0.9375 0.0168,0.51563 0.61885,3.46875 1.33787,6.5625 1.96196,8.44178 1.5974,24.00783 -0.75151,32.0878 -4.70005,16.16755 -14.37537,30.75615 -29.66311,44.72625 l -9.07881,8.2964 8.75,-3.3329 c 26.87205,-10.2356 39.06533,-10.2258 75.49336,0.06 8.51844,2.4054 18.17645,4.73 21.46225,5.1659 8.2236,1.0909 17.26169,-1.3444 26.03533,-7.015 l 7.3688,-4.7627 7.63264,12.4563 c 4.19793,6.851 7.63262,12.8515 7.63262,13.3345 0,1.7148 -15.92233,11.6418 -23.83669,14.8614 -11.80487,4.8022 -29.09199,5.2659 -43.66331,1.1712 z"
         style="fill:#e4e4e4" />
      <path
         id="path4225"
         d="m 860.71429,1085.7817 c -2.75,-0.6782 -12.3125,-3.4149 -21.25,-6.0818 -24.22232,-7.2276 -32.62859,-8.8959 -44.57722,-8.8469 -13.53978,0.055 -24.06809,2.704 -35.84375,9.0169 -5.04403,2.7041 -9.62472,4.6361 -10.17931,4.2933 -0.5546,-0.3427 -4.97454,-6.2432 -9.82209,-13.1121 l -8.81373,-12.4889 7.18419,-5.5281 c 13.17697,-10.1395 27.10566,-26.0909 32.62572,-37.3637 8.38411,-17.12164 9.13633,-30.06751 2.81214,-48.39745 l -2.372,-6.875 -20.81948,-0.34272 -20.81947,-0.34273 0,-9.96977 0,-9.96978 14.30402,0 14.30402,0 -7.45307,-15.41781 c -9.16777,-18.96495 -11.61853,-29.36521 -10.80006,-45.83219 0.72316,-14.54951 4.33641,-25.12152 12.49217,-36.55079 11.44497,-16.03869 26.56487,-26.64768 45.92334,-32.22246 13.32328,-3.83679 41.74024,-4.83675 56.30081,-1.98117 36.68392,7.19437 58.54318,33.81629 61.94534,75.44192 l 0.84287,10.3125 -17.5341,0 -17.5341,0 -0.84045,-8.4375 c -3.09568,-31.07816 -17.85258,-46.34114 -47.03662,-48.6497 -25.31387,-2.00241 -44.88893,7.48686 -53.64719,26.0062 -7.96961,16.85172 -6.36384,28.96589 7.61427,57.44344 l 9.76175,19.88756 30.6785,0 30.6785,0 0,10 0,10 -26.39579,0 -26.39579,0 0.83889,2.8125 c 0.46139,1.54688 1.16358,8.74182 1.56043,15.98879 0.56873,10.38591 0.26699,14.73986 -1.42487,20.55965 -4.72761,16.26241 -15.00231,31.68501 -30.31774,45.50771 l -8.18289,7.3854 13.89364,-4.7486 c 23.67896,-8.0931 34.66555,-7.8786 67.97391,1.3274 9.75526,2.6962 20.38467,5.2535 23.62092,5.6828 8.12688,1.0781 17.21231,-1.3826 25.94523,-7.027 l 7.3688,-4.7627 7.77032,12.6811 7.77032,12.6811 -4.53041,3.9162 c -6.30473,5.45 -17.70935,11.3123 -26.42191,13.5817 -8.13554,2.119 -23.4758,2.3268 -31.19806,0.4227 z"
         style="fill:#dcdcdc" />
      <path
         id="path4223"
         d="m 855.08929,1084.2482 c -5.84375,-1.5391 -14.28125,-4.0072 -18.75,-5.4847 -33.00785,-10.9137 -55.05596,-10.6122 -77.39465,1.0582 -5.09832,2.6635 -9.70589,4.5731 -10.23906,4.2436 -1.58792,-0.9814 -17.36629,-24.0119 -17.36629,-25.3483 0,-0.6771 2.75166,-3.251 6.11481,-5.7198 3.36314,-2.4688 10.83527,-9.4491 16.60473,-15.5118 12.23347,-12.8553 19.00128,-24.6424 21.8311,-38.02207 2.25912,-10.68134 1.65604,-18.13415 -2.45311,-30.31538 l -2.95167,-8.75 -20.82293,-0.34272 -20.82293,-0.34273 0,-9.96977 0,-9.96978 14.30402,0 14.30402,0 -7.33304,-15.3125 c -9.13888,-19.08338 -11.84834,-30.5577 -10.95966,-46.4132 1.77157,-31.60781 24.9045,-58.63578 58.45508,-68.29755 13.32328,-3.83679 41.74024,-4.83675 56.30081,-1.98117 36.56031,7.17012 58.47233,34.00334 61.96483,75.88143 l 0.82338,9.87299 -17.47844,0 -17.47844,0 -1.34914,-10.9375 c -1.7849,-14.47024 -5.43638,-23.7997 -12.30516,-31.43943 -11.64837,-12.9558 -33.13876,-18.09674 -55.67824,-13.31938 -15.75396,3.33914 -25.91138,11.10014 -32.35234,24.71954 -7.9846,16.88343 -6.41688,28.65318 7.62784,57.26641 l 9.79748,19.96036 30.6785,0 30.6785,0 0,10 0,10 -26.35987,0 -26.35987,0 1.04737,5.3125 c 0.57605,2.92188 1.03638,11.5 1.02295,19.0625 -0.0213,11.98326 -0.44617,14.75845 -3.30674,21.59845 -5.74759,13.7434 -11.3482,21.7678 -24.10487,34.5367 -6.83982,6.8465 -11.33982,11.9799 -10,11.4077 10.2736,-4.3876 23.05693,-8.2132 31.63607,-9.4677 12.76412,-1.8663 23.07904,-0.4981 47.84166,6.3459 9.82846,2.7165 20.51776,5.2903 23.75401,5.7196 8.10783,1.0755 17.20785,-1.3798 25.87433,-6.9812 l 7.2979,-4.7168 7.827,12.6475 7.82701,12.6476 -4.5162,3.9039 c -16.42616,14.1993 -39.41944,18.7297 -63.23075,12.4586 z"
         style="fill:#d6d6d6" />
      <path
         id="path4221"
         d="m 856.96429,1084.6389 c -5.5,-1.3493 -15.29306,-4.1477 -21.76235,-6.2188 -17.54888,-5.6181 -28.23603,-7.5971 -40.73765,-7.5434 -13.67738,0.059 -23.09607,2.4205 -35.43268,8.8849 -5.14615,2.6965 -9.79286,4.6332 -10.32603,4.3037 -1.85932,-1.1491 -17.54359,-24.384 -17.14402,-25.3974 0.2215,-0.5617 4.62148,-4.5162 9.77773,-8.7878 18.89972,-15.6567 30.90352,-33.1729 34.55064,-50.41677 2.25912,-10.68134 1.65604,-18.13415 -2.45311,-30.31538 l -2.95167,-8.75 -20.82293,-0.34272 -20.82293,-0.34273 0,-9.96977 0,-9.96978 14.30402,0 14.30402,0 -7.32421,-15.3125 c -4.02831,-8.42187 -8.21512,-19.36104 -9.30402,-24.30926 -5.82393,-26.46537 0.99858,-49.50726 20.50686,-69.25849 18.0482,-18.27296 40.24134,-25.64513 73.76333,-24.50287 19.11119,0.65121 29.00171,2.81741 41.32399,9.05066 14.73295,7.4527 28.15063,23.35372 33.64922,39.87696 3.19648,9.60541 6.17087,25.30149 6.23318,32.893 l 0.0436,5.3125 -17.2474,0 -17.2474,0 -1.39125,-10.9375 c -3.45981,-27.19993 -15.72835,-41.22297 -39.72072,-45.40106 -9.92334,-1.72807 -24.53431,-0.8968 -33.96437,1.93236 -19.76139,5.92872 -33.24118,26.54699 -31.25581,47.80791 0.79527,8.51637 4.74455,18.78478 15.03737,39.09829 l 6.65042,13.125 30.81959,0.33434 30.81957,0.33434 0,9.97816 0,9.97816 -26.39572,0 -26.39572,0 0.82625,3.4375 c 0.45443,1.89063 1.15175,9.10223 1.5496,16.02579 0.56492,9.8312 0.25443,14.2116 -1.41765,20 -4.76402,16.49216 -16.68434,33.82026 -32.4894,47.22866 -8.76672,7.4374 -9.28348,8.3407 -2.87593,5.0272 6.97947,-3.6092 20.5909,-7.7438 30.3766,-9.2272 12.36404,-1.8742 24.25016,-0.326 48.09561,6.2646 9.90715,2.7382 20.66082,5.3298 23.89707,5.7591 8.10783,1.0755 17.20785,-1.3798 25.87433,-6.9812 l 7.2979,-4.7168 7.81857,12.6339 7.81857,12.6339 -4.80254,4.0563 c -16.51558,13.9495 -37.89435,18.4051 -61.05254,12.7242 z"
         style="fill:#d2d2d2" />
      <path
         id="path4219"
         d="m 859.46429,1085.2611 c -4.125,-0.992 -14.8125,-3.9985 -23.75,-6.6811 -21.66617,-6.503 -29.33577,-7.9665 -41.33195,-7.8868 -12.62288,0.084 -22.88449,2.673 -34.56453,8.7206 -5.00693,2.5925 -9.478,4.8899 -9.9357,5.1054 -1.09337,0.5149 -18.84073,-24.5334 -18.3192,-25.8553 0.22076,-0.5596 4.62013,-4.5122 9.77638,-8.7838 19.66652,-16.2919 32.21735,-35.3334 35.2344,-53.4556 1.26084,-7.57337 1.17956,-10.40132 -0.52097,-18.125 -1.1082,-5.03335 -2.91088,-11.26092 -4.00595,-13.83905 l -1.99103,-4.6875 -20.60823,0 -20.60822,0 0,-10 0,-10 14.28919,0 14.2892,0 -7.31088,-15.3125 c -17.99326,-37.68655 -14.40338,-67.62611 11.21916,-93.56775 18.0482,-18.27296 40.24134,-25.64513 73.76333,-24.50287 19.11119,0.65121 29.00171,2.81741 41.32399,9.05066 20.78609,10.51469 34.58263,32.34591 38.5732,61.03696 0.74405,5.34952 1.35281,11.3732 1.35281,13.38595 l 0,3.65955 -17.2474,0 -17.2474,0 -1.39125,-10.9375 c -3.45479,-27.16044 -15.87832,-41.39322 -39.65313,-45.42778 -9.94799,-1.68817 -24.64801,-0.85644 -33.89237,1.91763 -22.93795,6.88327 -36.26032,31.42356 -30.10425,55.45307 1.10977,4.33184 6.09994,16.14336 11.08928,26.24782 l 9.07152,18.37176 30.9375,0.33434 30.9375,0.33434 0,9.97816 0,9.97816 -26.39572,0 -26.39572,0 0.82625,3.4375 c 0.45443,1.89063 1.15175,9.10223 1.5496,16.02579 0.56492,9.8312 0.25443,14.2116 -1.41765,20 -4.76402,16.49216 -16.68434,33.82026 -32.4894,47.22866 -8.76672,7.4374 -9.28348,8.3407 -2.87593,5.0272 7.29819,-3.7741 21.04091,-7.8626 31.02175,-9.2292 12.48519,-1.7094 24.13547,-0.2373 45.16961,5.7077 30.57808,8.6425 37.79046,8.5547 52.00586,-0.6332 l 7.4172,-4.794 7.70811,12.6773 7.70813,12.6773 -4.72855,4.0365 c -15.42474,13.1675 -37.8701,18.2825 -58.47854,13.3266 z"
         style="fill:#c9c9c9" />
      <path
         id="path4217"
         d="m 859.46429,1085.2611 c -4.125,-0.992 -14.8125,-3.9985 -23.75,-6.6811 -21.60979,-6.4861 -29.32342,-7.969 -41.25,-7.9301 -12.45973,0.041 -22.89899,2.6813 -34.64648,8.7639 -5.00693,2.5925 -9.478,4.8899 -9.9357,5.1054 -0.90673,0.427 -18.54846,-23.9448 -18.53388,-25.6043 0.005,-0.5593 4.24988,-4.3919 9.43325,-8.5169 15.68804,-12.4848 27.26773,-27.3739 33.05361,-42.5 4.21539,-11.02046 4.18663,-26.93516 -0.07,-38.75005 l -3.15246,-8.75 -20.88666,-0.34272 -20.88666,-0.34273 0,-9.96977 0,-9.96978 14.38755,0 14.38754,0 -5.6389,-11.22772 c -11.99869,-23.89082 -15.63946,-43.66077 -11.37273,-61.75568 6.552,-27.78663 30.65936,-50.88808 60.37794,-57.85858 13.60224,-3.19041 46.27732,-3.21721 57.8586,-0.0475 26.05735,7.1318 43.43147,23.25077 51.51615,47.79446 3.13049,9.5036 5.98385,25.32791 5.98385,33.18543 l 0,3.65955 -17.3205,0 -17.3205,0 -0.79947,-8.60208 c -2.2452,-24.15739 -13.45956,-40.3904 -31.83008,-46.07464 -10.7158,-3.31571 -34.6662,-2.8933 -44.16048,0.77886 -14.7863,5.71899 -24.1881,16.24159 -28.05162,31.39569 -3.85208,15.10923 -1.62539,24.61052 12.30423,52.50217 l 7.80342,15.625 30.9375,0.33434 30.9375,0.33434 0,9.97816 0,9.97816 -26.35987,0 -26.35987,0 1.04737,5.3125 c 0.57605,2.92188 1.02013,11.5 0.98684,19.0625 -0.0667,15.14871 -2.11665,22.09229 -10.7462,36.39889 -4.32001,7.162 -19.11798,23.2636 -27.94327,30.405 l -5,4.0459 6.49067,-3.222 c 12.48939,-6.1999 27.34533,-9.7594 41.00933,-9.8259 12.78246,-0.062 12.53853,-0.1099 49.375,9.6525 17.96769,4.7618 25.09256,4.055 37.72474,-3.742 5.13833,-3.1715 7.8939,-4.2187 8.77715,-3.3355 0.70808,0.7081 4.33747,6.2568 8.0653,12.3303 l 6.77785,11.0429 -4.11002,3.5187 c -15.82232,13.5461 -38.38036,18.8295 -59.11002,13.8444 z"
         style="fill:#c2c2c2" />
      <path
         id="path4215"
         d="m 859.46429,1085.3373 c -4.125,-1.0366 -13.68784,-3.8132 -21.25076,-6.1702 -21.43555,-6.6805 -30.3115,-8.4308 -43.12424,-8.5036 -13.78536,-0.078 -22.40076,2.0763 -35.55035,8.8907 -4.85356,2.5153 -9.18639,4.7453 -9.62851,4.9556 -0.87371,0.4156 -18.57114,-24.1875 -18.57114,-25.8177 0,-0.5475 2.58644,-2.8528 5.74764,-5.123 8.40867,-6.0386 22.13727,-20.1594 28.01619,-28.8165 8.22134,-12.1065 11.58947,-22.3464 11.71114,-35.60465 0.0831,-9.0584 -0.51088,-12.95458 -3.0492,-20 l -3.15245,-8.75 -20.88666,-0.34272 -20.88666,-0.34273 0,-9.96977 0,-9.96978 14.38755,0 14.38754,0 -5.6389,-11.22772 c -15.7076,-31.27569 -17.14123,-55.52383 -4.68431,-79.22939 6.99241,-13.30657 20.69751,-26.60115 34.10561,-33.08399 16.23089,-7.84767 24.60916,-9.485 48.69251,-9.51576 22.20591,-0.0284 30.16304,1.34128 43.65174,7.51369 24.25526,11.09917 39.10109,35.50157 42.03077,69.08688 l 0.8903,10.20629 -17.48191,0 -17.4819,0 -0.79947,-8.60208 c -1.69822,-18.27208 -7.92256,-31.06024 -19.36616,-39.78856 -8.36546,-6.38056 -17.09688,-8.49984 -34.56837,-8.39041 -16.63805,0.10421 -24.44099,2.22859 -34.22896,9.31896 -11.18536,8.10263 -18.52527,25.0496 -17.28041,39.89837 0.83604,9.97228 3.48635,17.25356 13.67276,37.56372 l 7.83661,15.625 30.9375,0.33434 30.9375,0.33434 0,9.97816 0,9.97816 -26.35987,0 -26.35987,0 1.04737,5.3125 c 0.57605,2.92188 1.02013,11.5 0.98684,19.0625 -0.0667,15.15184 -2.12402,22.11785 -10.7462,36.38615 -4.40755,7.2938 -17.82085,21.9012 -27.28946,29.7189 l -5.59619,4.6204 8.36056,-3.7908 c 10.02666,-4.5463 23.82605,-8.3541 34.08182,-9.4044 8.78145,-0.8994 24.12622,1.5417 42.5,6.7609 30.04272,8.5339 34.93377,8.4786 49.95182,-0.5648 4.61624,-2.7798 7.78853,-3.986 8.5308,-3.2437 0.64994,0.6499 4.19438,6.1126 7.87654,12.1392 4.82979,7.905 6.33759,11.388 5.4124,12.5028 -2.69946,3.2527 -17.36922,11.9316 -24.41004,14.4415 -9.64692,3.4388 -27.11611,4.1978 -37.36152,1.6232 z"
         style="fill:#b9b9b9" />
      <path
         id="path4213"
         d="m 860.71429,1085.5061 c -4.125,-0.9494 -14.8125,-3.9713 -23.75,-6.7153 -22.26601,-6.8361 -29.42642,-8.2163 -42.5,-8.1922 -13.12029,0.024 -22.16734,2.3441 -34.92535,8.9556 -4.85356,2.5153 -9.18639,4.7453 -9.62851,4.9556 -0.87371,0.4156 -18.57114,-24.1875 -18.57114,-25.8177 0,-0.5475 2.56034,-2.834 5.68964,-5.0813 15.52578,-11.1498 31.07618,-30.2828 36.64529,-45.0878 4.35302,-11.57221 4.38373,-28.51209 0.0725,-40.00005 l -3.04915,-8.125 -20.92916,-0.34272 -20.92916,-0.34273 0,-9.96977 0,-9.96978 14.38755,0 14.38754,0 -5.6389,-11.22772 c -11.37288,-22.64475 -14.98267,-40.41425 -11.91029,-58.62937 3.64941,-21.63621 20.60929,-43.66473 41.33159,-53.68401 16.07077,-7.77025 24.5747,-9.43 48.69251,-9.5035 17.91764,-0.0546 21.9319,0.31435 30.58111,2.81074 24.2818,7.00836 40.14879,21.52066 48.87391,44.70117 3.03182,8.0548 6.7804,27.49907 6.78995,35.22019 l 0.005,4.0625 -17.23928,0 -17.23927,0 -1.33657,-10.9375 c -1.92905,-15.78579 -5.64777,-24.47538 -14.08488,-32.9125 -10.50456,-10.50456 -17.58435,-12.89241 -38.225,-12.89241 -17.99986,0 -25.30605,1.9111 -35.47896,9.28032 -11.18536,8.10263 -18.52527,25.0496 -17.28041,39.89837 0.83604,9.97228 3.48635,17.25356 13.67276,37.56372 l 7.83661,15.625 30.98969,0.33445 30.98968,0.33445 -0.36468,9.66555 -0.36469,9.66555 -26.01025,0.33809 -26.01026,0.33807 1.01025,5.91193 c 0.55565,3.25155 0.9806,11.81816 0.94435,19.03691 -0.0726,14.46298 -2.24863,21.70795 -10.74082,35.76115 -4.36655,7.226 -17.62695,21.6945 -27.31827,29.8072 l -5.625,4.7087 5.21753,-2.6155 c 8.79387,-4.4082 23.67041,-8.9112 33.59943,-10.17 12.153,-1.5409 22.88534,-0.051 46.56553,6.4649 28.70978,7.8997 35.2134,7.7896 49.54294,-0.8392 4.20791,-2.5339 7.84467,-3.9721 8.46794,-3.3489 0.60086,0.6009 4.1363,6.0744 7.85655,12.1634 4.81575,7.882 6.40045,11.509 5.50164,12.592 -2.6878,3.2386 -17.37859,11.9175 -24.39004,14.409 -9.3411,3.3193 -25.921,4.1459 -36.11152,1.8004 z"
         style="fill:#b5b5b5" />
      <path
         id="path4211"
         d="m 862.58929,1085.8874 c -3.09375,-0.7017 -12.9375,-3.4719 -21.875,-6.156 -24.88722,-7.4742 -32.73403,-9.0434 -45.625,-9.124 -13.74382,-0.086 -22.25168,2.0551 -35.55035,8.9468 -4.85356,2.5153 -9.18639,4.7453 -9.62851,4.9556 -1.03792,0.4937 -18.81367,-24.6873 -18.31968,-25.9516 0.20545,-0.5258 4.63915,-4.3753 9.85266,-8.5544 15.81321,-12.6759 27.73085,-28.2507 32.65786,-42.6796 3.96349,-11.60722 3.81187,-27.61727 -0.36744,-38.80125 l -3.03622,-8.125 -20.92916,-0.34272 -20.92916,-0.34273 0,-9.96977 0,-9.96978 14.28811,0 14.2881,0 -6.66452,-14.0625 c -8.05569,-16.99796 -10.38358,-24.55417 -11.42996,-37.10109 -1.82536,-21.88765 5.38037,-40.82225 21.89748,-57.54037 7.66508,-7.75835 11.75016,-10.74819 20.17828,-14.76827 16.63111,-7.9328 24.78806,-9.53945 48.69251,-9.59086 17.88684,-0.0385 21.95259,0.33785 30.625,2.83464 30.6274,8.81763 48.59365,30.55672 53.80059,65.09848 0.99532,6.60273 1.81298,13.55185 1.81703,15.44247 l 0.007,3.4375 -17.22834,0 -17.22834,0 -1.43156,-12.04055 c -2.5078,-21.09247 -12.55497,-35.62793 -28.85972,-41.75198 -8.75845,-3.28967 -26.66794,-4.54414 -37.12704,-2.60056 -22.34545,4.15237 -37.19454,19.78551 -38.97225,41.03004 -0.98475,11.76833 1.60218,20.8089 12.33021,43.09048 l 8.91815,18.52257 31.10203,0 31.10202,0 -0.36508,9.6875 -0.36508,9.6875 -26.07559,0.33827 -26.07559,0.33829 0.76671,4.03671 c 1.89557,9.98007 2.27267,25.86145 0.76721,32.31019 -4.04017,17.30639 -17.11871,36.96339 -33.63125,50.54779 -4.88207,4.0163 -8.87649,7.4361 -8.87649,7.5997 0,0.1635 3.74434,-1.4005 8.32076,-3.4755 22.01267,-9.9811 41.34878,-11.3921 66.05424,-4.8203 42.20189,11.226 44.27699,11.2901 59.95182,1.8512 4.19285,-2.5248 7.81828,-3.9562 8.44155,-3.333 0.60086,0.6009 4.1363,6.0744 7.85655,12.1634 4.81575,7.882 6.40045,11.509 5.50164,12.592 -2.70484,3.2591 -17.22865,11.8135 -24.30551,14.3158 -8.64388,3.0562 -25.84779,4.1966 -34.32105,2.2749 z"
         style="fill:#afafaf" />
      <path
         id="path4209"
         d="m 862.58929,1085.882 c -3.09375,-0.7097 -14.0306,-3.7996 -24.30411,-6.8665 -39.77993,-11.8752 -54.63082,-11.7193 -79.60142,0.8357 l -9.69467,4.8743 -8.8249,-12.519 c -4.8537,-6.8855 -8.82043,-12.9218 -8.81496,-13.4138 0.005,-0.4921 4.02045,-3.9885 8.92217,-7.7697 11.62291,-8.9661 24.98089,-24.6421 30.35717,-35.625 7.84107,-16.01824 8.75319,-30.62509 2.93255,-46.96264 l -2.86351,-8.03741 -20.92916,-0.34272 -20.92916,-0.34273 0,-9.96977 0,-9.96978 14.28811,0 14.2881,0 -6.7918,-14.28845 c -9.1847,-19.3226 -11.10523,-26.94763 -11.04119,-43.83655 0.0414,-10.90521 0.61339,-15.28416 2.76488,-21.16519 6.72748,-18.38935 21.80366,-35.79551 37.79981,-43.64164 16.19848,-7.94537 26.33473,-9.98749 49.94209,-10.06166 17.851,-0.0561 21.96997,0.3191 30.625,2.78962 33.1171,9.45302 51.24826,34.09952 55.0937,74.89137 l 0.85433,9.0625 -17.66152,0 -17.66151,0 -0.0217,-5.3125 c -0.0326,-7.97678 -3.14593,-21.12136 -6.63215,-28.00109 -4.30749,-8.5004 -13.76327,-16.96715 -22.78437,-20.4012 -9.31069,-3.5443 -27.24465,-4.7573 -38.3434,-2.59345 -21.98214,4.28571 -36.47214,20.14214 -38.1022,41.69531 -0.90048,11.90644 1.15758,18.92777 12.4356,42.42543 l 8.84933,18.4375 31.10203,0 31.10202,0 -0.36508,9.6875 -0.36508,9.6875 -26.07559,0.33827 -26.07559,0.33829 0.76671,4.03671 c 1.89557,9.98007 2.27267,25.86145 0.76721,32.31019 -4.02648,17.24769 -17.27252,37.08989 -33.8816,50.75369 -4.74438,3.9031 -8.62614,7.2302 -8.62614,7.3938 0,0.1635 3.74434,-1.4005 8.32076,-3.4755 21.89207,-9.9264 41.4614,-11.3535 66.05424,-4.817 42.22654,11.2233 44.27745,11.2865 59.95182,1.8479 4.19285,-2.5248 7.81828,-3.9562 8.44155,-3.333 0.60086,0.6009 4.1363,6.0744 7.85655,12.1634 4.81575,7.882 6.40045,11.509 5.50164,12.592 -2.73016,3.2896 -17.25189,11.8197 -24.30551,14.2771 -8.71217,3.0352 -26.0643,4.2021 -34.32105,2.3082 z"
         style="fill:#a8a8a8" />
      <path
         id="path4207"
         d="m 862.58929,1085.882 c -3.09375,-0.7097 -13.85227,-3.7459 -23.90784,-6.7472 -19.74715,-5.8939 -35.96583,-9.3618 -43.78294,-9.3618 -9.54701,0 -24.11083,3.9253 -35.079,9.4548 l -10.89479,5.4924 -8.32095,-11.9347 c -4.57652,-6.564 -8.39261,-12.6411 -8.48021,-13.5045 -0.0876,-0.8634 4.2728,-5.1476 9.68976,-9.5204 24.23507,-19.5634 37.6144,-44.5558 35.36636,-66.06399 -0.41528,-3.97311 -2.04362,-10.84067 -3.61856,-15.26125 l -2.86351,-8.03741 -20.92916,-0.34272 -20.92916,-0.34273 0,-9.96977 0,-9.96978 14.28811,0 14.2881,0 -6.7918,-14.28845 c -8.87856,-18.67854 -10.98647,-26.90621 -11.0707,-43.21155 -0.0833,-16.13121 2.84385,-25.76503 11.97808,-39.42183 11.38993,-17.02936 26.47018,-27.49645 47.93321,-33.27008 13.63796,-3.66866 47.00339,-4.00245 59.375,-0.594 34.11704,9.39946 53.0876,34.55907 56.9076,75.47341 l 0.84613,9.0625 -17.62687,0 -17.62686,0 -0.0217,-5.3125 c -0.0326,-7.97678 -3.14593,-21.12136 -6.63215,-28.00109 -4.30749,-8.5004 -13.76327,-16.96715 -22.78437,-20.4012 -9.31069,-3.5443 -27.24465,-4.7573 -38.3434,-2.59345 -21.98214,4.28571 -36.47214,20.14214 -38.1022,41.69531 -0.90048,11.90644 1.15758,18.92777 12.4356,42.42543 l 8.84933,18.4375 31.10203,0 31.10202,0 -0.36508,9.6875 -0.36508,9.6875 -26.07559,0.33827 -26.07559,0.33829 0.76671,4.03671 c 1.88318,9.91484 2.27176,25.86897 0.78695,32.31019 -3.89044,16.87709 -17.09631,36.66939 -33.68811,50.49019 -4.86165,4.0497 -8.83937,7.5429 -8.83937,7.7627 0,0.2197 2.10937,-0.6649 4.6875,-1.9658 8.84704,-4.4642 23.70314,-8.8802 33.56593,-9.9776 13.02602,-1.4494 23.22148,-0.082 45.90773,6.1551 29.1435,8.0129 35.75725,7.9146 50.13927,-0.7458 4.05652,-2.4428 7.798,-4.0028 8.31441,-3.4668 2.78104,2.8866 14.6107,23.5324 14.02583,24.4787 -1.55361,2.5138 -18.42994,12.4433 -25.10051,14.7683 -8.43057,2.9385 -25.91802,4.0747 -34.04016,2.2116 z"
         style="fill:#a2a2a2" />
      <path
         id="path4205"
         d="m 858.21429,1084.7231 c -5.5,-1.3955 -15.13023,-4.1797 -21.40049,-6.1871 -13.68232,-4.3802 -34.51917,-8.763 -41.66106,-8.763 -9.97421,0 -24.26075,3.8091 -35.30761,9.4139 l -10.86917,5.5146 -8.35666,-11.9859 c -4.59617,-6.5923 -8.42379,-12.6689 -8.50584,-13.5036 -0.082,-0.8347 4.18796,-4.9765 9.4889,-9.2041 22.52343,-17.9627 35.98693,-41.3714 35.98693,-62.5696 0,-5.80149 -2.22765,-15.03134 -5.77204,-23.91535 l -1.74547,-4.375 -20.61624,0.37081 -20.61625,0.3708 0,-10.0583 0,-10.05831 14.47917,0 c 7.96354,0 14.26303,-0.42187 13.99887,-0.9375 -6.80103,-13.27519 -14.10538,-29.98746 -15.67363,-35.8611 -3.20587,-12.00703 -2.84206,-31.83954 0.77702,-42.35874 8.5459,-24.83943 29.60593,-43.68396 57.04357,-51.04264 13.64738,-3.66018 47.02106,-3.98952 59.375,-0.58593 34.11704,9.39946 53.0876,34.55907 56.9076,75.47341 l 0.84613,9.0625 -17.62687,0 -17.62686,0 -0.0217,-5.3125 c -0.0326,-7.97678 -3.14593,-21.12136 -6.63215,-28.00109 -4.30749,-8.5004 -13.76327,-16.96715 -22.78437,-20.4012 -9.31069,-3.5443 -27.24465,-4.7573 -38.3434,-2.59345 -22.01795,4.29269 -36.82375,20.55848 -38.19748,41.9641 -0.75658,11.78916 1.43913,19.18135 12.52181,42.15664 l 8.89377,18.4375 31.08434,0 31.08434,0 -0.36508,9.6875 -0.36508,9.6875 -26.03844,0 -26.03844,0 0.68927,4.375 c 1.93492,12.2814 2.25281,24.19255 0.84076,31.50225 -3.3021,17.0938 -16.47681,37.2574 -33.73878,51.6364 -4.86165,4.0497 -8.83937,7.5429 -8.83937,7.7627 0,0.2197 2.10937,-0.67 4.6875,-1.9772 8.55475,-4.3373 25.1417,-9.165 34.35159,-9.9981 12.92792,-1.1693 23.68548,0.3686 47.1457,6.7401 27.70323,7.5239 34.84131,7.302 48.6194,-1.5118 3.72332,-2.3817 7.21516,-3.869 7.75962,-3.3049 2.81288,2.9141 14.66828,23.5728 14.07686,24.5297 -1.55361,2.5138 -18.42994,12.4433 -25.10051,14.7683 -10.73537,3.7419 -26.15191,4.1643 -38.41516,1.0527 z"
         style="fill:#9c9c9c" />
      <path
         id="path4203"
         d="m 858.32466,1084.7471 c -5.43928,-1.3824 -15.97051,-4.439 -23.40272,-6.7924 -7.43222,-2.3535 -19.44055,-5.2818 -26.68519,-6.5076 -12.35939,-2.091 -13.90932,-2.1031 -25.12179,-0.1956 -9.1656,1.5593 -14.53917,3.3564 -23.06381,7.7136 l -11.11409,5.6806 -8.33721,-11.958 c -4.58547,-6.5769 -8.40434,-12.641 -8.48639,-13.4757 -0.082,-0.8347 4.18796,-4.9765 9.4889,-9.2041 17.42431,-13.8961 30.33296,-32.0304 34.0622,-47.8513 3.22055,-13.66279 2.22391,-23.42943 -3.97428,-38.94615 l -1.87244,-4.6875 -20.48927,0 -20.48928,0 0,-9.375 0,-9.375 14.47917,0 c 7.96354,0 14.26303,-0.42187 13.99887,-0.9375 -6.76663,-13.20805 -13.86119,-29.46829 -15.5227,-35.57693 -3.29881,-12.12835 -3.04801,-31.96612 0.5357,-42.37127 12.62907,-36.66806 48.44016,-57.13342 95.25896,-54.43869 24.81922,1.4285 39.65921,7.08037 53.92419,20.53723 13.90187,13.11432 21.8036,32.05626 24.23657,58.09966 l 0.78823,8.4375 -17.5995,0 -17.59949,0 -0.0217,-5.3125 c -0.0326,-7.98629 -3.14856,-21.1297 -6.6324,-27.97634 -3.68286,-7.23779 -10.93566,-14.79093 -17.37027,-18.08959 -15.25759,-7.82171 -41.11068,-8.20674 -56.87107,-0.84698 -18.679,8.7227 -29.01694,31.17519 -24.12638,52.39894 0.84932,3.68581 5.79383,15.56085 10.9878,26.38897 l 9.44358,19.6875 31.04522,0 31.04522,0 0,9.375 0,9.375 -26.38676,0 -26.38675,0 0.74287,4.6875 c 2.18107,13.76238 2.28601,26.14606 0.28866,34.0625 -4.42111,17.52295 -16.21012,35.06785 -33.15021,49.33545 -4.87179,4.1032 -8.85781,7.6302 -8.85781,7.8379 0,0.2076 2.10937,-0.6813 4.6875,-1.9753 2.57812,-1.294 9.46875,-3.9773 15.3125,-5.9629 9.67481,-3.2873 12.13412,-3.6073 27.5,-3.5783 16.24923,0.031 17.66059,0.2509 38.05979,5.9375 28.75636,8.0164 34.90747,7.8594 49.28965,-1.2577 3.69843,-2.3445 7.16991,-3.8013 7.71437,-3.2372 2.4744,2.5634 14.7042,23.5146 14.20122,24.3285 -1.46292,2.367 -18.20154,12.2917 -24.89003,14.7577 -10.84191,3.9974 -25.99256,4.5026 -38.63963,1.2885 z"
         style="fill:#949494" />
      <path
         id="path4201"
         d="m 861.02954,1085.3414 c -4.6391,-1.0416 -15.60785,-4.1403 -24.375,-6.8861 -16.45845,-5.1546 -33.36864,-8.6823 -41.61903,-8.6823 -10.15396,0 -24.32074,3.7456 -35.20983,9.3093 l -10.88862,5.5634 -8.18636,-11.7416 c -4.50249,-6.4579 -8.41753,-12.4762 -8.70007,-13.3739 -0.28428,-0.9033 3.76876,-5.0224 9.07498,-9.2231 17.41695,-13.7881 30.38151,-31.6801 34.48344,-47.5896 3.38493,-13.12856 2.31683,-23.89669 -3.91877,-39.50705 l -1.87244,-4.6875 -20.48927,0 -20.48928,0 0,-9.375 0,-9.375 14.375,0 c 7.90625,0 14.375,-0.25006 14.375,-0.5557 0,-0.30565 -3.05173,-6.67166 -6.78162,-14.14672 -10.85019,-21.7448 -13.95583,-38.92383 -10.22271,-56.54758 8.58776,-40.54207 46.89631,-65.04531 97.00433,-62.04673 25.00836,1.49655 39.67228,7.06503 53.86676,20.45539 13.70535,12.92893 22.01958,32.52473 24.1435,56.90384 l 0.84399,9.6875 -17.55212,0 -17.55213,0 -0.0185,-5.9375 c -0.0602,-19.35584 -10.20318,-38.356 -24.35653,-45.62562 -11.22531,-5.76569 -29.82528,-7.65877 -44.62598,-4.54196 -21.12009,4.44758 -35.47781,20.40519 -36.95672,41.07484 -0.87495,12.22859 1.23324,19.63227 11.83464,41.56165 l 9.53262,19.71859 31.04522,0 31.04522,0 0,9.375 0,9.375 -26.04166,0 c -14.32293,0 -26.33791,0.29624 -26.69997,0.6583 -0.36207,0.36206 0.16387,4.15894 1.16876,8.4375 2.39394,10.19286 1.42376,26.45721 -2.19955,36.87365 -4.92417,14.1561 -16.99191,30.0653 -33.72758,44.4637 l -6.875,5.9148 7.32679,-3.2198 c 13.88269,-6.1009 27.72354,-9.3781 39.60632,-9.3781 12.19963,0 20.27025,1.4706 44.21746,8.0576 23.33272,6.4179 30.61229,5.971 44.32387,-2.721 3.69843,-2.3445 7.15082,-3.8013 7.67196,-3.2372 2.60167,2.8159 14.73345,23.536 14.24411,24.3277 -1.45857,2.36 -18.18957,12.2877 -24.83624,14.7371 -9.77012,3.6005 -24.87427,4.3996 -35.98902,1.9042 z"
         style="fill:#8e8e8e" />
      <path
         id="path4199"
         d="m 861.94167,1085.516 c -4.13744,-0.9448 -15.94994,-4.2529 -26.25,-7.3513 -10.30006,-3.0985 -23.22343,-6.3134 -28.7186,-7.1442 -17.59445,-2.6603 -33.93413,0.4428 -50.20024,9.5336 l -7.69145,4.2986 -8.25852,-11.8451 c -4.54218,-6.5149 -8.50282,-12.5797 -8.80141,-13.4774 -0.30436,-0.9151 3.04503,-4.3783 7.62312,-7.8822 15.62333,-11.9576 28.7834,-28.437 34.2931,-42.9428 1.6981,-4.4707 2.86871,-10.95146 3.19392,-17.68225 0.44237,-9.15593 0.0265,-12.09408 -3.00754,-21.25 l -3.5209,-10.625 -20.88193,-0.34272 -20.88193,-0.34273 0,-9.34477 0,-9.34478 14.375,0 c 7.90625,0 14.375,-0.21518 14.375,-0.47816 0,-0.26299 -3.31452,-7.43487 -7.36561,-15.9375 -8.05898,-16.91464 -9.58815,-22.02282 -10.80206,-36.08434 -2.77987,-32.20097 19.77315,-64.4368 52.69385,-75.31721 13.07981,-4.32292 30.49846,-6.41701 45.81818,-5.5083 24.86098,1.47466 40.38843,7.59034 54.16908,21.33517 9.69307,9.66788 14.90316,18.58067 19.09147,32.65939 2.16029,7.26164 5.14509,25.52731 5.14509,31.48566 0,1.21776 -4.14148,1.59529 -17.5,1.59529 l -17.5,0 -0.0185,-5.9375 c -0.01,-3.26562 -0.8499,-9.4639 -1.86608,-13.77395 -6.05873,-25.69773 -22.46631,-37.78337 -51.24042,-37.74316 -13.22256,0.0185 -19.74965,1.33687 -28.96978,5.85152 -17.77917,8.70561 -27.52795,30.59254 -23.00992,51.65941 0.79696,3.71608 5.7387,15.62987 10.98164,26.47509 l 9.53262,19.71859 31.04522,0 31.04522,0 0,9.375 0,9.375 -26.04166,0 c -14.32293,0 -26.32123,0.27955 -26.66291,0.62124 -0.34168,0.34167 0.17911,4.4198 1.15731,9.0625 5.93181,28.15327 -5.41227,53.87951 -35.32774,80.11661 l -7.5,6.5779 7.32679,-3.235 c 13.81503,-6.0996 27.70245,-9.3932 39.60632,-9.3932 12.19963,0 20.27025,1.4706 44.21746,8.0576 23.33272,6.4179 30.61229,5.971 44.32387,-2.721 3.69843,-2.3445 7.15082,-3.8013 7.67196,-3.2372 2.60167,2.8159 14.73345,23.536 14.24411,24.3277 -1.65307,2.6747 -18.4818,12.4604 -25.51551,14.8369 -10.12397,3.4206 -24.46983,4.246 -34.39762,1.979 z"
         style="fill:#888888" />
      <path
         id="path4197"
         d="m 861.71496,1085.39 c -4.26212,-0.9264 -15.32429,-3.9935 -24.58259,-6.8158 -37.99427,-11.5824 -54.01076,-11.4997 -77.24727,0.3987 l -10.82918,5.5451 -8.27559,-11.7554 c -4.55157,-6.4655 -8.50648,-12.4551 -8.78868,-13.3101 -0.2822,-0.855 3.16161,-4.367 7.65292,-7.8045 15.5288,-11.8853 28.59511,-28.2037 34.38466,-42.9428 4.17,-10.61599 4.02137,-28.91534 -0.33146,-40.80725 l -3.20278,-8.75 -20.82785,-0.34272 -20.82785,-0.34273 0,-9.34477 0,-9.34478 14.375,0 c 7.90625,0 14.375,-0.21518 14.375,-0.47816 0,-0.26299 -3.35457,-7.43487 -7.4546,-15.9375 -7.45812,-15.46665 -11.33233,-29.96377 -11.2737,-42.18558 0.037,-7.70454 3.53898,-21.67174 7.40254,-29.52376 15.25618,-31.00561 49.15858,-47.72213 91.67012,-45.20051 22.66129,1.34418 39.34272,7.41517 51.93887,18.90246 15.20503,13.86652 23.19795,32.40956 25.74877,59.73555 l 0.78762,8.4375 -17.53481,0 -17.53481,0 -0.0185,-5.9375 c -0.025,-8.03683 -3.04286,-20.28659 -6.84749,-27.79466 -5.92359,-11.68964 -16.36226,-19.32427 -30.81584,-22.53807 -10.52626,-2.34054 -31.06475,-1.02373 -40.23125,2.5794 -15.96281,6.27459 -26.92923,21.63321 -28.06321,39.30292 -0.80819,12.59337 0.76777,18.02605 11.87926,40.95041 l 9.54258,19.6875 31.02722,0 31.02723,0 0,9.375 0,9.375 -26.04166,0 c -14.32293,0 -26.34364,0.30197 -26.71272,0.67105 -0.36907,0.36908 0.14583,4.4472 1.14424,9.0625 6.01599,27.8099 -4.72112,52.5271 -34.39329,79.1746 l -7.83145,7.0331 10.35494,-4.1908 c 21.93719,-8.8783 42.42788,-10.2332 64.10494,-4.2388 40.85843,11.2987 46.47469,11.404 61.37626,1.1515 3.14809,-2.166 6.17241,-3.4544 6.72074,-2.8631 0.54831,0.5912 4.14572,6.1375 7.99425,12.325 l 6.99731,11.25 -4.04427,3.4039 c -6.71498,5.6517 -20.39027,12.2396 -29.3477,14.1377 -10.27614,2.1776 -17.25613,2.165 -27.44592,-0.05 z"
         style="fill:#828282" />
      <path
         id="path4195"
         d="m 861.71496,1085.39 c -4.26212,-0.9264 -15.32429,-3.9935 -24.58259,-6.8158 -37.99427,-11.5824 -54.01076,-11.4997 -77.24727,0.3987 l -10.82918,5.5451 -8.27559,-11.7554 c -4.55157,-6.4655 -8.50648,-12.4551 -8.78868,-13.3101 -0.2822,-0.855 3.16161,-4.367 7.65292,-7.8045 15.5288,-11.8853 28.59511,-28.2037 34.38466,-42.9428 4.17,-10.61599 4.02137,-28.91534 -0.33146,-40.80725 l -3.20278,-8.75 -20.82785,-0.34272 -20.82785,-0.34273 0,-9.34477 0,-9.34478 14.375,0 c 7.90625,0 14.375,-0.21518 14.375,-0.47816 0,-0.26299 -3.3563,-7.43487 -7.45844,-15.9375 -16.84415,-34.91339 -14.44752,-62.32948 7.7754,-88.94628 11.38372,-13.63449 30.23513,-23.27502 51.89791,-26.54036 51.5816,-7.77517 88.19544,10.64026 100.85947,50.72867 2.27526,7.20245 5.67566,27.72186 5.67566,34.24936 0,0.37085 -7.875,0.67427 -17.5,0.67427 l -17.5,0 -0.0185,-5.9375 c -0.025,-8.03683 -3.04286,-20.28659 -6.84749,-27.79466 -5.92359,-11.68964 -16.36226,-19.32427 -30.81584,-22.53807 -10.29828,-2.28985 -31.04012,-1.03491 -40.07024,2.42437 -15.83965,6.0679 -27.09082,21.79721 -28.22422,39.45795 -0.80819,12.59337 0.76777,18.02605 11.87926,40.95041 l 9.54258,19.6875 31.02722,0 31.02723,0 0,9.375 0,9.375 -26.04166,0 c -14.32293,0 -26.34364,0.30197 -26.71272,0.67105 -0.36907,0.36908 0.14583,4.4472 1.14424,9.0625 3.903,18.04229 -0.01,36.5536 -11.35567,53.7208 -6.08283,9.2039 -11.05125,14.6889 -23.14249,25.5487 l -7.93632,7.128 8.91815,-3.747 c 26.62933,-11.1884 43.75416,-11.4303 78.87647,-1.114 23.78286,6.9855 35.18624,6.3821 48.16729,-2.5491 3.16712,-2.1791 6.13529,-3.585 6.59591,-3.1244 0.46064,0.4606 4.05011,5.9992 7.97662,12.308 l 7.1391,11.4705 -4.00196,3.4039 c -6.60425,5.6173 -20.318,12.2332 -29.30537,14.1377 -10.27614,2.1776 -17.25613,2.165 -27.44592,-0.05 z"
         style="fill:#7d7d7d" />
      <path
         id="path4193"
         d="m 859.46429,1084.768 c -5.5,-1.2619 -16.26925,-4.2754 -23.93166,-6.6967 -34.81168,-11.0005 -52.82314,-10.7858 -75.64753,0.9016 l -10.82918,5.5451 -8.27559,-11.7554 c -4.55157,-6.4655 -8.51723,-12.4551 -8.81257,-13.3101 -0.29533,-0.855 2.87334,-4.0858 7.0415,-7.1795 15.04389,-11.1661 29.22016,-28.8026 35.01997,-43.5678 4.15359,-10.5742 4.03716,-28.90069 -0.25924,-40.80725 l -3.15738,-8.75 -20.88666,-0.34272 -20.88666,-0.34273 0,-9.34477 0,-9.34478 14.375,0 c 7.90625,0 14.375,-0.23759 14.375,-0.52797 0,-0.29039 -3.0888,-6.89977 -6.86401,-14.68751 -8.75231,-18.05483 -11.0562,-27.01155 -11.03738,-42.90952 0.0221,-18.68904 4.67908,-30.81211 17.92626,-46.66599 16.79853,-20.10402 47.23501,-30.728 81.43003,-28.42348 21.63882,1.45832 38.75931,7.79809 50.87576,18.83947 15.15155,13.80716 23.15314,32.38966 25.70134,59.6875 l 0.78762,8.4375 -17.53481,0 -17.53481,0 0,-5.45439 c 0,-13.95312 -6.12478,-30.58705 -14.2567,-38.71897 -5.64627,-5.64628 -14.13934,-10.03215 -23.4251,-12.09687 -10.29829,-2.28985 -31.04013,-1.03491 -40.07024,2.42437 -15.83968,6.0679 -27.09085,21.79721 -28.22425,39.45795 -0.80819,12.59337 0.76777,18.02605 11.87926,40.95041 l 9.54258,19.6875 31.02722,0 31.02723,0 0,9.375 0,9.375 -26.04166,0 c -14.32293,0 -26.34364,0.30197 -26.71272,0.67105 -0.36907,0.36908 0.14583,4.4472 1.14424,9.0625 6.22748,28.78753 -6.31822,55.5424 -39.01486,83.2028 -3.58979,3.0369 -3.29606,2.9898 6.875,-1.1021 25.23087,-10.1506 42.02415,-10.5661 73.125,-1.8093 29.40614,8.2797 38.9573,8.0427 52.54229,-1.304 3.16712,-2.1791 6.13529,-3.585 6.59591,-3.1244 0.46064,0.4606 4.05011,5.9992 7.97662,12.308 l 7.1391,11.4705 -4.00196,3.4039 c -6.60425,5.6173 -20.318,12.2332 -29.30537,14.1377 -10.87362,2.3043 -17.36539,2.1574 -29.69659,-0.6716 z"
         style="fill:#777777" />
      <path
         id="path4191"
         d="m 860.08929,1084.8041 c -5.84375,-1.2611 -16.89425,-4.2825 -24.55666,-6.7141 -34.7301,-11.0213 -52.81181,-10.8103 -75.64753,0.8829 l -10.82918,5.5451 -8.27559,-11.7554 c -4.55157,-6.4655 -8.51723,-12.4551 -8.81257,-13.3101 -0.29533,-0.855 2.87334,-4.0858 7.0415,-7.1795 15.04389,-11.1661 29.22016,-28.8026 35.01997,-43.5678 4.15359,-10.5742 4.03716,-28.90069 -0.25924,-40.80725 l -3.15738,-8.75 -20.88666,-0.34272 -20.88666,-0.34273 0,-9.34477 0,-9.34478 14.375,0 c 7.90625,0 14.375,-0.23759 14.375,-0.52797 0,-0.29039 -3.0888,-6.89977 -6.86401,-14.68751 -8.75231,-18.05483 -11.0562,-27.01155 -11.03738,-42.90952 0.0114,-9.67362 0.64864,-14.33715 2.81803,-20.625 9.46042,-27.42049 32.59901,-46.69859 63.20836,-52.66253 14.14361,-2.75575 41.67435,-2.12647 53.59867,1.22513 13.54496,3.8071 22.52228,8.44504 30.60699,15.8124 15.11105,13.77025 23.06933,32.26438 25.68438,59.6875 l 0.80458,8.4375 -17.53481,0 -17.53481,0 0,-5.45439 c 0,-14.06144 -6.12966,-30.59193 -14.41666,-38.87894 -2.60527,-2.60526 -8.44293,-6.49293 -12.97259,-8.63925 -8.01948,-3.79994 -8.6953,-3.90144 -25.73575,-3.86526 -15.22611,0.0323 -18.42606,0.40652 -24.62704,2.87969 -15.9763,6.37194 -27.09402,21.95892 -28.22425,39.57024 -0.80819,12.59337 0.76777,18.02605 11.87926,40.95041 l 9.54258,19.6875 31.02722,0 31.02723,0 0,9.375 0,9.375 -26.04166,0 c -14.32293,0 -26.34364,0.30197 -26.71272,0.67105 -0.36907,0.36908 0.14583,4.4472 1.14424,9.0625 1.13786,5.25996 1.59377,12.12321 1.2217,18.39145 -1.16862,19.68755 -10.50685,36.65215 -30.79274,55.94075 l -12.36882,11.7607 10.2125,-4.1334 c 24.69764,-9.996 41.74604,-10.3871 72.7125,-1.6681 29.40614,8.2797 38.9573,8.0427 52.54229,-1.304 3.16712,-2.1791 6.13529,-3.585 6.59591,-3.1244 0.46064,0.4606 4.05011,5.9992 7.97662,12.308 l 7.1391,11.4705 -4.00196,3.4039 c -10.30217,8.7626 -29.89491,16.0317 -42.75196,15.8614 -2.75,-0.036 -9.78125,-1.0981 -15.625,-2.3592 z"
         style="fill:#727272" />
      <path
         id="path4189"
         d="m 862.5161,1085.476 c -4.50901,-0.9389 -15.60305,-3.9878 -24.65344,-6.7754 -37.88071,-11.6677 -54.54949,-11.6188 -78.03584,0.2286 l -10.88747,5.4921 -8.32764,-11.9946 c -4.5802,-6.5971 -8.51963,-12.5648 -8.75428,-13.2617 -0.23465,-0.6969 2.98367,-3.7983 7.15183,-6.892 9.52149,-7.0672 21.26094,-19.5116 27.47278,-29.1225 7.2687,-11.2461 10.07407,-19.8429 10.68801,-32.75255 0.4734,-9.95457 0.12869,-12.40149 -2.99365,-21.25 l -3.52866,-10 -20.90423,-0.34272 -20.90422,-0.34273 0,-9.34477 0,-9.34478 14.375,0 c 7.90625,0 14.375,-0.23759 14.375,-0.52797 0,-0.29039 -3.0888,-6.89977 -6.86401,-14.68751 -8.6942,-17.93496 -11.00269,-26.95393 -10.98307,-42.90952 0.0173,-14.04032 2.70406,-24.0951 9.33043,-34.91716 12.01938,-19.62982 28.49431,-31.43002 51.91029,-37.18084 15.4078,-3.78406 44.11227,-3.7878 58.11495,-0.008 13.19251,3.56151 22.69548,8.45005 30.82207,15.85558 15.28479,13.92858 22.88357,31.81102 25.62858,60.3125 l 0.75244,7.8125 -17.30223,0 -17.30221,0 -0.68285,-9.6875 c -1.17171,-16.62296 -8.97292,-32.47963 -19.3318,-39.29368 -9.9103,-6.51897 -15.90339,-7.89775 -34.09259,-7.84338 -14.52214,0.0434 -17.86871,0.44491 -24.00204,2.87969 -15.95996,6.33569 -27.09365,21.93983 -28.22425,39.55696 -0.80819,12.59337 0.76777,18.02605 11.87926,40.95041 l 9.54258,19.6875 31.02722,0 31.02723,0 0,9.375 0,9.375 -26.89881,0 -26.89882,0 0.6387,2.8125 c 2.5745,11.33669 3.09923,14.86947 3.1099,20.9375 0.0178,10.13219 -3.08129,21.53617 -8.96317,32.98247 -4.25138,8.2733 -7.87613,12.8071 -19.66783,24.6003 l -14.45589,14.4577 10.00546,-4.1135 c 24.61326,-10.119 41.03091,-10.3724 74.38046,-1.1481 28.59091,7.9081 36.86013,7.6418 50.59724,-1.6293 3.27362,-2.2093 6.30111,-3.6679 6.72776,-3.2412 0.42664,0.4266 3.99254,5.9374 7.92421,12.2462 l 7.14849,11.4705 -3.08135,2.5529 c -5.53145,4.5829 -16.98816,11.0181 -23.57391,13.2414 -9.09525,3.0705 -23.4454,3.8388 -33.31563,1.7837 z"
         style="fill:#686868" />
      <path
         id="path4187"
         d="m 862.58929,1085.3804 c -4.46875,-0.9117 -15.70365,-3.9547 -24.96645,-6.7623 -38.23,-11.5875 -54.3242,-11.5287 -77.74323,0.2842 l -10.83467,5.4652 -8.36895,-11.9378 c -4.60291,-6.5658 -8.5661,-12.5214 -8.80707,-13.2348 -0.24097,-0.7133 2.97218,-3.8282 7.14034,-6.9219 9.52149,-7.0672 21.26094,-19.5116 27.47278,-29.1225 7.2687,-11.2461 10.07407,-19.8429 10.68801,-32.75255 0.4734,-9.95457 0.12869,-12.40149 -2.99365,-21.25 l -3.52866,-10 -20.90423,-0.34272 -20.90422,-0.34273 0,-9.34477 0,-9.34478 14.375,0 c 7.90625,0 14.375,-0.23759 14.375,-0.52797 0,-0.29039 -3.0888,-6.89977 -6.86401,-14.68751 -8.6942,-17.93496 -11.00269,-26.95393 -10.98307,-42.90952 0.0118,-9.6114 0.65682,-14.37759 2.79116,-20.625 8.70561,-25.48217 30.36332,-44.57796 58.35252,-51.44996 15.46528,-3.79707 44.16919,-3.82219 58.13281,-0.0509 30.25241,8.17063 47.99298,27.80388 54.05214,59.81879 1.02084,5.39387 2.17878,13.04142 2.57319,16.99454 l 0.7171,7.1875 -17.3323,0 -17.3323,0 -0.71105,-9.6875 c -1.68096,-22.90183 -11.70133,-37.73379 -30.27119,-44.80692 -9.66161,-3.68004 -37.28389,-3.35794 -47.12704,0.54955 -16.04079,6.36778 -27.43119,22.40866 -28.31309,39.87275 -0.63312,12.53755 0.94274,17.88796 11.9681,40.63462 l 9.54258,19.6875 30.71472,0 30.71473,0 0,9.375 0,9.375 -26.69624,0 c -23.30645,0 -26.60417,0.2399 -25.97123,1.88934 0.39876,1.03912 1.4162,6.66986 2.26099,12.51272 2.13914,14.79499 0.28667,25.13389 -7.27411,40.59802 -5.19287,10.6209 -7.34657,13.4097 -20.39468,26.4087 l -14.58868,14.5337 8.64895,-3.6805 c 18.50408,-7.8742 36.8267,-10.3336 53.71996,-7.2107 3.87151,0.7157 13.9592,3.2994 22.41708,5.7416 17.01484,4.913 30.26951,6.4437 37.87796,4.3743 2.75,-0.748 8.04045,-3.3667 11.75655,-5.8195 3.71611,-2.4527 7.14866,-4.0125 7.6279,-3.4661 0.47925,0.5464 4.04166,6.18 7.91647,12.5192 l 7.04514,11.5258 -7.58757,5.1526 c -10.44679,7.0943 -19.05555,10.8061 -28.63349,12.3458 -10.0379,1.6137 -13.45956,1.5319 -23.75,-0.5675 z"
         style="fill:#646464" />
      <path
         id="path4185"
         d="m 862.58929,1085.4377 c -4.46875,-0.9598 -15.64072,-4.0236 -24.82663,-6.8082 -19.71268,-5.9758 -33.97946,-8.8565 -43.8615,-8.8565 -10.09195,0 -25.15526,4.1589 -35.738,9.8672 l -9.02109,4.8659 -8.41751,-12.0071 c -4.62963,-6.6039 -8.61467,-12.5907 -8.85564,-13.3041 -0.24097,-0.7133 2.97218,-3.8282 7.14034,-6.9219 9.52149,-7.0672 21.26094,-19.5116 27.47278,-29.1225 7.2687,-11.2461 10.07407,-19.8429 10.68801,-32.75255 0.4734,-9.95457 0.12869,-12.40149 -2.99365,-21.25 l -3.52866,-10 -20.90423,-0.34272 -20.90422,-0.34273 0,-9.34477 0,-9.34478 14.375,0 c 7.90625,0 14.375,-0.23759 14.375,-0.52797 0,-0.29039 -3.0888,-6.89977 -6.86401,-14.68751 -8.61942,-17.78069 -10.94632,-26.89403 -10.95606,-42.90952 -0.006,-9.65168 0.62444,-14.35141 2.76617,-20.625 8.69739,-25.47664 30.36036,-44.57773 58.3505,-51.44996 15.57175,-3.82321 44.15942,-3.82356 58.329,-6.9e-4 32.07416,8.65341 51.92231,33.12105 55.25912,68.12027 0.40405,4.23796 1.01452,9.53351 1.3566,11.76788 l 0.62197,4.0625 -17.37803,0 -17.37802,0 -0.71105,-9.6875 c -1.77404,-24.16989 -13.57349,-40.20112 -33.84285,-45.98034 -10.5837,-3.01763 -33.71552,-2.07943 -43.55538,1.76656 -15.98724,6.24874 -27.43023,22.34606 -28.31309,39.82916 -0.63312,12.53755 0.94274,17.88796 11.9681,40.63462 l 9.54258,19.6875 30.71472,-0.003 30.71473,-0.002 -0.41125,9.37791 -0.41126,9.37791 -26.28498,0 c -22.93951,0 -26.19271,0.24048 -25.55998,1.88934 0.39876,1.03913 1.4162,6.66987 2.26099,12.51273 2.12566,14.70182 0.27608,25.1718 -7.09948,40.18826 -5.92253,12.0581 -18.33728,26.8018 -31.04379,36.8673 -3.32736,2.635 -5.77688,4.7916 -5.44338,4.7916 0.3335,0 4.66102,-1.7255 9.61672,-3.8343 18.87513,-8.0321 37.06831,-10.5095 54.08137,-7.3645 3.87151,0.7157 13.9592,3.2994 22.41708,5.7416 17.01484,4.913 30.26951,6.4437 37.87796,4.3743 2.75,-0.748 8.04045,-3.3667 11.75655,-5.8195 3.71611,-2.4527 7.14866,-4.0125 7.6279,-3.4661 0.47925,0.5464 4.04166,6.18 7.91647,12.5192 l 7.04514,11.5258 -7.17304,4.856 c -3.94516,2.6709 -9.05878,5.8254 -11.36361,7.0101 -11.41992,5.87 -28.26075,7.9518 -41.43441,5.1221 z"
         style="fill:#5e5e5e" />
      <path
         id="path4183"
         d="m 862.62368,1085.3932 c -4.44984,-1.0047 -15.69984,-4.089 -25,-6.8541 -22.08678,-6.5666 -32.57853,-8.7179 -42.64694,-8.7444 -11.05918,-0.029 -25.83057,3.9213 -36.81358,9.8455 l -9.02109,4.8659 -8.41751,-12.0071 c -4.62963,-6.6039 -8.61467,-12.5907 -8.85564,-13.3041 -0.24097,-0.7133 2.97736,-3.8282 7.15185,-6.9219 9.81835,-7.2765 23.02423,-21.4767 28.55419,-30.7042 10.61167,-17.7069 12.69998,-34.4961 6.52033,-52.42085 l -3.44755,-10 -20.90423,-0.34272 -20.90422,-0.34273 0,-9.34477 0,-9.34478 14.375,0 c 7.90625,0 14.375,-0.21209 14.375,-0.47131 0,-0.25921 -3.07252,-6.86859 -6.82783,-14.6875 -8.66309,-18.0374 -10.97827,-27.07388 -11.0081,-42.96619 -0.0383,-20.42632 6.78609,-35.67522 23.27852,-52.01488 9.22332,-9.13789 25.04103,-17.26762 40.18241,-20.6523 14.46339,-3.23313 42.78435,-2.95381 55.80441,0.55037 24.11254,6.4896 41.63604,21.77856 49.71723,43.3775 2.91475,7.79034 6.01991,23.27908 6.70137,33.42681 l 0.48268,7.1875 -17.11173,0 -17.11172,0 -0.67288,-9.6875 c -1.66741,-24.00595 -13.59812,-40.19726 -33.88102,-45.98034 -10.5837,-3.01763 -33.71551,-2.07943 -43.55538,1.76656 -9.38068,3.66651 -18.32744,11.88961 -23.50508,21.60385 -3.43253,6.44009 -4.28999,9.60674 -4.74918,17.5388 -0.76215,13.16581 0.76508,18.46628 11.90589,41.32113 l 9.59686,19.6875 30.68928,-0.003 30.68927,-0.002 -0.41125,9.37791 -0.41126,9.37791 -26.28498,0 c -22.93951,0 -26.19271,0.24048 -25.55998,1.88934 0.39876,1.03913 1.4162,6.66987 2.26099,12.51273 2.12566,14.70182 0.27608,25.1718 -7.09948,40.18826 -5.93248,12.0784 -18.18635,26.6217 -31.24404,37.0815 -3.4375,2.7536 -5.40625,4.681 -4.375,4.2831 1.03125,-0.3979 6.9375,-2.693 13.125,-5.1002 6.1875,-2.4072 14.79982,-5.0704 19.13848,-5.9183 10.05534,-1.965 29.15649,-0.8497 40.86152,2.3859 32.8442,9.0792 33.57631,9.2275 42.66779,8.644 8.69181,-0.5578 12.29087,-1.9728 23.7135,-9.3232 2.49942,-1.6083 3.01176,-1.0714 10.22287,10.7136 l 7.59158,12.4068 -7.09787,4.9495 c -3.90383,2.7222 -8.98363,5.9134 -11.28846,7.0916 -11.59475,5.9268 -28.45058,7.9892 -41.40002,5.0656 z"
         style="fill:#585858" />
      <path
         id="path4181"
         d="m 862.7857,1085.4294 c -4.36073,-0.9882 -15.61073,-4.0803 -25,-6.8712 -22.13495,-6.5795 -32.67337,-8.7368 -42.80896,-8.7635 -11.05918,-0.029 -25.83057,3.9213 -36.81358,9.8455 l -9.02109,4.8659 -8.41751,-12.0071 c -4.62963,-6.6039 -8.64638,-12.6035 -8.9261,-13.3325 -0.27973,-0.7289 1.30827,-2.3986 3.52888,-3.7103 6.71299,-3.9655 27.59548,-25.8118 32.24762,-33.736 10.64644,-18.1346 12.69593,-34.65922 6.52033,-52.57225 l -3.44755,-10 -20.90423,-0.34272 -20.90422,-0.34273 0,-9.34477 0,-9.34478 14.375,0 c 7.90625,0 14.375,-0.29249 14.375,-0.64998 0,-0.35748 -2.50159,-5.63095 -5.5591,-11.7188 -14.55884,-28.98838 -16.3768,-52.41399 -5.7821,-74.50622 10.70588,-22.32408 28.31331,-36.3015 54.4662,-43.23725 14.24175,-3.77692 44.48119,-3.84255 58.30441,-0.12655 33.75368,9.07376 52.77554,33.91187 55.89778,72.98948 l 0.87883,10.99932 -17.0494,0 -17.04938,0 -0.67288,-9.6875 c -1.66741,-24.00595 -13.59812,-40.19726 -33.88102,-45.98034 -10.5837,-3.01763 -33.71551,-2.07943 -43.55538,1.76656 -9.38999,3.67015 -18.32843,11.89162 -23.52232,21.63554 -3.52953,6.62155 -4.29149,9.51757 -4.7372,18.00494 -0.69024,13.14406 1.26921,19.76011 12.60687,42.56709 l 8.92007,17.94371 30.36731,0 30.36731,0 0,9.375 0,9.375 -26.38374,0 c -22.20939,0 -26.27656,0.27929 -25.70635,1.76523 0.37255,0.97086 1.37556,6.32605 2.22889,11.90038 3.36774,21.99948 -4.28603,43.48624 -22.33247,62.69484 -5.32473,5.6677 -12.49383,12.5578 -15.93133,15.3114 -3.4375,2.7536 -5.40625,4.681 -4.375,4.2831 1.03125,-0.3979 6.96186,-2.7076 13.17914,-5.1326 23.68067,-9.2366 38.43383,-9.2789 71.71847,-0.2057 30.0265,8.1851 36.93037,7.7352 53.98368,-3.5179 l 3.2563,-2.1488 7.62969,12.4691 7.62967,12.469 -9.22864,6.1725 c -15.94701,10.666 -34.07562,14.5617 -50.4719,10.8459 z"
         style="fill:#515151" />
      <path
         id="path4179"
         d="m 868.21429,1086.449 c -5.81843,-0.9121 -17.40169,-3.9722 -33.125,-8.751 -35.54227,-10.8024 -54.17955,-10.3272 -76.96381,1.9625 l -9.05877,4.8862 -8.99256,-13.0913 c -4.94591,-7.2003 -8.79396,-13.219 -8.55121,-13.375 9.18029,-5.8986 23.20021,-18.9459 30.4177,-28.3074 15.36318,-19.9271 19.31736,-39.61828 12.1741,-60.62505 l -3.40045,-10 -20.9375,-0.34272 -20.9375,-0.34273 0,-9.34477 0,-9.34478 14.375,0 c 7.90625,0 14.375,-0.21209 14.375,-0.47131 0,-0.25921 -3.05782,-6.86859 -6.79515,-14.6875 -8.29783,-17.35996 -10.80611,-26.76614 -10.94067,-41.02809 -0.19644,-20.82126 5.77475,-35.36279 21.11375,-51.41794 10.90514,-11.41429 22.56424,-18.02441 39.74707,-22.53459 14.2773,-3.74754 44.54164,-3.79912 58.30441,-0.0994 14.28956,3.84136 24.26507,9.42344 33.67614,18.84445 13.24342,13.25741 20.4968,30.92618 21.99643,53.58185 l 0.76533,11.5625 -16.88004,0 -16.88003,0 -0.67288,-9.6875 c -1.66741,-24.00595 -13.59812,-40.19726 -33.88102,-45.98034 -5.59378,-1.5949 -10.75616,-1.96148 -21.875,-1.55333 -17.89766,0.65699 -25.92871,3.41381 -35.54321,12.20092 -9.33997,8.5362 -13.66651,17.79405 -14.37508,30.75945 -0.71722,13.12399 1.27656,19.90041 12.56032,42.68969 l 8.82384,17.82111 30.4279,0 30.42789,0 0,9.375 0,9.375 -26.39579,0 -26.39579,0 0.7868,2.8125 c 7.53796,26.94536 0.51716,51.76348 -21.03577,74.36008 -5.74566,6.0238 -12.74248,12.64 -15.5485,14.7025 -6.91595,5.0834 -6.46481,6.0282 1.12911,2.3648 12.31508,-5.941 25.08935,-9.4479 37.00388,-10.1588 13.19809,-0.7874 19.50847,0.223 45.35168,7.2612 26.99578,7.3521 35.37439,6.6716 51.45999,-4.1794 l 3.23062,-2.1793 7.63744,12.4643 7.63744,12.4642 -9.21071,6.1605 c -5.0659,3.3883 -12.76902,7.3294 -17.11806,8.758 -8.13847,2.6734 -21.29273,4.1325 -27.90734,3.0955 z"
         style="fill:#4a4a4a" />
      <path
         id="path4177"
         d="m 869.46429,1086.5466 c -1.375,-0.3015 -5.59375,-1.1767 -9.375,-1.9447 -3.78125,-0.7681 -14.75,-3.7937 -24.375,-6.7235 -36.83365,-11.2122 -55.03651,-10.6534 -78.8199,2.4196 l -7.73399,4.2511 -9.03211,-13.0998 c -4.96766,-7.205 -8.83678,-13.2242 -8.59805,-13.3762 8.9785,-5.715 23.20502,-18.9543 30.4104,-28.3001 15.36318,-19.9271 19.31736,-39.61828 12.1741,-60.62505 l -3.40045,-10 -20.9375,-0.34272 -20.9375,-0.34273 0,-9.34477 0,-9.34478 14.375,0 c 7.90625,0 14.375,-0.21209 14.375,-0.47131 0,-0.25921 -3.07243,-6.86859 -6.82763,-14.6875 -8.06123,-16.78475 -10.77942,-27.40724 -10.85067,-42.40366 -0.0964,-20.28529 6.33478,-35.12822 22.03108,-50.84702 11.55543,-11.57199 21.44466,-17.10749 38.77222,-21.70276 14.24175,-3.77692 44.48119,-3.84255 58.30441,-0.12655 14.28956,3.84136 24.26507,9.42344 33.67614,18.84445 13.24342,13.25741 20.4968,30.92618 21.99643,53.58185 l 0.76533,11.5625 -16.88004,0 -16.88003,0 -0.67288,-9.6875 c -1.65559,-23.83573 -12.84536,-39.52423 -32.43434,-45.4742 -7.19045,-2.18403 -10.90389,-2.51392 -23.21724,-2.06255 -18.01112,0.66023 -26.01511,3.4004 -35.64765,12.204 -9.5701,8.74653 -13.69283,17.7598 -14.38305,31.44473 -0.67205,13.32492 0.66444,17.7886 12.57934,42.01302 l 8.76117,17.8125 30.4537,0 30.45371,0 0,9.375 0,9.375 -26.39579,0 -26.39579,0 0.7868,2.8125 c 7.53795,26.94536 0.51716,51.76345 -21.03577,74.36005 -5.74566,6.0238 -12.74248,12.64 -15.5485,14.7025 -2.80602,2.0625 -5.11515,4.2407 -5.1314,4.8405 -0.0163,0.5998 0.67357,0.5443 1.53295,-0.1234 3.14321,-2.4419 20.55337,-8.8766 29.30926,-10.8325 16.98943,-3.7951 27.88468,-2.6905 59.65381,6.0479 24.89893,6.8487 33.77463,6.0172 49.58004,-4.6447 l 3.23062,-2.1793 7.63744,12.4642 7.63744,12.4642 -9.21071,6.1606 c -5.0659,3.3882 -12.76903,7.3138 -17.11806,8.7234 -7.90462,2.562 -21.94223,4.2616 -26.65734,3.2276 z"
         style="fill:#464646" />
      <path
         id="path4175"
         d="m 869.46429,1086.5466 c -1.375,-0.3015 -5.59375,-1.1718 -9.375,-1.934 -3.78125,-0.7622 -13.90625,-3.5757 -22.5,-6.2523 -37.59054,-11.7079 -56.70479,-11.2489 -80.6949,1.9377 l -7.73399,4.2511 -9.03211,-13.0998 c -4.96766,-7.205 -8.83678,-13.2242 -8.59805,-13.3762 4.35688,-2.7732 12.05369,-9.1018 18.24982,-15.0056 25.23063,-24.0404 33.13313,-48.0452 24.33468,-73.91955 l -3.40045,-10 -20.9375,-0.34272 -20.9375,-0.34273 0,-9.34477 0,-9.34478 14.375,0 c 7.90625,0 14.375,-0.21209 14.375,-0.47131 0,-0.25921 -3.07243,-6.86859 -6.82763,-14.6875 -8.15782,-16.98586 -10.79113,-27.44506 -10.77097,-42.78096 0.0269,-20.43784 6.25,-34.74583 21.95138,-50.46972 11.55543,-11.57199 21.44466,-17.10749 38.77222,-21.70276 14.24175,-3.77692 44.48119,-3.84255 58.30441,-0.12655 14.28956,3.84136 24.26507,9.42344 33.67614,18.84445 13.24342,13.25741 20.4968,30.92618 21.99643,53.58185 l 0.76533,11.5625 -16.88004,0 -16.88003,0 -0.67288,-9.6875 c -1.65559,-23.83573 -12.84536,-39.52423 -32.43434,-45.4742 -7.19045,-2.18403 -10.90389,-2.51392 -23.21724,-2.06255 -18.01112,0.66023 -26.01511,3.4004 -35.64765,12.204 -9.5701,8.74653 -13.69283,17.7598 -14.38305,31.44473 -0.67017,13.28764 0.64264,17.68896 12.53154,42.01302 l 8.70624,17.8125 30.50506,0 30.50508,0 0,9.375 0,9.375 -26.39579,0 -26.39579,0 0.7868,2.8125 c 7.53796,26.94536 0.51716,51.76345 -21.03577,74.36005 -5.74566,6.0238 -12.74248,12.64 -15.5485,14.7025 -2.80602,2.0625 -5.11515,4.1352 -5.1314,4.6061 -0.0163,0.4709 4.15101,-1.0754 9.26059,-3.4361 5.10958,-2.3608 13.96895,-5.414 19.6875,-6.7849 17.96238,-4.3062 29.79142,-3.2437 61.54793,5.5285 24.88234,6.8734 33.76168,6.0449 49.58004,-4.6258 l 3.23062,-2.1793 7.63744,12.4643 7.63744,12.4642 -9.3606,6.2608 c -5.14834,3.4434 -12.8609,7.3418 -17.13904,8.6632 -7.9929,2.4688 -22.04995,4.1605 -26.48647,3.1876 z"
         style="fill:#434343" />
      <path
         id="path4173"
         d="m 869.46429,1086.5466 c -1.375,-0.3015 -5.59375,-1.1718 -9.375,-1.934 -3.78125,-0.7622 -13.90625,-3.5741 -22.5,-6.2486 -36.89229,-11.4818 -55.67014,-11.3387 -78.10347,0.5952 l -10.37443,5.5189 -8.87798,-12.8764 -8.87799,-12.8763 7.80443,-6.2158 c 14.07819,-11.2126 25.72457,-24.6089 31.62139,-36.3727 7.78596,-15.5326 8.86378,-30.72559 3.3335,-46.98895 l -3.40045,-10 -20.9375,-0.34272 -20.9375,-0.34273 0,-9.34477 0,-9.34478 14.375,0 c 7.90625,0 14.375,-0.21209 14.375,-0.47131 0,-0.25921 -3.07149,-6.86859 -6.82552,-14.6875 -8.33145,-17.35271 -10.64169,-26.69616 -10.62373,-42.96619 0.0231,-20.88916 6.98177,-36.37096 23.35437,-51.95894 14.30603,-13.62046 29.70104,-20.03236 53.90836,-22.45241 33.46885,-3.34594 59.58536,4.40219 76.82263,22.79141 12.1773,12.99109 19.04114,30.40819 20.46587,51.93244 l 0.76533,11.5625 -16.88004,0 -16.88003,0 -0.67288,-9.6875 c -2.20314,-31.71878 -19.94918,-47.8359 -52.62853,-47.79766 -19.5491,0.0229 -30.94205,4.06818 -41.03401,14.57002 -7.82456,8.14234 -11.42333,16.91653 -12.03376,29.33962 -0.65267,13.28252 0.66528,17.7215 12.47383,42.01302 l 8.65898,17.8125 30.56457,0 30.56456,0 0,9.375 0,9.375 -26.39579,0 -26.39579,0 0.73869,2.8125 c 5.1841,19.73803 3.82878,34.20229 -4.85932,51.86005 -4.44403,9.032 -7.95734,13.9333 -16.12834,22.5 -5.74566,6.0238 -12.74248,12.64 -15.5485,14.7025 -2.80602,2.0625 -5.11515,4.1352 -5.1314,4.6061 -0.0163,0.4709 4.15101,-1.0754 9.26059,-3.4361 5.10958,-2.3608 13.96895,-5.414 19.6875,-6.7849 17.96238,-4.3062 29.79142,-3.2437 61.54793,5.5285 24.88234,6.8734 33.76168,6.0449 49.58004,-4.6258 l 3.23062,-2.1793 7.63744,12.4643 7.63744,12.4642 -9.3606,6.2608 c -5.14834,3.4434 -12.8609,7.3418 -17.13904,8.6632 -7.9929,2.4688 -22.04995,4.1605 -26.48647,3.1876 z"
         style="fill:#3e3e3e" />
      <path
         id="path4171"
         d="m 869.46429,1086.5466 c -1.375,-0.3015 -5.59375,-1.1718 -9.375,-1.934 -3.78125,-0.7622 -13.90625,-3.5741 -22.5,-6.2486 -36.89229,-11.4818 -55.67014,-11.3387 -78.10347,0.5952 l -10.37443,5.5189 -8.87798,-12.8764 -8.87799,-12.8763 7.95014,-6.3261 c 10.16677,-8.09 22.34171,-21.1052 27.96351,-29.8935 6.66933,-10.4258 9.40274,-19.2658 9.92809,-32.10785 0.4005,-9.79009 0.01,-12.5477 -3.01132,-21.25 l -3.47155,-10 -20.9375,-0.34272 -20.9375,-0.34273 0,-9.34477 0,-9.34478 14.375,0 c 7.90625,0 14.375,-0.21209 14.375,-0.47131 0,-0.25921 -3.07149,-6.86859 -6.82552,-14.6875 -8.33145,-17.35271 -10.64169,-26.69616 -10.62373,-42.96619 0.0222,-20.13358 6.72353,-35.69568 21.75366,-50.51731 14.53448,-14.33288 31.0423,-21.44805 55.41421,-23.88456 33.57048,-3.3561 59.66016,4.37131 76.91749,22.78193 12.1773,12.99109 19.04114,30.40819 20.46587,51.93244 l 0.76533,11.5625 -16.88004,0 -16.88003,0 -0.67288,-9.6875 c -2.20314,-31.71878 -19.94918,-47.8359 -52.62853,-47.79766 -20.13723,0.0236 -30.96949,3.93046 -41.18873,14.85565 -8.2159,8.78347 -11.094,15.85943 -11.81752,29.05399 -0.72646,13.24828 0.53413,17.54294 12.3318,42.01302 l 8.58788,17.8125 30.64037,0 30.64037,0 0,9.375 0,9.375 -26.39579,0 -26.39579,0 0.73869,2.8125 c 5.12573,19.51581 3.7888,34.04802 -4.74723,51.60175 -4.27495,8.7911 -7.83221,13.77 -16.07554,22.5 -5.82219,6.1659 -12.88742,12.8983 -15.70052,14.9608 -2.8131,2.0625 -5.12802,4.1352 -5.14427,4.6061 -0.0163,0.4709 4.15101,-1.0754 9.26059,-3.4361 5.10958,-2.3608 13.96895,-5.414 19.6875,-6.7849 17.96238,-4.3062 29.79142,-3.2437 61.54793,5.5285 24.88234,6.8734 33.76168,6.0449 49.58004,-4.6258 l 3.23062,-2.1793 7.63744,12.4643 7.63744,12.4642 -9.3606,6.2608 c -5.14834,3.4434 -12.8609,7.3418 -17.13904,8.6632 -7.9929,2.4688 -22.04995,4.1605 -26.48647,3.1876 z"
         style="fill:#3d3d3d" />
      <path
         id="path4169"
         d="m 865.66415,1085.9804 c -3.46506,-0.6113 -14.89611,-3.6991 -25.40232,-6.8618 -41.16447,-12.392 -57.28233,-12.4244 -80.90157,-0.1628 l -10.35127,5.3737 -8.82679,-12.802 -8.82678,-12.8021 7.95014,-6.3261 c 10.16677,-8.09 22.34171,-21.1052 27.96351,-29.8935 6.66933,-10.4258 9.40274,-19.2658 9.92809,-32.10785 0.4005,-9.79009 0.01,-12.5477 -3.01132,-21.25 l -3.47155,-10 -20.9375,-0.34272 -20.9375,-0.34273 0,-9.34477 0,-9.34478 14.375,0 c 7.90625,0 14.375,-0.21209 14.375,-0.47131 0,-0.25921 -3.07149,-6.86859 -6.82552,-14.6875 -8.33145,-17.35271 -10.64169,-26.69616 -10.62373,-42.96619 0.0222,-20.13358 6.72353,-35.69568 21.75366,-50.51731 14.53448,-14.33288 31.0423,-21.44805 55.41421,-23.88456 33.40399,-3.33946 59.66279,4.3803 76.70428,22.55011 12.24097,13.05146 19.26254,30.76381 20.67908,52.16426 l 0.76533,11.5625 -16.88004,0 -16.88003,0 -0.71883,-9.6875 c -2.38282,-32.1135 -19.67945,-47.83616 -52.58258,-47.79766 -20.16722,0.0236 -30.96705,3.92785 -41.23751,14.9078 -8.34023,8.91638 -11.15566,15.82554 -11.81803,29.00184 -0.66606,13.24959 0.62396,17.62704 12.38109,42.01302 l 8.58788,17.8125 30.64037,0 30.64037,0 0,9.375 0,9.375 -26.39579,0 -26.39579,0 0.73869,2.8125 c 5.12211,19.50204 3.78747,34.05244 -4.72961,51.56255 -5.88185,12.0923 -19.45701,28.0817 -31.89441,37.5666 -3.44742,2.6291 -6.0551,4.993 -5.79485,5.2533 0.26025,0.2602 3.20098,-0.9054 6.53497,-2.5902 9.93439,-5.0203 26.66222,-9.779 36.96832,-10.5166 11.90248,-0.8519 24.24262,1.0605 43.26369,6.7045 9.17193,2.7216 18.57775,4.597 25.35849,5.0561 9.81749,0.6648 11.37812,0.4446 17.5,-2.469 3.69671,-1.7593 8.46221,-4.3646 10.59002,-5.7893 l 3.86872,-2.5906 7.57611,12.4884 7.5761,12.4883 -9.31237,6.2285 c -14.40229,9.6328 -32.36846,13.8999 -47.37743,11.2524 z"
         style="fill:#343434" />
      <path
         id="path4167"
         d="m 863.58255,1085.4256 c -4.60996,-0.9484 -15.95338,-4.0326 -25.20761,-6.8537 -38.65248,-11.783 -55.73783,-11.7 -79.01468,0.3839 l -10.35127,5.3737 -8.82679,-12.802 -8.82678,-12.8021 7.95014,-6.3261 c 10.16677,-8.09 22.34171,-21.1052 27.96351,-29.8935 6.66933,-10.4258 9.40274,-19.2658 9.92809,-32.10785 0.4005,-9.79009 0.01,-12.5477 -3.01132,-21.25 l -3.47155,-10 -20.9375,-0.34272 -20.9375,-0.34273 0,-9.34477 0,-9.34478 14.375,0 c 7.90625,0 14.375,-0.19899 14.375,-0.4422 0,-0.2432 -3.08713,-6.93682 -6.86028,-14.87472 -8.39362,-17.65831 -10.60685,-26.60578 -10.58897,-42.80808 0.023,-20.84205 6.98565,-36.37446 23.24476,-51.85483 14.42108,-13.73037 29.77013,-20.054 54.91339,-22.62367 32.22548,-3.29348 58.87209,4.66973 75.714,22.62674 12.34235,13.15954 20.98171,36.12276 21.05005,55.95054 l 0.0271,7.84878 -16.5625,-0.34878 -16.5625,-0.34878 -0.79286,-8.87008 c -2.215,-24.77996 -12.81225,-39.66171 -32.50172,-45.6422 -7.45267,-2.26368 -11.01591,-2.57967 -23.97941,-2.12651 -13.36164,0.46708 -16.1784,0.96339 -23.00398,4.05323 -9.19064,4.16047 -19.18241,14.0451 -23.14531,22.89711 -1.81943,4.06412 -2.83161,9.38303 -3.20688,16.85189 -0.66866,13.30819 0.51345,17.33953 12.28604,41.89906 l 8.53841,17.8125 30.71536,0 30.71535,0 0,9.375 0,9.375 -26.25,0 c -14.4375,0 -26.25,0.22109 -26.25,0.4913 0,0.27021 0.91224,4.9024 2.0272,10.29378 3.46708,16.76501 0.24611,33.40227 -9.68072,50.00377 -4.97754,8.3243 -19.79053,24.4931 -28.58088,31.1967 -3.4158,2.6049 -5.99761,4.9491 -5.73736,5.2094 0.26025,0.2602 3.20098,-0.9054 6.53497,-2.5902 10.68632,-5.4003 26.67119,-9.823 38.01755,-10.5187 12.06678,-0.7398 23.64273,1.1746 44.91924,7.4286 7.88246,2.317 17.19316,4.0932 23.30989,4.4467 9.03651,0.5224 10.93923,0.2297 16.875,-2.5958 3.67956,-1.7516 8.3961,-4.3282 10.48118,-5.726 l 3.79108,-2.5413 7.68509,12.4182 7.68508,12.4182 -9.34371,6.2495 c -15.40179,10.3013 -32.99645,14.1119 -49.49035,10.7185 z"
         style="fill:#323232" />
      <path
         id="path4165"
         d="m 864.46429,1085.4976 c -4.8125,-0.8994 -16.43718,-3.9797 -25.83261,-6.8451 -38.87641,-11.8565 -55.95389,-11.8017 -79.17663,0.2541 l -10.25648,5.3245 -8.886,-12.5416 -8.88599,-12.5415 5.26885,-4.3082 c 9.99805,-8.1751 25.58045,-24.5284 30.09138,-31.5801 7.45384,-11.6522 9.81015,-18.9709 10.3789,-32.23675 0.45173,-10.53654 0.11683,-13.00212 -2.97115,-21.875 l -3.48027,-10 -20.9375,-0.34272 -20.9375,-0.34273 0,-9.34477 0,-9.34478 14.375,0 c 7.90625,0 14.375,-0.19899 14.375,-0.4422 0,-0.2432 -3.08713,-6.93682 -6.86028,-14.87472 -8.39362,-17.65831 -10.60685,-26.60578 -10.58897,-42.80808 0.0106,-9.63456 0.6544,-14.3791 2.80835,-20.69727 8.28554,-24.30395 29.83343,-44.02163 55.2659,-50.57178 19.80904,-5.10183 47.23986,-4.83094 65.63862,0.64821 29.63133,8.82421 48.31568,35.13205 50.84886,71.59593 l 0.76244,10.97508 -16.74996,-0.35008 -16.74996,-0.35009 -0.83378,-10 c -1.97412,-23.677 -12.86877,-38.56138 -32.61515,-44.55916 -7.2794,-2.21105 -10.9357,-2.5302 -23.82506,-2.07963 -13.36164,0.46708 -16.1784,0.96339 -23.00398,4.05323 -9.19064,4.16047 -19.18241,14.0451 -23.14531,22.89711 -1.81943,4.06412 -2.83161,9.38303 -3.20688,16.85189 -0.66866,13.30819 0.51345,17.33953 12.28604,41.89906 l 8.53841,17.8125 30.71536,0 30.71535,0 0,9.375 0,9.375 -26.25,0 c -14.4375,0 -26.25,0.22109 -26.25,0.4913 0,0.27021 0.91224,4.9024 2.0272,10.29378 3.46708,16.76501 0.24611,33.40227 -9.68072,50.00377 -4.97754,8.3243 -19.79053,24.4931 -28.58088,31.1967 -3.4158,2.6049 -5.99761,4.9491 -5.73736,5.2094 0.26025,0.2602 3.20098,-0.9054 6.53497,-2.5902 3.33398,-1.6848 10.84304,-4.6466 16.68679,-6.5818 9.24088,-3.0601 12.57905,-3.5225 25.625,-3.5499 13.60566,-0.029 16.62672,0.4168 32.5,4.7917 36.20582,9.9788 41.38249,9.7956 59.40946,-2.1026 l 3.15947,-2.0853 7.69169,12.4289 7.6917,12.4289 -9.34371,6.2495 c -15.24367,10.1955 -31.94919,13.904 -48.60861,10.7905 z"
         style="fill:#2a2a2a" />
      <path
         id="path4163"
         d="m 864.46429,1085.4976 c -4.8125,-0.8994 -16.34375,-3.9454 -25.625,-6.7688 -39.49127,-12.0137 -55.97123,-11.9768 -79.38424,0.1778 l -10.25648,5.3245 -8.886,-12.5416 -8.88599,-12.5415 5.26885,-4.3682 c 11.70212,-9.7016 23.90762,-22.3273 29.03259,-30.032 8.26312,-12.4226 10.83744,-19.9694 11.50407,-33.72485 0.51841,-10.69721 0.22373,-12.86682 -2.97115,-21.875 l -3.54665,-10 -20.9375,-0.34272 -20.9375,-0.34273 0,-9.34477 0,-9.34478 14.375,0 c 7.90625,0 14.375,-0.19899 14.375,-0.4422 0,-0.2432 -3.08713,-6.93682 -6.86028,-14.87472 -8.39362,-17.65831 -10.60685,-26.60578 -10.58897,-42.80808 0.0106,-9.63456 0.6544,-14.3791 2.80835,-20.69727 8.2857,-24.30442 29.83739,-44.02517 55.2659,-50.57072 20.36901,-5.24319 49.44609,-4.71228 66.98973,1.22316 29.79346,10.07984 46.97701,34.735 49.49775,71.01992 l 0.76244,10.97508 -16.74996,-0.35008 -16.74996,-0.35009 -0.83378,-10 c -2.58567,-31.01174 -20.33117,-46.94569 -52.3253,-46.98367 -20.37018,-0.0242 -31.2302,3.89427 -41.64158,15.02488 -8.36938,8.94754 -11.16116,15.82044 -11.8295,29.12223 -0.67161,13.36698 0.54988,17.5378 12.27082,41.89906 l 8.57013,17.8125 30.70711,0 30.7071,0 0,9.375 0,9.375 -26.38551,0 -26.38551,0 0.67695,2.8125 c 5.46311,22.69715 3.16935,39.19745 -8.05945,57.97635 -4.97754,8.3243 -19.79053,24.4931 -28.58088,31.1967 -3.4158,2.6049 -5.99761,4.9491 -5.73736,5.2094 0.26025,0.2602 3.20098,-0.9054 6.53497,-2.5902 3.33398,-1.6848 10.84304,-4.6466 16.68679,-6.5818 9.24088,-3.0601 12.57905,-3.5225 25.625,-3.5499 13.60566,-0.029 16.62672,0.4168 32.5,4.7917 36.4829,10.0552 41.24453,9.8867 59.40946,-2.1026 l 3.15947,-2.0853 7.69944,12.4414 7.69946,12.4414 -9.60892,6.3129 c -15.59212,10.2437 -31.7172,13.8123 -48.35891,10.7021 z"
         style="fill:#272727" />
      <path
         id="path4161"
         d="m 864.46429,1085.4976 c -4.8125,-0.8994 -16.34375,-3.9454 -25.625,-6.7688 -39.49127,-12.0137 -55.97123,-11.9768 -79.38424,0.1778 l -10.25648,5.3245 -8.886,-12.5416 -8.88599,-12.5415 5.26885,-4.3682 c 11.47266,-9.5113 23.73678,-22.1479 29.06876,-29.9516 12.17683,-17.8214 15.07106,-37.43339 8.3092,-56.30525 l -3.3591,-9.375 -20.9375,-0.34272 -20.9375,-0.34273 0,-9.34477 0,-9.34478 14.375,0 c 7.90625,0 14.375,-0.19899 14.375,-0.4422 0,-0.2432 -3.08713,-6.93682 -6.86028,-14.87472 -8.39362,-17.65831 -10.60685,-26.60578 -10.58897,-42.80808 0.023,-20.84205 6.98565,-36.37446 23.24476,-51.85483 14.44506,-13.7532 29.9764,-20.14326 54.82949,-22.55849 13.80421,-1.3415 23.98,-0.78027 38.125,2.10272 34.50222,7.03214 55.60028,33.52493 58.36248,73.28569 l 0.76244,10.97508 -16.74996,-0.35008 -16.74996,-0.35009 -0.83378,-10 c -2.60578,-31.25283 -20.34802,-47.00051 -53.02081,-47.06028 -20.01449,-0.0366 -30.81333,4.05946 -41.48438,15.73529 -8.29499,9.07604 -11.53831,17.63775 -11.52906,30.43438 0.009,12.696 1.08156,16.18276 11.90349,38.70311 l 9.16029,19.0625 30.71463,0 30.71462,0 0,9.375 0,9.375 -26.38551,0 -26.38551,0 0.67695,2.8125 c 5.46337,22.69826 3.16523,39.22635 -8.05945,57.96305 -5.0429,8.4178 -18.07919,22.7051 -27.75716,30.4208 -3.84356,3.0643 -6.7857,5.7739 -6.53809,6.0215 0.2476,0.2477 3.17799,-0.9283 6.51198,-2.6131 3.33398,-1.6848 10.84304,-4.6466 16.68679,-6.5818 9.24237,-3.0606 12.57695,-3.5224 25.625,-3.5487 13.62579,-0.027 16.60324,0.4135 32.5,4.8126 36.29429,10.0438 41.24219,9.8656 59.43412,-2.1409 l 3.18413,-2.1014 7.12837,11.6812 c 3.92061,6.4247 7.12838,12.2121 7.12838,12.8609 0,0.6488 -4.07813,3.8344 -9.0625,7.0793 -15.14681,9.8605 -31.42779,13.3708 -47.8125,10.3087 z"
         style="fill:#1f1f1f" />
      <path
         id="path4159"
         d="m 864.46429,1085.4796 c -4.8125,-0.8895 -16.34375,-3.9274 -25.625,-6.7508 -39.49127,-12.0137 -55.97123,-11.9768 -79.38424,0.1778 l -10.25648,5.3245 -8.89412,-12.5416 -8.89412,-12.5415 4.64773,-3.75 c 10.31094,-8.3194 24.4378,-22.8593 29.71762,-30.5866 12.16503,-17.8041 15.05717,-37.42329 8.29771,-56.28845 l -3.3591,-9.375 -20.9375,-0.34272 -20.9375,-0.34273 0,-9.34477 0,-9.34478 14.70078,0 14.70077,0 -7.16498,-14.6875 c -8.37736,-17.17277 -10.98657,-27.26236 -10.98657,-42.48413 0,-20.9847 6.01294,-35.02966 21.86959,-51.08272 15.32103,-15.51081 30.1826,-21.86201 56.76772,-24.26012 31.81371,-2.86976 57.07183,4.35234 73.73228,21.08242 13.2538,13.30918 20.6979,31.46534 22.25591,54.28214 l 0.74942,10.97508 -16.74996,-0.35008 -16.74996,-0.35009 -0.85485,-10 c -2.38549,-27.90525 -16.74874,-43.46853 -43.13441,-46.73826 -21.88431,-2.71191 -39.28464,2.41435 -50.94479,15.00871 -8.69532,9.39198 -11.94342,17.78548 -11.93398,30.83894 0.009,12.696 1.08156,16.18276 11.90349,38.70311 l 9.16029,19.0625 30.71463,0 30.71462,0 0,9.375 0,9.375 -26.39579,0 -26.39579,0 0.74498,2.8125 c 0.40974,1.54688 1.41638,7.1716 2.23697,12.49939 4.07315,26.44536 -9.8607,53.14836 -40.78768,78.16586 -5.92128,4.7899 -5.15116,5.0741 2.82637,1.043 3.24276,-1.6386 10.67719,-4.568 16.52094,-6.5098 9.45584,-3.1419 12.34435,-3.5233 26.25,-3.4657 14.16354,0.059 17.14493,0.4986 31.875,4.7022 35.82936,10.2248 41.03657,10.0407 59.43412,-2.1015 l 3.18413,-2.1014 7.12837,11.6812 c 3.92061,6.4247 7.12838,12.2121 7.12838,12.8609 0,0.6488 -4.07813,3.8377 -9.0625,7.0864 -14.87621,9.6962 -31.56716,13.2861 -47.8125,10.2836 z"
         style="fill:#161616" />
      <path
         id="path4157"
         d="m 866.68533,1085.8473 c -4.27844,-0.6138 -16.09094,-3.6171 -26.25,-6.674 -23.90258,-7.1924 -34.68818,-9.4046 -45.74026,-9.3819 -12.31787,0.025 -23.10548,2.8157 -35.24002,9.1152 l -10.25648,5.3245 -8.8635,-12.5416 -8.8635,-12.5415 4.62136,-3.7145 c 10.0625,-8.0878 24.37339,-22.8516 29.68275,-30.6221 11.56095,-16.92 14.89407,-36.4768 9.18539,-53.8945 -4.42179,-13.4913 -2.16043,-12.39395 -25.54076,-12.39395 l -20.58102,0 0,-9.375 0,-9.375 14.70078,0 14.70077,0 -7.16498,-14.6875 c -8.37736,-17.17277 -10.98657,-27.26236 -10.98657,-42.48413 0,-20.9847 6.01294,-35.02966 21.86959,-51.08272 15.21769,-15.40618 29.81702,-21.68728 56.20296,-24.1803 31.42316,-2.96896 57.31047,4.17772 73.6386,20.32931 8.27827,8.18877 12.64877,15.05195 17.05555,26.78301 3.40128,9.05438 6.23291,23.58582 6.23459,31.99479 l 10e-4,6.45254 -15.93879,0 c -9.18029,0 -16.3282,-0.53004 -16.85715,-1.25 -0.5051,-0.6875 -0.92697,-3.8037 -0.9375,-6.92488 -0.0409,-12.11701 -5.42817,-26.24487 -13.35258,-35.01623 -12.98915,-14.37748 -45.30461,-18.79493 -66.82896,-9.13538 -9.60484,4.3104 -19.86241,15.15707 -23.48158,24.83015 -2.93692,7.84963 -3.52409,22.83999 -1.22392,31.24634 0.75246,2.75 5.49024,13.57813 10.5284,24.0625 l 9.16029,19.0625 30.71463,0 30.71462,0 0,9.375 0,9.375 -26.39579,0 -26.39579,0 0.74498,2.8125 c 0.40974,1.54688 1.41638,7.1716 2.23697,12.49939 1.67038,10.84511 0.44686,20.80025 -4.02556,32.75386 -5.19695,13.8901 -19.33058,31.6433 -34.52288,43.3641 -3.68803,2.8453 -6.46589,5.4129 -6.17301,5.7057 0.29287,0.2929 3.2603,-0.846 6.59429,-2.5308 3.33398,-1.6848 10.84304,-4.652 16.68679,-6.5938 9.45584,-3.1419 12.34435,-3.5233 26.25,-3.4657 14.16354,0.059 17.14493,0.4986 31.875,4.7022 35.80894,10.219 41.04476,10.0363 59.38855,-2.0716 l 3.13854,-2.0716 7.31371,11.8825 c 7.19845,11.6953 7.27708,11.923 4.9892,14.4511 -1.27848,1.4127 -5.98199,4.7208 -10.45225,7.3513 -13.13153,7.7273 -27.50445,10.6372 -42.15671,8.5352 z"
         style="fill:#141414" />
      <path
         id="path4155"
         d="m 866.68533,1085.8473 c -4.27844,-0.6138 -16.09094,-3.6171 -26.25,-6.674 -23.90258,-7.1924 -34.68818,-9.4046 -45.74026,-9.3819 -12.31787,0.025 -23.10548,2.8157 -35.24002,9.1152 l -10.25648,5.3245 -8.8635,-12.5416 -8.8635,-12.5415 4.62136,-3.7145 c 10.0625,-8.0878 24.37339,-22.8516 29.68275,-30.6221 11.56095,-16.92 14.89407,-36.4768 9.18539,-53.8945 -4.42179,-13.4913 -2.16043,-12.39395 -25.54076,-12.39395 l -20.58102,0 0,-9.375 0,-9.375 14.69554,0 14.69554,0 -7.23671,-14.88472 c -8.21364,-16.89414 -10.85129,-27.23495 -10.88267,-42.66516 -0.039,-19.17292 5.66788,-33.51606 19.22678,-48.32299 17.48314,-19.09236 37.91285,-26.76769 71.37652,-26.81579 26.09889,-0.0375 44.78882,5.74638 58.94891,18.24265 14.60926,12.89265 25.42295,38.88495 25.42738,61.11847 l 10e-4,6.45254 -15.93879,0 c -9.18029,0 -16.3282,-0.53004 -16.85715,-1.25 -0.5051,-0.6875 -0.92697,-3.8037 -0.9375,-6.92488 -0.0409,-12.11701 -5.42817,-26.24487 -13.35258,-35.01623 -17.30467,-19.15421 -61.31153,-19.0481 -80.1609,0.19329 -8.34753,8.52113 -12.04454,17.2325 -12.57425,29.62903 -0.58491,13.68853 0.78579,18.5125 11.69457,41.15712 l 9.19481,19.08667 30.71463,0 30.71462,0 0,9.375 0,9.375 -26.39579,0 -26.39579,0 0.74498,2.8125 c 0.40974,1.54688 1.41638,7.1716 2.23697,12.49939 1.67038,10.84511 0.44686,20.80025 -4.02556,32.75386 -5.19695,13.8901 -19.33058,31.6433 -34.52288,43.3641 -3.68803,2.8453 -6.46589,5.4129 -6.17301,5.7057 0.29287,0.2929 3.2603,-0.846 6.59429,-2.5308 3.33398,-1.6848 10.84304,-4.652 16.68679,-6.5938 9.45584,-3.1419 12.34435,-3.5233 26.25,-3.4657 14.16354,0.059 17.14493,0.4986 31.875,4.7022 35.80894,10.219 41.04476,10.0363 59.38855,-2.0716 l 3.13854,-2.0716 7.31371,11.8825 c 7.19845,11.6953 7.27708,11.923 4.9892,14.4511 -1.27848,1.4127 -5.98199,4.7208 -10.45225,7.3513 -13.13153,7.7273 -27.50445,10.6372 -42.15671,8.5352 z"
         style="fill:#121212" />
      <path
         id="path4153"
         d="m 866.77713,1085.8101 c -4.22794,-0.5809 -16.95977,-3.8239 -28.29297,-7.2066 -24.27992,-7.2471 -32.11443,-8.8305 -43.69019,-8.8305 -12.05305,0 -23.6751,3.0009 -35.32968,9.1225 l -10,5.2525 -8.97382,-12.5 -8.97382,-12.5 4.59882,-3.7145 c 10.14462,-8.1938 24.37204,-22.8826 29.66021,-30.6221 11.56095,-16.92 14.89407,-36.4768 9.18539,-53.8945 -4.42179,-13.4913 -2.16043,-12.39395 -25.54076,-12.39395 l -20.58102,0 0,-9.375 0,-9.375 14.69554,0 14.69554,0 -7.23671,-14.88472 c -8.21364,-16.89414 -10.85129,-27.23495 -10.88267,-42.66516 -0.0419,-20.58435 6.08803,-34.7905 21.84789,-50.63301 6.13663,-6.16881 12.92239,-11.57932 17.5493,-13.99263 22.0242,-11.4874 59.4951,-14.13446 85.15285,-6.01546 18.92495,5.98852 31.67527,17.01324 40.47684,34.99876 6.05946,12.3822 8.59743,21.86538 9.55228,35.69222 l 0.73374,10.625 -16.7298,-0.625 -16.7298,-0.625 -0.86584,-9.375 c -2.53789,-27.47964 -16.73597,-42.66721 -43.22176,-46.23394 -26.75048,-3.60238 -49.00975,6.32862 -58.78174,26.22553 -2.65335,5.40253 -3.47609,9.1168 -3.82425,17.26462 -0.58492,13.68853 0.78579,18.5125 11.69456,41.15712 l 9.19478,19.08667 30.71463,0 30.71462,0 0,9.375 0,9.375 -26.38551,0 -26.38551,0 0.7014,2.8125 c 4.23862,16.99618 3.71788,30.59742 -1.72881,45.15495 -5.23368,13.9883 -19.32359,31.7078 -34.55964,43.4624 -3.68803,2.8453 -6.46589,5.4129 -6.17301,5.7057 0.29287,0.2929 3.2603,-0.846 6.59429,-2.5308 11.10828,-5.6135 26.63569,-9.8415 38.56179,-10.4999 11.82129,-0.6527 21.91531,1.1689 50.625,9.1357 19.79811,5.4939 29.73418,4.2433 44.39492,-5.5876 l 3.76993,-2.528 7.39742,12.0186 7.39742,12.0185 -4.29235,3.6101 c -13.96585,11.7462 -32.42996,17.0292 -50.7295,14.515 z"
         style="fill:#0b0b0b" />
      <path
         id="path4151"
         d="m 866.77713,1085.7403 c -4.22794,-0.5425 -16.95977,-3.7541 -28.29297,-7.1368 -24.27992,-7.2471 -32.11443,-8.8305 -43.69019,-8.8305 -12.05305,0 -23.6751,3.0009 -35.32968,9.1225 l -10,5.2525 -8.97382,-12.5 -8.97382,-12.5 4.59882,-3.7145 c 10.14462,-8.1938 24.37204,-22.8826 29.66021,-30.6221 12.13715,-17.7633 14.9185,-36.13731 8.47332,-55.97595 l -3.35033,-10.3125 -21.02969,0 -21.02969,0 0,-9.375 0,-9.375 14.70717,0 14.70717,0 -6.55683,-13.4375 c -3.60626,-7.39062 -7.49039,-16.53125 -8.63141,-20.3125 -2.73693,-9.07002 -3.68888,-29.92036 -1.78479,-39.09228 4.51225,-21.73542 25.09085,-45.12791 46.86683,-53.27535 18.69582,-6.995 50.95017,-8.79962 70.06686,-3.92021 22.6245,5.77476 37.37091,17.24188 46.66522,36.28784 6.23516,12.77712 8.80298,22.17491 9.81946,35.9375 l 0.76164,10.3125 -16.30192,0 c -18.06376,0 -17.8194,0.11779 -17.8194,-8.58961 0,-2.54933 -0.86226,-7.94559 -1.91614,-11.99169 -5.5476,-21.29869 -19.09826,-32.89194 -41.76791,-35.73447 -26.85565,-3.36741 -48.83559,6.50676 -58.56029,26.30736 -2.70428,5.50621 -3.46725,9.04997 -3.81347,17.71216 -0.54894,13.73413 1.02,19.12627 12.21595,41.98375 l 8.72483,17.8125 30.68352,0 30.68351,0 0,9.375 0,9.375 -26.38551,0 -26.38551,0 0.7014,2.8125 c 4.23862,16.99618 3.71788,30.59742 -1.72881,45.15495 -5.23368,13.9883 -19.32359,31.7078 -34.55964,43.4624 -3.68803,2.8453 -6.46589,5.4129 -6.17301,5.7057 0.29287,0.2929 3.2603,-0.846 6.59429,-2.5308 11.10828,-5.6135 26.63569,-9.8415 38.56179,-10.4999 11.82129,-0.6527 21.91531,1.1689 50.625,9.1357 19.79811,5.4939 29.73418,4.2433 44.39492,-5.5876 l 3.76993,-2.528 7.29191,11.8471 c 8.283,13.4574 8.3772,12.74 -2.63289,20.0481 -13.15352,8.7308 -28.73258,12.2701 -44.88603,10.1972 z"
         style="fill:#000000" />
      <path
         id="path4149"
         d="m 867.54333,1085.8671 c -7.03845,-0.9536 -12.18702,-2.3008 -39.95404,-10.4549 -28.31919,-8.3162 -47.57358,-7.3338 -68.125,3.4759 l -10,5.2599 -8.97382,-12.5 -8.97382,-12.5 4.59882,-3.7145 c 10.14462,-8.1938 24.37204,-22.8826 29.66021,-30.6221 12.13715,-17.7633 14.9185,-36.13731 8.47332,-55.97595 l -3.35033,-10.3125 -21.02969,0 -21.02969,0 0,-9.375 0,-9.375 14.70717,0 14.70717,0 -6.55683,-13.4375 c -3.60626,-7.39062 -7.49039,-16.53125 -8.63141,-20.3125 -2.73693,-9.07002 -3.68888,-29.92036 -1.78479,-39.09228 4.51225,-21.73542 25.09085,-45.12791 46.86683,-53.27535 12.01464,-4.49525 25.18292,-6.47148 43.041,-6.45937 19.43441,0.0132 31.63386,2.45399 45.03824,9.01103 21.31496,10.42667 36.27431,35.99389 38.4723,65.75347 l 0.76164,10.3125 -16.30192,0 c -18.06376,0 -17.8194,0.11779 -17.8194,-8.58961 0,-2.54933 -0.86226,-7.94559 -1.91614,-11.99169 -5.5476,-21.29869 -19.09826,-32.89194 -41.76791,-35.73447 -26.85565,-3.36741 -48.83559,6.50676 -58.56029,26.30736 -2.70428,5.50621 -3.46725,9.04997 -3.81347,17.71216 -0.54894,13.73413 1.02,19.12627 12.21595,41.98375 l 8.72483,17.8125 30.68352,0 30.68351,0 0,9.375 0,9.375 -26.38551,0 -26.38551,0 0.7014,2.8125 c 4.23862,16.99618 3.71788,30.59742 -1.72881,45.15495 -5.23368,13.9883 -19.32359,31.7078 -34.55964,43.4624 -3.68803,2.8453 -6.46589,5.4129 -6.17301,5.7057 0.29287,0.2929 3.2603,-0.846 6.59429,-2.5308 10.3313,-5.2209 26.69492,-9.8038 37.57194,-10.5226 11.94751,-0.7895 18.93964,0.3725 44.73985,7.4355 27.13836,7.4292 35.3506,6.8102 51.26992,-3.8647 l 3.76993,-2.528 7.3935,12.0122 7.39349,12.0121 -4.91343,4.1439 c -12.73832,10.7433 -32.40476,16.3445 -49.33437,14.051 z m 30.33584,-4.8393 c 8.51833,-3.2367 22.37698,-12.4426 21.3864,-14.2063 -0.70065,-1.2475 -11.74354,-19.5618 -12.39096,-20.55 -0.13566,-0.2071 -2.98348,1.3594 -6.32848,3.4812 -6.73336,4.2711 -16.3581,7.5227 -22.24622,7.5157 -2.1096,0 -10.30437,-1.6946 -18.21062,-3.7601 -27.36191,-7.1485 -40.65318,-9.9627 -47.10578,-9.974 -11.26338,-0.02 -29.33354,4.6642 -43.14801,11.1842 -3.23333,1.526 -6.458,2.4166 -7.16594,1.9791 -0.70793,-0.4376 5.94057,-7.9402 14.77445,-16.6726 14.16054,-13.9978 16.67692,-17.1346 21.26017,-26.502 2.95297,-6.0354 6.06524,-14.90645 7.20494,-20.53654 1.85401,-9.1588 1.84781,-10.7992 -0.0816,-21.60116 -1.14839,-6.42931 -1.75109,-12.23477 -1.33933,-12.90101 0.44366,-0.71786 11.15774,-1.21134 26.29987,-1.21134 l 25.55123,0 0,-8.125 0,-8.125 -30.63569,0 -30.63568,0 -7.99291,-16.5625 c -4.39611,-9.10937 -8.89159,-18.74127 -9.98997,-21.4042 -3.18977,-7.73338 -4.54633,-19.26728 -3.29547,-28.01914 4.03769,-28.25053 30.60128,-45.07314 64.09579,-40.59162 27.82203,3.72255 41.50377,18.99015 45.37994,50.63996 l 0.72718,5.9375 15.08491,0 15.08492,0 -0.87256,-9.0625 c -3.0169,-31.33392 -16.32417,-53.59915 -38.55048,-64.5012 -13.10579,-6.42843 -26.01719,-9.04408 -44.53404,-9.02194 -36.41684,0.0435 -62.35502,12.21127 -77.9286,36.55669 -8.33789,13.03422 -10.21091,19.83678 -10.26441,37.27895 -0.0556,18.14279 1.69892,24.8173 11.83201,45.00985 3.36656,6.70864 5.77392,12.54463 5.3497,12.96884 -0.42422,0.42422 -6.86506,0.77131 -14.31297,0.77131 l -13.54167,0 0,8.125 0,8.125 20.06378,0 20.06379,0 1.96522,4.6875 c 6.24074,14.88556 7.40988,29.88603 3.4338,44.05665 -3.94183,14.0486 -19.79285,34.4842 -37.93076,48.9014 l -5.52917,4.3949 8.02917,11.2713 8.02917,11.2712 11.25,-5.4167 c 13.99509,-6.7385 22.55958,-8.3817 39.375,-7.5547 11.1028,0.546 16.8594,1.7338 37.36295,7.7088 13.33088,3.8849 27.39338,7.4692 31.25,7.9651 8.56608,1.1017 20.92025,-0.3933 29.17693,-3.5306 z"
         style="fill:#000000" />
    </g>
  </g>
</svg>
