<?xml version="1.0" encoding="UTF-8"?>
<svg id="SVGDoc" width="28" height="28" xmlns="http://www.w3.org/2000/svg" version="1.1" xmlns:xlink="http://www.w3.org/1999/xlink" xmlns:avocode="https://avocode.com/" viewBox="0 0 28 28"><defs></defs><desc>Generated with Avocode.</desc><g><g><title>Path</title><path d="M10.23935,17.54686c0.30612,0.30313 0.80236,0.30313 1.10849,0l2.5815,-2.55695v0l2.58151,2.55695c0.3076,0.29427 0.79655,0.29006 1.09894,-0.00946c0.30239,-0.29951 0.30664,-0.78381 0.00955,-1.08848l-2.58151,-2.55695v0l2.58151,-2.55696c0.20379,-0.19495 0.28552,-0.48365 0.21378,-0.75513c-0.07174,-0.27148 -0.28579,-0.48349 -0.55988,-0.55455c-0.27409,-0.07106 -0.56556,0.00989 -0.76239,0.21174l-2.58151,2.55695v0l-2.5815,-2.55695c-0.19683,-0.20185 -0.4883,-0.2828 -0.76239,-0.21174c-0.27409,0.07106 -0.48814,0.28307 -0.55988,0.55455c-0.07174,0.27148 0.00999,0.56018 0.21378,0.75513l2.58151,2.55696v0l-2.58151,2.55695c-0.30604,0.30321 -0.30604,0.79473 0,1.09794z" fill="#eb0147" fill-opacity="1"></path><path d="M10.23935,17.54686c0.30612,0.30313 0.80236,0.30313 1.10849,0l2.5815,-2.55695v0l2.58151,2.55695c0.3076,0.29427 0.79655,0.29006 1.09894,-0.00946c0.30239,-0.29951 0.30664,-0.78381 0.00955,-1.08848l-2.58151,-2.55695v0l2.58151,-2.55696c0.20379,-0.19495 0.28552,-0.48365 0.21378,-0.75513c-0.07174,-0.27148 -0.28579,-0.48349 -0.55988,-0.55455c-0.27409,-0.07106 -0.56556,0.00989 -0.76239,0.21174l-2.58151,2.55695v0l-2.5815,-2.55695c-0.19683,-0.20185 -0.4883,-0.2828 -0.76239,-0.21174c-0.27409,0.07106 -0.48814,0.28307 -0.55988,0.55455c-0.07174,0.27148 0.00999,0.56018 0.21378,0.75513l2.58151,2.55696v0l-2.58151,2.55695c-0.30604,0.30321 -0.30604,0.79473 0,1.09794z" fill-opacity="0" fill="#ffffff" stroke-linejoin="miter" stroke-linecap="butt" stroke-opacity="1" stroke="#eb0147" stroke-miterlimit="20" stroke-width="1"></path></g></g></svg>