<?xml version="1.0" encoding="UTF-8"?>
<svg id="SVGDoc" width="12" height="12" xmlns="http://www.w3.org/2000/svg" version="1.1" xmlns:xlink="http://www.w3.org/1999/xlink" xmlns:avocode="https://avocode.com/" viewBox="0 0 12 12"><defs></defs><desc>Generated with Avocode.</desc><g><g><title>price-tag</title><g><title>Shape</title><path d="M8.99984,4.00006c-0.5523,0 -1.00004,-0.44821 -1.00004,-1.00005c0,-0.55274 0.44774,-1.00005 1.00004,-1.00005c0.5523,0 1.00019,0.44731 1.00019,1.00005c0.00003,0.55184 -0.44789,1.00005 -1.00019,1.00005zM10.99996,0h-4.15632c-0.27495,0 -0.65924,0.15929 -0.8535,0.35341l-5.69832,5.69835c-0.38909,0.38865 -0.38909,1.02586 0,1.41405l4.24286,4.24275c0.38821,0.38866 1.0248,0.38866 1.41359,-0.00043l5.69832,-5.69748c0.19409,-0.19409 0.35341,-0.57899 0.35341,-0.85336v-4.15724c0,-0.5499 -0.45017,-1.00005 -1.00004,-1.00005z" fill="#838993" fill-opacity="1"></path></g></g></g></svg>