<?xml version="1.0" encoding="UTF-8"?>
<svg id="SVGDoc" width="10" height="11" xmlns="http://www.w3.org/2000/svg" version="1.1" xmlns:xlink="http://www.w3.org/1999/xlink" xmlns:avocode="https://avocode.com/" viewBox="0 0 10 11"><defs></defs><desc>Generated with Avocode.</desc><g><g><title>power-button-off</title><g><title>Path</title><path d="M5.00423,5.71429c0.19345,0 0.36091,-0.08062 0.50217,-0.24232c0.14129,-0.16148 0.21211,-0.35291 0.21211,-0.57394v-4.08166c0,-0.22114 -0.07075,-0.41244 -0.21211,-0.57392c-0.14123,-0.16166 -0.30871,-0.24245 -0.50217,-0.24245c-0.19347,0 -0.36083,0.08088 -0.50219,0.24245c-0.14135,0.16148 -0.21204,0.35287 -0.21204,0.57392v4.08168c0,0.22103 0.07069,0.41244 0.21204,0.57394c0.14135,0.16168 0.30876,0.2423 0.50219,0.2423z" fill="#62718a" fill-opacity="1"></path></g><g><title>Path</title><path d="M9.47616,3.3848c-0.34946,-0.70818 -0.84094,-1.30208 -1.4746,-1.78152c-0.18229,-0.14075 -0.38845,-0.19576 -0.61849,-0.165c-0.23006,0.03081 -0.41235,0.14078 -0.54689,0.32987c-0.1389,0.18473 -0.19196,0.39257 -0.15949,0.62353c0.03245,0.23107 0.13999,0.41686 0.32228,0.55763c0.42517,0.3255 0.75415,0.72367 0.98624,1.19436c0.23223,0.47064 0.34821,0.97218 0.34821,1.50435c0,0.45763 -0.08788,0.89413 -0.26363,1.30991c-0.17572,0.4157 -0.41342,0.77525 -0.71294,1.07882c-0.29952,0.30347 -0.65418,0.5443 -1.06442,0.72249c-0.41016,0.17819 -0.84094,0.2674 -1.29233,0.2674c-0.45132,0 -0.88212,-0.08921 -1.29228,-0.2674c-0.41021,-0.17819 -0.76499,-0.41902 -1.06451,-0.72249c-0.29938,-0.30357 -0.53704,-0.66309 -0.71285,-1.07882c-0.17577,-0.41578 -0.26368,-0.85228 -0.26368,-1.30991c0,-0.53217 0.11612,-1.03364 0.3483,-1.50435c0.23221,-0.47065 0.56099,-0.86879 0.98631,-1.19436c0.18229,-0.14086 0.28967,-0.32663 0.32228,-0.55763c0.03254,-0.23086 -0.02059,-0.4388 -0.15951,-0.62353c-0.13456,-0.18909 -0.31569,-0.29908 -0.5436,-0.32987c-0.2279,-0.03078 -0.43521,0.02425 -0.62181,0.165c-0.63374,0.47944 -1.1252,1.07334 -1.47466,1.78152c-0.34944,0.70828 -0.52409,1.46268 -0.52409,2.26324c0,0.68634 0.1324,1.34171 0.39712,1.96637c0.26481,0.62466 0.62066,1.16343 1.06779,1.6166c0.44699,0.45305 0.97869,0.81387 1.59506,1.08196c0.61633,0.26844 1.26303,0.40274 1.94011,0.40274c0.6771,0 1.32378,-0.1343 1.94013,-0.40274c0.61639,-0.26818 1.14808,-0.62893 1.59513,-1.08196c0.44699,-0.45303 0.80284,-0.99194 1.06761,-1.6166c0.26477,-0.62466 0.39705,-1.28019 0.39705,-1.96637c0.00002,-0.80058 -0.1744,-1.55499 -0.52384,-2.26324z" fill="#62718a" fill-opacity="1"></path></g></g></g></svg>